<svg width="49" height="51" viewBox="0 0 49 51" fill="none" xmlns="http://www.w3.org/2000/svg">
<g filter="url(#filter0_f_282_2258)">
<path d="M20 2.5C20 2.5 21.8182 2 25 2C28.1818 2 30 2.5 30 2.5V23.5H20V2.5Z" fill="url(#paint0_linear_282_2258)"/>
<path d="M20 2.5C20 2.5 21.8182 2 25 2C28.1818 2 30 2.5 30 2.5V23.5H20V2.5Z" fill="url(#paint1_linear_282_2258)"/>
</g>
<g opacity="0.3" filter="url(#filter1_f_282_2258)">
<ellipse cx="24.5" cy="25.5" rx="10.5" ry="12" fill="white"/>
</g>
<g filter="url(#filter2_f_282_2258)">
<ellipse cx="24.5001" cy="25.5" rx="10.5" ry="12" fill="white"/>
<ellipse cx="24.5001" cy="25.5" rx="10.5" ry="12" fill="url(#paint2_radial_282_2258)"/>
</g>
<g filter="url(#filter3_f_282_2258)">
<path d="M20.8142 35.4434C19.3728 34.7464 16.2764 31.7819 15.4213 25.5001" stroke="#DCD1CE" stroke-width="2"/>
</g>
<defs>
<filter id="filter0_f_282_2258" x="19.6" y="1.6" width="10.8" height="22.3" filterUnits="userSpaceOnUse" color-interpolation-filters="sRGB">
<feFlood flood-opacity="0" result="BackgroundImageFix"/>
<feBlend mode="normal" in="SourceGraphic" in2="BackgroundImageFix" result="shape"/>
<feGaussianBlur stdDeviation="0.2" result="effect1_foregroundBlur_282_2258"/>
</filter>
<filter id="filter1_f_282_2258" x="0.8" y="0.3" width="47.4" height="50.4" filterUnits="userSpaceOnUse" color-interpolation-filters="sRGB">
<feFlood flood-opacity="0" result="BackgroundImageFix"/>
<feBlend mode="normal" in="SourceGraphic" in2="BackgroundImageFix" result="shape"/>
<feGaussianBlur stdDeviation="6.6" result="effect1_foregroundBlur_282_2258"/>
</filter>
<filter id="filter2_f_282_2258" x="13.3001" y="12.8" width="22.4" height="25.4" filterUnits="userSpaceOnUse" color-interpolation-filters="sRGB">
<feFlood flood-opacity="0" result="BackgroundImageFix"/>
<feBlend mode="normal" in="SourceGraphic" in2="BackgroundImageFix" result="shape"/>
<feGaussianBlur stdDeviation="0.35" result="effect1_foregroundBlur_282_2258"/>
</filter>
<filter id="filter3_f_282_2258" x="12.3305" y="23.2652" width="11.0191" height="15.1784" filterUnits="userSpaceOnUse" color-interpolation-filters="sRGB">
<feFlood flood-opacity="0" result="BackgroundImageFix"/>
<feBlend mode="normal" in="SourceGraphic" in2="BackgroundImageFix" result="shape"/>
<feGaussianBlur stdDeviation="1.05" result="effect1_foregroundBlur_282_2258"/>
</filter>
<linearGradient id="paint0_linear_282_2258" x1="20" y1="13.5" x2="30" y2="13.5" gradientUnits="userSpaceOnUse">
<stop stop-color="#45312D"/>
<stop offset="1" stop-color="#4D4143"/>
</linearGradient>
<linearGradient id="paint1_linear_282_2258" x1="20" y1="11.937" x2="30" y2="11.937" gradientUnits="userSpaceOnUse">
<stop stop-color="#3F3F3F"/>
<stop offset="0.385" stop-color="#535353"/>
<stop offset="0.985" stop-color="#363636"/>
</linearGradient>
<radialGradient id="paint2_radial_282_2258" cx="0" cy="0" r="1" gradientUnits="userSpaceOnUse" gradientTransform="translate(28.0001 20.5) rotate(128.367) scale(15.3052 13.3921)">
<stop stop-color="white"/>
<stop offset="1" stop-color="#E6DDDE"/>
</radialGradient>
</defs>
</svg>
