<svg width="128" height="128" viewBox="0 0 128 128" fill="none" xmlns="http://www.w3.org/2000/svg">
<g clip-path="url(#clip0_4049_1679)">
<g clip-path="url(#clip1_4049_1679)">
<path d="M64.0005 128C99.347 128 128.001 99.3462 128.001 64C128.001 28.6538 99.347 0 64.0005 0C28.654 0 0 28.6538 0 64C0 99.3462 28.654 128 64.0005 128Z" fill="#F4E842"/>
<path d="M118.385 56.1373C117.981 54.6849 117.368 53.2919 117.058 51.8172C116.381 48.607 116.683 45.4912 115.637 42.3345C114.598 39.1983 113.007 36.3938 111.185 33.6185C106.607 26.6456 100.008 21.2233 93.0079 16.6873C88.5175 13.7777 83.7683 11.1648 78.6184 9.71148C74.8966 8.66185 71.0239 8.2348 67.16 8.06651C56.9886 7.6239 46.4903 9.04415 37.5932 13.9946C35.2001 15.3264 32.9462 16.8984 30.7856 18.5813C26.8322 21.6601 23.1658 25.1271 20.0373 29.0415C7.58568 44.6225 4.81033 67.1919 12.6208 85.5453C14.5391 90.0512 17.0373 94.31 20.0364 98.1827C27.5628 107.902 38.2119 115.052 49.8775 118.927C52.6529 119.849 55.506 120.596 58.4224 120.821C62.4507 121.13 66.48 120.436 70.4597 119.745C75.4189 118.883 80.4229 118.009 85.0884 116.118C90.6109 113.879 95.4661 110.298 100.256 106.753C101.665 105.71 103.079 104.662 104.318 103.422C106.714 101.024 108.364 97.9988 109.98 95.0202C111.878 91.5221 113.776 88.023 115.674 84.5249C118.695 78.9557 118.497 71.1249 118.943 64.9127C118.963 64.6403 118.98 64.366 118.997 64.0927C119.151 61.4185 119.103 58.7113 118.387 56.1363L118.385 56.1373Z" fill="#FDFBE8"/>
<path d="M87.1589 25.0172C84.6385 26.0775 82.9731 31.2128 81.652 33.599L75.8892 44.0136C73.8055 47.7802 71.7209 51.5458 69.6371 55.3124C69.3161 55.8931 69.0136 56.4953 68.7188 57.1072C68.1245 58.8533 67.2674 60.5333 66.6536 62.2541C66.5058 62.6676 66.3715 63.1588 66.6225 63.5187C66.9338 63.9662 67.6021 63.9059 68.1332 63.7872C68.2704 63.7571 68.4066 63.7259 68.5428 63.6938C73.1547 62.2434 77.7599 60.7658 82.3553 59.2628C88.3088 57.3144 94.2856 55.3065 99.7779 52.2948C102.391 50.8619 105.085 48.9319 105.779 46.0331C106.972 41.0495 101.468 34.9084 98.5337 31.2702C96.0755 28.2205 91.6522 23.129 87.157 25.0191L87.1589 25.0172Z" fill="#F9D855"/>
<path d="M61.8538 71.8927C61.7448 72.0124 61.632 72.1271 61.5162 72.239C60.9111 73.1038 60.2603 73.9414 59.6115 74.7624C55.4674 80.0076 51.1658 85.1283 46.7143 90.1157C44.3524 92.7617 41.936 95.3756 39.8212 98.2277C39.0896 99.2141 37.2355 101.083 37.5565 102.434C37.8698 103.751 41.0021 104.94 42.0984 105.517C46.0518 107.598 53.5316 111.389 58.1572 110.589C60.4442 110.178 60.128 109.367 62.6553 110.307C63.2575 102.82 63.6972 95.3201 63.9744 87.8151C64.1126 84.0622 64.2108 80.3082 64.2682 76.5533C64.2857 75.3772 64.4511 74.1106 64.6126 72.8314C64.4744 71.6087 64.3363 70.3868 64.1982 69.1641C64.2381 69.5172 62.1709 71.5444 61.8538 71.8937V71.8927Z" fill="#F9D855"/>
<path d="M86.9869 97.6078C81.2173 88.0862 74.9049 78.8945 68.0915 70.0899C67.5974 69.6969 67.1081 69.3097 66.6411 68.9206C66.5448 68.8408 66.4427 68.7571 66.3191 68.7387C65.9709 68.6861 65.7802 69.1268 65.718 69.4731C65.5623 70.335 65.396 71.2338 65.2617 72.1453C65.9368 79.9733 66.611 87.8002 67.2861 95.6282C67.4806 97.8772 67.6742 100.125 67.8678 102.374C68.0244 104.185 67.6178 107.926 68.5711 109.477C69.969 111.748 74.3407 109.876 76.6063 109.246C79.5938 108.415 83.4479 107.244 85.9285 105.318C87.4169 104.162 88.5084 102.304 88.2263 100.441C88.0706 99.4142 87.5268 98.495 86.9889 97.6078H86.9869Z" fill="#F9D855"/>
<path d="M102.527 82.0641C91.6877 78.4911 81.1262 74.0737 70.9684 68.8694C70.3176 68.7313 69.6619 68.6145 69.0033 68.5192C68.8905 68.5026 68.7592 68.4929 68.6784 68.5727C68.5568 68.6923 68.6454 68.8957 68.7378 69.0387C69.2057 69.7595 69.6755 70.4628 70.1561 71.1554C72.3235 73.4551 74.3507 75.8851 76.2234 78.4308C81.3159 85.3512 85.2878 93.1382 91.212 99.3611C95.7345 104.103 104.067 88.4747 104.706 85.3336C104.832 84.7091 104.919 84.033 104.642 83.4591C104.266 82.675 103.352 82.3355 102.526 82.0632L102.527 82.0641Z" fill="#F9D855"/>
<path d="M72.8899 62.7864C72.1633 63.3457 71.3101 63.7271 70.4969 64.1493C69.3354 64.7534 68.8402 65.4489 68.099 66.5345C68.0484 66.6084 67.9968 66.6863 67.9813 66.7748C67.9317 67.0705 68.2838 67.2563 68.5688 67.3487C69.5222 67.6571 70.4609 68.0102 71.3812 68.4071C74.2548 69.2758 77.2636 69.9665 79.6469 70.8079C84.9807 72.6903 90.3135 74.5735 95.6473 76.4559C98.6736 77.524 106.395 82.0124 108.524 79.0882C110.995 75.6942 110.958 68.0073 110.958 63.9995C110.958 61.156 111.589 51.2181 107.118 52.3582C95.5977 55.295 84.2132 58.761 73.0106 62.7436L72.8899 62.7864Z" fill="#F9D855"/>
<path d="M62.2266 69.6837C62.7976 68.7382 63.4591 67.4882 62.8803 67.1477C62.5204 66.9356 61.7344 67.0514 61.0087 67.1934C61.3618 67.2012 61.7149 67.208 62.0681 67.2148C49.5444 68.8666 36.872 69.3919 24.254 68.782C21.2948 68.639 17.4853 68.707 17.5758 72.1945C17.6478 74.9503 19.2684 78.5905 20.2724 81.1479C21.7014 84.789 23.646 88.0498 25.7919 91.3008C27.361 93.6773 28.755 97.9517 32.2104 98.0013C33.9906 98.0266 35.475 96.7172 36.764 95.4876C41.875 90.615 46.986 85.7414 52.097 80.8677C55.7401 77.3939 59.4435 73.8385 62.2266 69.6837Z" fill="#F9D855"/>
<path d="M78.4945 35.3973C79.9693 32.407 84.9772 25.7688 83.8575 22.4302C82.839 19.3922 78.227 19.1588 75.6618 18.5031C71.8562 17.5303 67.9272 17.043 64 17.043C61.3716 17.043 58.3345 17.1062 57.1263 19.9068C56.3374 21.7366 56.5475 23.8242 56.7927 25.8009C58.2431 37.518 60.3832 49.1505 63.1994 60.6166C63.3881 60.9619 63.5963 61.2956 63.8298 61.6147C64.0915 61.9726 64.4845 62.3442 64.9154 62.2372C65.181 62.1711 65.3639 61.9396 65.5166 61.708C69.8426 52.9375 74.1685 44.1679 78.4945 35.3973Z" fill="#F9D855"/>
<path d="M32.767 39.4405C40.6271 46.8307 49.033 53.6109 57.5993 60.1752C59.1957 61.1733 60.8523 62.0751 62.5576 62.8727C62.7201 62.9486 62.9263 63.0196 63.0654 62.9077C63.1782 62.8173 63.187 62.65 63.1792 62.506C63.0761 60.684 61.8358 58.9145 61.7317 57.0507C58.256 46.3413 55.2218 35.4822 53.4232 24.377C53.213 23.0803 53.0029 21.7359 52.286 20.6357C49.8093 16.838 41.6116 22.5813 38.8217 24.3566C35.5871 26.415 27.9702 30.775 29.7504 35.5503C30.3292 37.1019 31.5598 38.3062 32.7661 39.4405H32.767Z" fill="#F9D855"/>
<path d="M58.6562 67.1449C59.2564 66.9591 59.8488 66.7431 60.4325 66.4902C61.843 65.8793 63.31 65.0748 61.5064 63.7567C60.987 63.3763 60.4811 62.9794 59.9869 62.566C51.3671 57.3432 43.1276 51.4919 35.357 45.0725C32.4902 42.7038 29.6351 40.2252 26.242 38.7028C20.1553 35.9732 16.8313 60.6175 16.6397 64.0193C16.5978 64.7518 16.628 65.6137 17.2243 66.0408C17.5872 66.3005 18.0648 66.319 18.5103 66.3287C31.892 66.6011 45.2736 66.8735 58.6542 67.1458L58.6562 67.1449Z" fill="#F9D855"/>
</g>
</g>
<defs>
<clipPath id="clip0_4049_1679">
<rect width="128" height="128" fill="white"/>
</clipPath>
<clipPath id="clip1_4049_1679">
<rect width="128" height="128" fill="white"/>
</clipPath>
</defs>
</svg>
