<svg width="41" height="40" viewBox="0 0 41 40" fill="none" xmlns="http://www.w3.org/2000/svg">
<g clip-path="url(#clip0_205_116)">
<path d="M6.26742 5.95252C9.98117 2.19017 14.9355 0.0774374 20.218 0.00353118C20.7814 -0.00428132 21.2744 0.393062 21.3841 0.948141C21.8072 3.08962 23.6247 4.69173 25.8038 4.84416C26.1538 4.86869 26.4745 5.04869 26.6776 5.33486C26.8807 5.62103 26.9449 5.98306 26.8525 6.32158C26.4161 7.92127 26.7169 9.70478 27.6776 11.2148C28.6716 12.7773 30.2124 13.8138 31.9048 14.0583C32.5325 14.149 32.9742 14.7226 32.9013 15.3527C32.8796 15.5408 32.8686 15.7297 32.8686 15.9142C32.8686 18.5928 35.0477 20.7718 37.7262 20.7718C38.1416 20.7718 38.5548 20.7192 38.9539 20.6152C39.3234 20.5189 39.7166 20.6089 40.0076 20.8561C40.2987 21.1033 40.451 21.4767 40.4159 21.8569C39.9605 26.7997 37.6873 31.3766 34.015 34.7442C30.3194 38.1335 25.5207 40 20.5027 40C15.1605 40 10.138 37.9197 6.36047 34.1421C2.58297 30.3646 0.502651 25.3422 0.502651 20C0.502651 14.7075 2.54992 9.71869 6.26742 5.95252ZM8.01773 32.4849C11.3527 35.8197 15.7865 37.6563 20.5027 37.6563C24.9325 37.6563 29.1688 36.0086 32.4311 33.0169C35.3053 30.381 37.2087 26.9072 37.8838 23.1138C37.8314 23.115 37.7788 23.1156 37.7263 23.1156C33.8359 23.1156 30.6562 20.0145 30.5289 16.1545C28.5809 15.5961 26.8587 14.2938 25.7001 12.4728C24.6306 10.7917 24.1638 8.84533 24.3555 6.97408C22.037 6.37806 20.1462 4.65119 19.3515 2.38212C15.0277 2.65923 11.0023 4.49197 7.93547 7.599C4.65367 10.9238 2.84632 15.3279 2.84632 20C2.84641 24.7162 4.68297 29.1501 8.01773 32.4849Z" fill="#013763"/>
<path d="M26.7005 21.1472C28.9412 21.1472 30.7642 22.9702 30.7642 25.2109C30.7642 27.4516 28.9412 29.2746 26.7005 29.2746C24.4597 29.2746 22.6367 27.4516 22.6367 25.2109C22.6368 22.9702 24.4598 21.1472 26.7005 21.1472ZM26.7005 26.9308C27.6488 26.9308 28.4204 26.1592 28.4204 25.2109C28.4204 24.2625 27.6488 23.491 26.7005 23.491C25.7521 23.491 24.9805 24.2625 24.9805 25.2109C24.9806 26.1592 25.7521 26.9308 26.7005 26.9308Z" fill="#013763"/>
<path d="M16.924 14.2903C14.5583 14.2903 12.6336 12.3656 12.6336 9.99986C12.6336 7.63416 14.5583 5.70947 16.924 5.70947C19.2897 5.70947 21.2144 7.63416 21.2144 9.99986C21.2144 12.3656 19.2897 14.2903 16.924 14.2903ZM16.924 8.05322C15.8506 8.05322 14.9773 8.9265 14.9773 9.99986C14.9773 11.0733 15.8506 11.9465 16.924 11.9465C17.9973 11.9465 18.8706 11.0732 18.8706 9.99986C18.8706 8.92643 17.9974 8.05322 16.924 8.05322Z" fill="#013763"/>
<path d="M14.8743 24.3809C17.0423 24.3809 18.8062 26.1447 18.8062 28.3127C18.8062 30.4808 17.0423 32.2446 14.8743 32.2446C12.7062 32.2446 10.9424 30.4808 10.9424 28.3127C10.9424 26.1447 12.7062 24.3809 14.8743 24.3809ZM14.8743 29.9009C15.75 29.9009 16.4624 29.1884 16.4624 28.3127C16.4624 27.437 15.75 26.7246 14.8743 26.7246C13.9986 26.7246 13.2862 27.437 13.2862 28.3127C13.2862 29.1884 13.9986 29.9009 14.8743 29.9009Z" fill="#013763"/>
<path d="M5.44346 18.3413C5.44346 16.1733 7.20729 14.4094 9.37533 14.4094C11.5434 14.4094 13.3071 16.1733 13.3071 18.3413C13.3071 20.5093 11.5434 22.2732 9.37533 22.2732C7.20729 22.2732 5.44346 20.5093 5.44346 18.3413ZM9.37533 19.9294C10.251 19.9294 10.9634 19.217 10.9634 18.3413C10.9634 17.4656 10.251 16.7532 9.37533 16.7532C8.49963 16.7532 7.78721 17.4656 7.78721 18.3413C7.78721 19.217 8.49963 19.9294 9.37533 19.9294Z" fill="#013763"/>
<path d="M10.5246 10.9438C10.4249 11.4243 10.0343 11.8004 9.54758 11.8739C9.06398 11.9469 8.57172 11.698 8.34265 11.2665C8.11344 10.8348 8.17742 10.2908 8.50734 9.92803C8.83672 9.56585 9.3714 9.4446 9.8239 9.6328C10.3384 9.84686 10.6264 10.3995 10.5246 10.9438Z" fill="#013763"/>
<path d="M5.77207 25.3235C5.86394 24.8432 6.26738 24.4663 6.74832 24.3939C7.23152 24.3212 7.7248 24.5692 7.95402 25.0009C8.18324 25.4324 8.11847 25.9774 7.78894 26.3399C7.45902 26.7029 6.92543 26.821 6.47277 26.6345C5.9648 26.425 5.65988 25.864 5.77207 25.3235Z" fill="#013763"/>
<path d="M25.5574 17.0078C25.4675 17.4877 25.0607 17.8658 24.5811 17.9379C24.0966 18.0108 23.6064 17.7615 23.3754 17.3305C23.144 16.8986 23.2132 16.3555 23.5403 15.992C23.8685 15.6273 24.405 15.5108 24.8567 15.6968C25.3647 15.9062 25.6696 16.4674 25.5574 17.0078Z" fill="#013763"/>
<path d="M20.9162 33.1125C21.0169 32.6318 21.4055 32.2561 21.8931 32.1821C22.3763 32.1088 22.8687 32.3585 23.0982 32.7891C23.3282 33.2206 23.2626 33.7655 22.9334 34.1281C22.6046 34.4903 22.0689 34.611 21.617 34.4235C21.11 34.2131 20.804 33.653 20.9162 33.1125Z" fill="#013763"/>
<path d="M15.8029 17.3758C15.9556 16.9088 16.3701 16.571 16.8664 16.5457C17.3555 16.5207 17.8188 16.8168 18.006 17.268C18.1932 17.7191 18.0746 18.2571 17.7108 18.5846C17.3458 18.9132 16.8058 18.9795 16.3723 18.7493C15.8824 18.489 15.6456 17.9053 15.8029 17.3758Z" fill="#013763"/>
<path d="M18.6927 23.1163C18.2845 22.8475 18.0874 22.3298 18.2066 21.8571C18.326 21.3831 18.7409 21.0237 19.2279 20.9765C19.7147 20.9294 20.1936 21.1979 20.402 21.6416C20.61 22.0844 20.5184 22.6245 20.1716 22.9711C19.7823 23.36 19.15 23.4247 18.6927 23.1163Z" fill="#013763"/>
<path d="M33.4432 25.3235C33.5351 24.8432 33.9385 24.4663 34.4195 24.394C34.903 24.3211 35.3959 24.5691 35.6252 25.0009C35.8545 25.4326 35.7901 25.9772 35.4604 26.34C35.1307 26.7027 34.5964 26.8214 34.144 26.6345C33.6368 26.4249 33.3299 25.864 33.4432 25.3235Z" fill="#013763"/>
<path d="M33.4217 8.12734C31.1809 8.12734 29.3579 6.30437 29.3579 4.06367C29.358 1.82297 31.181 0 33.4217 0C35.6624 0 37.4854 1.82297 37.4854 4.06367C37.4854 6.30437 35.6624 8.12734 33.4217 8.12734ZM33.4217 2.34375C32.4732 2.34375 31.7017 3.11531 31.7017 4.06367C31.7017 5.01203 32.4732 5.78359 33.4217 5.78359C34.37 5.78359 35.1416 5.01203 35.1416 4.06367C35.1416 3.11531 34.37 2.34375 33.4217 2.34375Z" fill="#013763"/>
<path d="M40.3645 13.2195C40.1381 13.6516 39.6398 13.8996 39.1587 13.8267C38.6745 13.7533 38.2783 13.3774 38.1817 12.8968C38.0854 12.4174 38.3094 11.9137 38.7289 11.6628C39.1494 11.4113 39.6944 11.452 40.0739 11.7617C40.5072 12.1153 40.6156 12.7278 40.3645 13.2195Z" fill="#013763"/>
</g>
<defs>
<clipPath id="clip0_205_116">
<rect width="40" height="40" fill="white" transform="matrix(-1 0 0 1 40.5 0)"/>
</clipPath>
</defs>
</svg>
