<svg width="1920" height="12" viewBox="0 0 1920 12" fill="none" xmlns="http://www.w3.org/2000/svg">
<path d="M-15.3997 68.534C-17.1367 65.977 -17.1367 64.6985 -14.8208 62.5677C-13.0838 60.8631 -11.3469 59.1584 -9.03104 57.4538C-7.8731 56.6015 -7.8731 55.7491 -8.45207 54.8968C-9.61001 53.1922 -10.768 51.0613 -11.9259 49.3567C-13.0838 47.2259 -14.2418 45.5212 -13.0838 42.9642C-10.768 35.2933 -13.6628 27.6224 -16.5577 20.3776C-17.1367 18.2468 -18.2946 16.116 -19.4525 14.4113C-20.6105 12.7067 -19.4525 12.2805 -17.7156 11.8544C-12.5049 11.4282 -6.71515 11.002 -1.5044 10.1497C7.18018 8.87122 15.2858 9.29738 23.9704 8.44506C26.2863 8.44506 28.0232 8.44506 30.3391 9.29738C33.8129 11.002 37.8657 12.2805 41.9185 13.9852C44.2344 15.2637 46.5503 15.2637 48.8662 14.8375C54.0769 13.9852 59.2877 12.7067 65.0774 13.1328C67.3933 13.1328 69.7092 13.1328 71.4461 13.559C76.6569 14.4113 81.8676 13.9852 87.0784 12.7067C95.184 11.002 102.711 11.4282 110.816 12.7067C113.132 13.1328 114.869 13.1328 117.185 12.2805C121.817 10.5759 127.027 9.29738 131.659 7.59273C132.817 7.16657 133.975 7.16657 135.133 7.59273C139.186 9.29738 143.818 11.002 147.87 12.7067C151.923 14.8375 156.555 14.8375 161.187 15.2637C166.398 16.116 171.029 14.8375 175.082 12.7067C181.451 10.1497 187.82 8.44506 195.346 9.29738C200.557 9.72354 205.768 9.29738 210.978 8.01889C214.452 7.16657 217.347 6.7404 220.821 5.88808C222.558 5.46191 224.295 5.46191 225.453 6.31424C230.084 8.87122 235.295 11.4282 239.927 13.9852C240.506 14.4113 241.085 14.4113 241.085 14.4113C246.296 14.4113 252.085 15.2637 256.717 13.559C261.349 11.8544 265.402 10.1497 270.034 8.01889C272.349 6.7404 274.665 6.7404 277.56 7.16657C281.613 7.59273 286.245 8.01889 290.298 8.44506C294.35 8.87122 298.403 7.59273 302.456 6.7404C309.404 6.31424 316.351 6.7404 323.299 7.16657C330.826 7.59273 338.352 8.01889 345.879 8.44506C350.511 8.87122 355.142 10.1497 359.774 11.002C363.827 11.8544 367.88 12.7067 372.512 12.2805C380.617 11.8544 388.723 13.1328 396.25 13.9852C397.407 13.9852 398.565 13.9852 399.723 13.559C404.934 11.002 410.145 8.44506 414.777 5.88808C416.514 5.03575 417.672 5.03575 418.829 5.88808C422.303 7.16657 426.356 8.44506 429.83 10.1497C433.304 11.4282 437.357 12.7067 441.988 11.8544C450.094 10.5759 457.621 11.002 465.726 12.2805C470.937 13.1328 476.148 11.8544 481.358 11.8544C489.464 11.4282 496.991 8.87122 505.096 7.59273C506.833 7.16657 507.991 7.59273 509.728 8.01889C513.781 9.72354 518.413 11.002 522.466 12.7067C523.623 13.1328 524.781 13.1328 525.939 12.7067C530.571 10.5759 535.203 8.44506 539.835 6.31424C541.572 5.46191 542.729 5.46191 543.887 6.31424C548.519 8.01889 553.73 9.72354 558.362 11.8544C559.52 12.2805 560.678 12.7067 562.415 11.8544C564.73 11.002 567.046 10.5759 569.362 9.72354C575.731 7.16657 582.1 6.7404 589.047 6.7404C597.153 7.16657 605.258 5.46192 613.943 5.03575C617.417 4.60959 620.312 5.88808 623.207 6.31424C630.154 7.16657 636.523 8.44506 642.892 10.1497C649.26 11.8544 655.05 11.4282 661.419 11.002C669.524 10.5759 675.893 7.59273 683.42 5.88808C684.578 5.46191 685.157 5.46191 686.315 5.46191C689.788 5.46191 693.841 5.46192 697.315 5.03575C703.105 4.60959 708.316 5.46192 713.526 7.16657C725.106 10.5759 736.685 11.4282 748.844 9.72354C755.791 8.44506 763.318 9.29738 770.266 9.29738C772.582 9.29738 774.318 9.29738 776.055 8.44506C780.687 7.16657 785.898 5.88808 790.53 4.60959C791.688 4.18343 792.846 4.18343 794.003 5.03575C797.477 6.7404 801.53 8.01889 805.004 9.72354C809.057 11.8544 812.531 11.8544 816.583 10.5759C820.057 9.29738 824.11 8.87122 828.163 8.44506C840.321 6.7404 852.48 5.46191 865.217 5.46191C869.27 5.46191 873.323 5.88808 877.375 6.31424C880.27 6.7404 883.165 5.88808 886.06 5.46191C889.534 5.03575 893.008 4.18343 895.903 3.75726C898.219 3.3311 900.534 3.3311 902.85 4.18343C905.745 5.46192 909.219 6.31424 912.114 7.16657C915.009 8.01889 917.325 8.01889 920.219 7.16657C921.956 6.7404 923.693 5.88808 925.43 5.46191C931.22 2.47877 937.589 2.90494 943.957 3.3311C949.747 3.75726 954.958 3.75726 960.747 2.90494C964.221 2.47878 967.116 2.05261 970.59 2.05261C971.748 2.05261 972.906 2.47878 974.064 2.90494C977.538 4.60959 981.591 5.88808 984.485 7.59273C988.538 9.72354 993.17 10.1497 997.802 9.29738C1000.7 8.87122 1003.59 8.44506 1005.91 7.16657C1007.07 6.31424 1008.8 6.31424 1009.96 7.16657C1012.85 8.44506 1016.33 8.87122 1019.8 8.87122C1026.17 8.87122 1032.54 9.72354 1038.33 10.1497C1042.96 10.5759 1047.01 9.29738 1051.07 8.87122C1058.59 8.01889 1066.12 5.88808 1073.65 4.60959C1081.17 3.3311 1088.7 3.3311 1095.65 3.3311C1097.38 3.3311 1099.12 4.18343 1100.28 4.60959C1103.17 5.88808 1106.07 5.88808 1108.39 5.03575C1112.44 3.3311 1116.49 3.75726 1120.54 5.88808C1124.02 7.59273 1127.49 8.87122 1130.97 10.1497C1132.12 10.5759 1133.28 11.002 1134.44 10.5759C1136.76 10.1497 1139.07 9.72354 1140.81 8.87122C1147.18 6.7404 1153.55 6.31424 1160.49 7.16657C1165.7 7.59273 1170.91 7.16657 1176.13 6.31424C1184.23 5.03575 1191.76 5.88808 1199.86 6.7404C1206.81 7.16657 1213.18 9.29738 1219.55 11.002C1221.28 11.4282 1222.44 11.4282 1224.18 11.4282C1233.44 11.8544 1242.13 9.72354 1250.81 6.7404C1255.44 5.03575 1260.08 5.46192 1264.13 5.03575C1266.44 4.60959 1268.76 5.03575 1271.66 4.60959C1276.87 4.18343 1282.08 5.46191 1286.71 6.7404C1293.66 8.44505 1301.18 9.72354 1308.13 11.002C1311.6 11.4282 1314.5 10.5759 1317.97 10.5759C1322.61 10.1497 1326.66 9.29738 1331.29 9.72354C1339.97 10.1497 1347.5 9.29738 1355.03 5.88808C1361.4 2.90494 1366.61 3.3311 1372.4 6.31424C1374.71 7.59273 1377.61 9.29738 1380.5 9.29738C1383.4 9.29738 1385.71 7.16657 1388.03 5.88808C1390.34 4.60959 1393.24 3.75726 1395.56 2.47877C1397.29 1.20029 1399.03 1.62645 1401.35 2.47877C1405.98 4.18343 1410.61 5.88808 1415.24 8.01889C1416.4 8.44506 1417.56 8.87122 1419.29 8.44506C1429.14 5.88808 1439.56 4.60959 1449.4 4.18343C1454.61 3.75726 1459.24 4.60959 1463.87 5.03575C1469.66 5.88808 1475.45 5.03575 1480.66 4.60959C1485.3 4.18343 1489.93 3.75726 1493.98 5.88808C1495.72 6.7404 1497.45 7.16657 1499.19 7.59273C1502.67 9.29738 1505.56 9.29738 1509.03 7.16657C1511.93 5.46192 1515.4 4.18343 1518.3 2.47877C1520.61 1.20029 1522.35 1.20029 1524.67 1.62645C1533.93 2.90494 1543.19 4.18343 1553.04 4.18343C1558.25 4.18343 1564.04 5.03575 1569.25 6.31424C1575.62 8.01889 1582.56 8.44505 1588.93 8.87122C1595.88 9.29738 1602.83 9.72354 1609.78 10.1497C1613.83 10.1497 1617.3 9.29738 1620.78 8.44506C1627.72 6.7404 1635.25 6.7404 1642.2 7.59273C1644.51 8.01889 1646.83 7.59273 1649.15 6.7404C1652.04 5.46191 1655.51 4.18343 1658.41 2.90494C1661.88 1.20029 1665.36 0.774123 1668.83 0.774123C1673.46 0.774123 1678.67 0.774123 1683.3 0.347961C1684.46 0.347961 1685.62 0.774123 1686.78 1.20029C1691.41 3.75726 1696.04 5.88808 1700.67 8.44506C1701.83 8.87122 1702.41 9.29738 1704.15 8.87122C1708.2 8.01889 1712.25 7.16657 1716.31 6.31424C1720.94 5.46191 1725.57 5.88808 1729.62 5.88808C1732.52 5.88808 1735.41 5.88808 1738.31 5.03575C1741.2 3.75726 1744.68 2.90494 1747.57 1.62645C1752.2 -0.504365 1756.83 -0.0782023 1762.05 0.347961C1764.36 0.774123 1766.68 0.774123 1769.57 0.774123C1773.62 0.774123 1776.52 1.62645 1779.99 3.3311C1782.89 4.60959 1785.78 5.46191 1788.68 6.7404C1790.41 7.59273 1791.57 7.59273 1792.73 6.7404C1796.78 5.46191 1801.42 4.18343 1805.47 2.90494C1807.2 2.47878 1808.94 2.90494 1810.68 2.90494C1815.31 3.3311 1819.36 4.18343 1824 4.60959C1827.47 5.03575 1830.94 4.18343 1834.42 3.3311C1842.52 1.62645 1850.05 2.05261 1857.58 2.90494C1862.21 3.3311 1866.84 2.05261 1871.47 1.20029C1877.26 -0.0782023 1882.47 -0.0782022 1887.68 2.90494C1888.84 3.75726 1890.58 3.75726 1891.16 4.60959C1896.95 8.01889 1902.74 8.01889 1909.68 7.16657C1912.58 6.7404 1914.89 7.16657 1917.79 6.7404C1918.37 6.7404 1918.95 6.7404 1919.53 7.16657C1922.42 12.7067 1927.05 17.8206 1929.37 23.7869C1929.95 25.9177 1930.53 27.6224 1929.95 29.7532C1928.79 32.7363 1928.21 36.1456 1928.21 39.1288C1928.21 40.8334 1927.05 42.5381 1925.32 43.8166C1924.16 44.6689 1923.58 45.5212 1925.32 46.3735C1929.37 48.5044 1928.79 51.4875 1929.95 54.4706C1929.95 55.323 1929.37 55.7491 1928.79 55.7491C1925.89 57.8799 1923 60.0108 1920.1 62.1416C1919.53 62.5677 1918.95 62.9939 1919.53 63.8462C1922.42 69.8125 1927.05 74.9265 1929.37 80.8927C1929.95 82.5974 1930.53 84.7282 1929.95 86.4329C1928.79 89.416 1928.21 92.8253 1928.21 95.8084C1928.21 97.5131 1927.05 99.2177 1925.32 100.496C1924.16 101.349 1924.16 101.775 1925.32 102.627C1928.79 104.758 1928.79 107.741 1929.95 110.724C1929.95 111.15 1929.37 112.003 1928.79 112.003C1923.58 114.133 1923 118.395 1922.42 122.231C1922.42 124.788 1923 126.918 1923.58 129.049C1924.74 135.015 1927.05 140.556 1929.95 145.67C1930.53 146.948 1931.68 147.8 1932.84 149.079C1933.42 149.931 1933.42 150.357 1931.68 150.357C1931.11 150.357 1929.95 150.357 1929.37 150.357C1928.21 150.783 1927.05 150.783 1926.47 152.062C1925.89 153.767 1924.16 155.045 1922.42 156.324C1918.95 158.881 1917.79 161.011 1920.68 164.421C1924.74 168.682 1924.16 173.37 1923 178.484C1922.42 181.041 1923.58 183.172 1924.16 185.729C1925.32 192.121 1928.21 198.088 1931.11 204.054C1931.11 204.48 1932.26 204.906 1932.84 205.332C1933.42 205.758 1933.42 206.185 1934 207.037C1929.37 207.463 1925.32 207.889 1921.26 208.315C1913.74 209.168 1905.63 208.742 1898.1 209.594C1896.95 209.594 1895.79 209.168 1895.21 208.742C1888.26 204.906 1880.73 203.628 1872.05 204.48C1864.52 204.906 1856.42 204.48 1848.89 204.48C1843.1 204.48 1836.73 204.906 1830.94 206.185C1826.31 207.037 1822.26 206.185 1818.21 205.758C1817.05 205.758 1815.31 205.332 1814.15 205.332C1811.84 204.906 1809.52 204.906 1807.78 205.758C1803.15 207.463 1798.52 208.742 1793.89 210.02C1792.73 210.446 1791.57 210.446 1789.84 210.02C1781.73 205.758 1772.47 204.054 1762.62 204.906C1760.89 204.906 1759.15 204.906 1757.99 204.906C1752.78 204.48 1748.15 204.906 1743.52 207.037C1740.04 208.742 1736.57 208.315 1733.1 207.889C1726.15 207.037 1719.2 207.889 1712.83 210.02C1705.88 212.151 1700.1 211.725 1694.88 207.889C1691.99 205.332 1687.94 204.906 1683.3 205.332C1679.83 205.332 1676.36 205.758 1672.88 205.332C1667.67 204.906 1663.62 205.758 1659.57 207.889C1655.51 210.02 1650.88 210.872 1645.67 210.02C1636.99 208.315 1628.3 209.594 1620.2 211.725C1614.99 213.003 1610.35 212.151 1605.14 212.151C1597.04 211.725 1589.51 210.872 1581.41 210.872C1576.2 210.872 1571.56 209.168 1566.35 207.889C1562.3 207.037 1558.25 206.611 1554.19 206.611C1546.09 207.037 1537.4 205.332 1529.3 205.332C1526.98 205.332 1525.25 205.758 1523.51 206.611C1519.46 208.742 1514.82 210.872 1510.77 213.003C1509.61 213.856 1508.46 213.856 1507.3 213.003C1502.09 211.299 1496.88 209.594 1492.24 207.463C1489.93 206.611 1488.19 206.611 1485.88 206.611C1476.61 207.889 1467.35 207.463 1458.08 206.185C1453.45 205.332 1448.24 206.611 1443.61 207.037C1436.08 207.463 1429.14 209.594 1422.19 211.299C1419.87 211.725 1418.14 211.725 1416.4 210.872C1412.35 209.168 1408.87 207.889 1404.82 206.611C1403.08 205.758 1401.92 206.185 1400.19 206.611C1395.56 208.742 1390.92 210.872 1386.87 213.003C1385.13 213.856 1383.98 213.856 1382.82 213.003C1378.19 211.299 1372.98 209.168 1368.34 207.463C1367.19 207.037 1366.03 207.037 1364.87 207.463C1360.82 208.742 1356.76 210.02 1352.71 211.299C1350.4 212.151 1348.08 212.577 1345.76 212.577C1335.34 212.577 1325.5 213.003 1315.08 214.282C1309.29 215.134 1303.5 213.003 1297.71 212.151C1292.5 211.299 1286.71 210.02 1282.08 208.742C1278.02 207.889 1274.55 207.889 1271.08 208.315C1262.97 208.742 1255.44 210.872 1247.92 213.003C1244.44 213.856 1240.97 214.708 1237.5 214.708C1234.6 214.708 1231.71 214.708 1228.81 215.134C1223.6 215.986 1218.39 214.708 1213.76 213.003C1206.23 210.446 1198.13 210.02 1190.02 209.594C1185.39 209.168 1180.76 210.446 1176.13 210.872C1169.76 211.725 1163.39 210.872 1157.02 210.872C1155.86 210.872 1154.7 210.872 1153.55 211.299C1148.33 212.577 1143.12 214.282 1137.91 215.56C1136.18 215.986 1135.02 215.986 1133.86 215.134C1130.39 213.429 1126.33 212.151 1122.86 210.02C1118.81 207.889 1115.33 208.315 1111.86 209.594C1107.81 210.872 1103.17 211.299 1098.54 212.151C1088.12 213.429 1077.7 214.282 1067.28 215.134C1063.23 215.56 1059.75 215.134 1055.7 214.708C1049.33 213.856 1043.54 214.708 1037.75 215.986C1031.96 217.265 1026.17 217.265 1020.96 214.708C1018.64 213.429 1015.75 212.577 1012.85 212.577C1011.12 212.577 1009.38 213.003 1007.64 213.429C1005.91 214.282 1004.17 214.708 1002.43 215.56C997.802 218.117 992.591 217.691 987.38 217.265C981.012 216.839 974.064 216.839 967.695 217.691C964.8 218.117 961.326 218.117 958.432 218.543C957.274 218.543 956.695 218.117 956.116 217.691C951.484 215.56 946.273 213.429 941.641 211.725C940.483 211.299 939.326 210.872 937.589 210.872C932.378 211.299 927.167 211.299 923.114 213.429C921.956 213.856 920.798 213.856 919.64 213.429C916.167 212.151 912.693 211.725 908.64 211.725C902.85 211.725 897.64 211.299 891.85 210.446C886.639 210.02 881.428 211.299 876.217 211.725C868.691 212.577 861.743 214.282 854.217 215.56C847.269 216.839 839.742 216.839 832.216 216.839C829.9 216.839 828.163 215.986 825.847 215.134C824.11 214.708 822.373 214.282 820.636 215.134C815.425 216.839 810.794 216.839 806.162 213.856C803.846 212.577 801.53 212.151 799.214 210.872C796.898 209.594 794.003 209.168 791.688 210.446C789.951 211.299 787.635 211.299 785.319 212.151C779.529 214.282 773.16 213.856 767.371 213.429C762.16 213.003 756.37 213.429 751.16 214.282C743.633 215.56 736.685 214.708 729.159 214.282C723.369 213.856 718.158 212.577 712.947 210.872C707.737 209.168 701.947 209.594 696.157 209.594C689.788 209.594 684.578 211.725 678.788 213.429C672.998 215.56 666.63 215.134 660.261 215.986C651.576 217.265 644.05 214.708 636.523 213.003C630.733 211.725 624.365 210.446 617.996 209.594C615.101 209.168 612.206 209.594 609.89 210.446C602.364 211.725 594.258 211.725 586.731 211.725C584.995 211.725 583.258 212.151 582.1 212.577C576.889 214.282 571.678 215.986 566.467 217.691C565.309 218.117 564.151 218.117 562.415 217.691C557.783 215.986 553.151 214.282 549.098 212.577C547.94 212.151 546.782 212.151 545.624 212.577C540.993 214.708 536.361 216.839 531.15 219.396C529.992 219.822 528.834 220.248 527.676 219.396C523.044 217.265 517.834 215.56 512.623 213.856C511.465 213.429 509.728 213.003 507.991 213.429C497.57 215.986 487.148 217.265 476.148 218.117C472.095 218.543 468.042 217.691 463.989 217.265C457.621 216.413 451.831 216.839 445.462 217.691C440.83 218.117 436.199 218.117 432.146 215.986C429.83 214.708 426.935 214.282 424.04 213.003C422.303 212.577 421.145 212.577 419.987 213.429C417.093 215.134 413.619 216.413 410.145 218.543C406.671 220.674 403.197 221.1 398.565 220.248C388.144 218.543 377.722 218.117 367.301 218.117C364.406 218.117 361.511 217.265 359.195 216.413C349.932 213.856 340.089 213.429 330.247 213.003C326.194 212.577 322.141 212.577 318.088 212.151C315.193 211.725 311.72 212.151 308.825 213.003C299.561 215.134 290.298 215.56 281.034 214.282C279.876 214.282 278.718 214.282 278.139 214.708C275.244 215.986 272.349 216.839 270.034 218.117C265.402 220.674 259.612 221.526 254.401 221.526C250.349 221.526 246.296 221.526 242.243 221.953C240.506 221.953 239.927 221.526 238.769 220.674C234.716 218.543 230.084 216.413 226.032 213.856C224.295 213.003 223.137 213.003 221.4 213.429C219.663 213.856 217.347 214.282 215.61 214.708C209.82 215.986 204.031 216.839 197.662 215.986C193.03 215.56 188.977 216.413 185.504 218.117C183.188 218.97 180.293 219.822 177.977 220.674C174.503 222.379 170.45 221.953 166.398 221.953C164.082 221.526 161.766 221.526 158.871 221.526C153.081 221.953 148.449 220.248 144.397 218.117C138.607 215.134 132.817 214.282 127.027 217.265C117.764 216.413 112.553 216.413 106.763 215.134C100.395 213.856 94.605 213.856 88.2363 215.134C81.2886 216.839 74.9199 216.839 67.9723 215.986C62.7615 215.134 58.1297 215.56 53.498 216.839C45.9713 218.97 39.0237 218.117 33.2339 214.708C26.2863 210.872 19.3386 210.872 11.812 211.299C5.44327 211.725 -0.346457 212.151 -6.71515 213.003C-8.45207 213.003 -9.03104 213.003 -9.61001 211.725C-9.61001 210.02 -10.768 208.315 -11.9259 206.611C-15.3997 201.923 -18.2946 196.809 -20.6105 191.695C-21.7684 189.138 -20.0315 186.581 -19.4525 184.024C-19.4525 182.746 -18.8736 181.467 -18.8736 179.763C-18.8736 177.206 -18.8736 174.649 -15.9787 172.944C-14.8208 172.518 -14.8208 171.665 -15.9787 171.239C-19.4525 169.108 -20.0315 166.125 -20.6105 163.142C-20.6105 162.29 -20.0315 161.864 -19.4525 161.438C-17.1367 159.733 -14.8208 158.028 -12.5049 156.324C-9.03104 155.045 -9.03104 153.34 -10.189 151.636C-13.6628 146.948 -16.5577 142.26 -18.8736 137.146C-20.6105 134.589 -20.6105 132.032 -19.4525 129.475C-18.8736 127.344 -17.7156 125.214 -18.2946 122.657C-18.2946 120.1 -17.7156 117.969 -14.8208 116.264C-13.6628 115.838 -13.6628 114.986 -14.8208 114.56C-18.2946 112.429 -18.8736 109.446 -19.4525 106.463C-19.4525 105.61 -19.4525 105.184 -18.8736 104.758C-13.0838 102.627 -12.5049 98.3654 -12.5049 94.53C-12.5049 92.3991 -13.0838 90.2683 -13.6628 88.1375C-14.8208 82.1712 -17.1367 76.6311 -20.6105 71.091C-20.6105 69.8125 -20.6105 68.9602 -18.8736 68.9602C-17.7156 68.9602 -16.5577 68.534 -15.3997 68.534Z" fill="white"/>
</svg>
