<svg width="189" height="71" viewBox="0 0 189 71" fill="none" xmlns="http://www.w3.org/2000/svg">
<g filter="url(#filter0_d_330_4514)">
<path d="M27.6865 66.2999C27.6865 66.6856 27.6312 67.0161 27.5207 67.2916C27.4101 67.6222 27.2444 67.8976 27.0233 68.118C26.8023 68.3935 26.5259 68.5588 26.1944 68.7241C25.8628 68.8893 25.5312 68.9444 25.2549 68.9444C24.8681 68.9444 24.426 68.8893 23.8734 68.7792C23.376 68.669 22.8234 68.5037 22.1602 68.2833C21.4971 68.0078 20.9444 67.8425 20.4471 67.6773C19.9497 67.512 19.5076 67.4569 19.2313 67.512C18.734 67.512 18.2366 67.6222 17.7392 67.8976C17.2971 68.1731 16.9103 68.5588 16.634 69.0546C15.805 69.2199 15.0314 69.3852 14.313 69.4403C13.5393 69.5505 12.8209 69.5505 12.1025 69.5505C9.39461 69.6056 7.18411 69.1097 5.52624 68.118C3.86837 67.1263 2.6526 65.4735 1.87892 63.2146C1.38156 62.3331 0.994723 60.8455 0.718411 58.8621C0.442099 56.8787 0.22105 54.3994 0.22105 51.4243C0.276312 49.6613 0.276312 48.1737 0.22105 46.8514C0.165787 45.5292 0.165787 44.4824 0.110525 43.6009C0.0552624 42.7744 0.0552624 42.1133 0 41.6725C0 41.2318 4.11737e-09 41.0114 0.0552624 41.0114C0.0552624 40.4054 0.276312 40.0197 0.718411 39.8544C0.663149 39.5789 0.663149 39.3035 0.607886 39.028C0.607886 38.7525 0.552624 38.422 0.497362 38.0363C0.552624 36.0529 0.884198 34.2898 1.43682 32.8023C2.04471 31.3147 2.87364 30.0476 3.97889 29.0558C5.08414 28.0641 6.41044 27.2928 8.06831 26.7419C9.67092 26.1909 11.4946 25.9154 13.5393 25.8604C14.7551 25.9154 15.8603 25.9705 16.855 26.1358C17.8498 26.3011 18.7892 26.6317 19.6734 27.0724L19.8945 27.1826C20.7234 27.1275 21.4971 27.3479 22.3813 27.954C23.2102 28.56 24.1497 29.3864 25.1997 30.5434C25.476 31.1494 25.7523 31.8106 25.9733 32.637C26.1944 33.4634 26.4707 34.3449 26.747 35.3917C27.0786 35.6672 27.2444 35.9978 27.2444 36.4936C27.2444 36.6589 27.1891 36.8793 27.1338 37.2099C26.9681 37.6506 26.9681 37.9261 26.9681 38.1465C26.9681 38.3118 27.0233 38.477 27.0786 38.5872C27.1338 38.6974 27.1891 38.8627 27.2996 38.9729L25.8075 40.1299L17.4629 39.8544C17.2419 39.5789 17.0761 39.2484 16.9656 38.9729C16.855 38.6974 16.855 38.3669 16.855 37.9812L16.9103 37.5404L17.4629 36.9344C17.0208 36.8242 16.5235 36.3834 15.9156 35.6672C15.4182 34.8959 14.8656 34.5102 14.3682 34.5102C14.2577 34.5102 14.1472 34.5102 14.0366 34.5653C13.9261 34.5653 13.8156 34.6204 13.7051 34.6204L12.8209 33.7389C12.2683 34.0144 12.0472 34.5102 12.1577 35.2265C11.5498 35.7774 11.1077 36.3834 10.8867 37.0997C10.6656 37.8159 10.5551 38.5872 10.6104 39.4137V40.0748C10.8314 40.2401 10.8867 40.4054 10.8867 40.6808C10.8867 40.791 10.8314 40.9563 10.7209 41.2318C10.6104 41.5073 10.5551 41.6725 10.5551 41.8378C10.5551 42.0031 10.6104 42.2235 10.7762 42.3888L10.5551 42.7193C10.7762 42.8846 10.8314 43.0499 10.8314 43.2152C10.8314 43.3254 10.7762 43.4907 10.6656 43.711C10.5551 43.9314 10.4999 44.0967 10.4999 44.262C10.4999 44.4273 10.5551 44.5926 10.7209 44.7578C10.3341 45.0333 10.1683 45.3088 10.1683 45.5843C10.1683 45.6945 10.2235 45.8047 10.2788 45.9699C10.3341 46.1352 10.3893 46.3005 10.4999 46.4658C10.5551 46.6311 10.6656 46.7964 10.7209 46.9616C10.7762 47.1269 10.8314 47.2371 10.8314 47.3473C10.8314 47.6228 10.7209 47.8432 10.4446 48.1186C10.6656 48.2839 10.7209 48.4492 10.7209 48.6145C10.7209 48.7798 10.6656 48.945 10.5551 49.1654C10.4446 49.3858 10.3893 49.5511 10.3893 49.6613C10.3893 49.8266 10.4999 49.9918 10.6656 50.2122C10.6104 50.4877 10.4999 51.1488 10.4999 52.0855C10.4446 53.0221 10.4446 54.3443 10.3893 56.0523V57.0991H10.0025C9.83671 57.0991 9.72618 57.0991 9.61566 57.1542C9.50513 57.2093 9.44987 57.2093 9.33934 57.2093C10.2235 58.6417 11.2183 59.7436 12.3235 60.5149C13.4288 61.2863 14.534 61.7821 15.7498 62.0025L16.4682 61.3965L15.1419 60.57C15.805 60.2395 16.2471 59.7436 16.5787 59.1376C16.9103 58.5315 17.0761 57.8153 17.0761 57.044C17.0761 56.8787 17.0761 56.7685 17.0761 56.6032C17.0761 56.4379 17.0761 56.3277 17.0208 56.1625H17.1866C17.3524 56.1625 17.5734 56.2176 17.7945 56.2726C18.0155 56.3277 18.2366 56.3828 18.3471 56.3828C18.5682 56.3828 18.7892 56.2176 19.0103 55.887C18.6234 55.3911 18.0708 55.2259 17.3524 55.336L14.8103 52.7466L15.5287 52.1405L14.8103 51.5896L14.534 51.8651C14.313 51.6447 14.2024 51.4243 14.0919 51.2039C13.9814 50.9836 13.9261 50.7081 13.9261 50.4326C13.9261 50.2673 13.9261 49.9918 13.9814 49.6062C14.0366 49.2205 14.0366 48.945 14.0366 48.7798C14.0366 48.6145 14.0366 48.4492 13.9814 48.2839C13.9814 48.1186 13.9261 48.0084 13.8709 47.8432L14.2577 47.5677C14.0366 47.4575 13.8709 47.3473 13.8709 47.182C13.8709 47.0718 13.9261 46.9616 14.0366 46.7964C14.1472 46.6311 14.2024 46.5209 14.2024 46.4107L15.584 45.5843L24.5918 45.8597C24.8128 45.6394 25.0891 45.5292 25.476 45.5292C25.9181 45.5292 26.3049 45.6394 26.5812 45.8597L27.2996 47.8983C27.1338 51.4794 27.0233 54.0689 26.9128 55.7217C26.8575 57.3745 26.8023 58.201 26.8575 58.1459C26.9128 58.2561 27.1338 61.0108 27.6865 66.2999ZM2.54207 49.3858C2.37628 49.1654 2.15523 49.0552 1.82366 49.0552C1.49208 49.0552 1.3263 49.1654 1.27104 49.3858L1.54735 49.7164H1.93418C2.15523 49.7164 2.37628 49.6062 2.54207 49.3858ZM2.54207 44.2069C2.15523 44.0416 1.98945 43.9314 1.93418 43.9314H1.7684L2.15523 44.4824L2.54207 44.2069ZM2.6526 56.493H2.15523V56.9338H2.6526V56.493ZM2.54207 58.6417L2.15523 58.9172L2.54207 59.1927L2.81838 58.9172L2.54207 58.6417ZM4.47625 37.7057H4.03416V38.1465H4.47625V37.7057ZM5.02888 34.4L4.64204 34.7306L5.02888 35.0061L5.30519 34.7306L5.02888 34.4ZM5.02888 50.8734H4.64204L5.02888 51.1488V50.8734ZM7.23937 55.4462C6.85254 55.2258 6.41044 55.1157 5.80255 55.1157C5.30519 55.1157 5.02888 55.336 5.02888 55.7217V55.8319C5.02888 55.887 5.02888 55.9421 5.08414 56.0523C5.24993 56.2726 5.5815 56.3828 6.0236 56.3828C6.52096 56.3828 6.9078 56.3828 7.12885 56.3828C7.3499 56.3828 7.3499 56.3828 7.23937 56.3277V55.4462ZM5.36045 35.8325L5.08414 36.3834L6.35518 35.8325H5.36045ZM7.57095 62.6636C6.9078 62.7738 6.0236 63.0493 5.02888 63.5452C5.19467 63.3248 5.69203 63.2146 6.4657 63.2146C7.12885 63.2146 7.51569 63.0493 7.57095 62.6636ZM6.68675 48.8349C6.63149 48.7798 6.52096 48.7798 6.52096 48.7798C6.4657 48.7798 6.4657 48.7798 6.41044 48.7798C6.24465 48.7798 5.91308 49.0001 5.36045 49.3858H6.29991C6.57623 49.1654 6.68675 49.0001 6.68675 48.8349ZM6.4657 41.1767H5.91308V41.6174H6.4657V41.1767ZM8.45515 44.2069H8.34462C8.28936 44.2069 8.17883 44.3171 7.90252 44.4824H8.45515V44.2069ZM8.34462 48.945H7.90252V49.3858H8.34462V48.945ZM9.72618 47.9533C9.67092 47.8432 9.61566 47.733 9.44987 47.6779C9.28408 47.5677 9.17356 47.5126 8.95251 47.4575C8.78672 47.4024 8.62093 47.3473 8.45515 47.2922C8.28936 47.2371 8.17883 47.182 8.12357 47.1269L9.39461 48.2839L9.72618 47.9533ZM8.45515 58.0357L8.17883 58.3112L8.45515 58.6417L8.89725 58.3112L8.45515 58.0357ZM9.17356 40.9012L8.89725 40.4054L8.45515 40.7359C8.84198 40.9012 9.00777 41.0114 9.06303 41.0114H9.17356V40.9012ZM9.44987 52.5813H9.33934C9.28408 52.5813 9.17356 52.4711 8.89725 52.2507L8.45515 52.8568C8.62093 52.9119 8.73146 52.967 8.84198 53.0221C8.95251 53.0772 9.00777 53.0772 9.06303 53.0772H9.17356C9.39461 52.8017 9.44987 52.6364 9.44987 52.5813ZM9.17356 64.0961L8.89725 64.3716L9.17356 64.7021L9.39461 64.3716L9.17356 64.0961ZM10.0025 42.8846H9.44987V43.3254H10.0025V42.8846ZM10.1683 36.3834H9.72618L10.1683 36.714V36.3834ZM10.4446 63.435C10.4446 63.3799 10.3341 63.2146 10.1683 62.9391L9.72618 63.2146C10.0578 63.435 10.2235 63.5452 10.3341 63.5452H10.4446V63.435ZM11.6051 30.4883H11.0525V30.9291H11.6051V30.4883ZM12.3235 66.6856C12.0472 66.4652 11.8814 66.355 11.8262 66.355H11.7156L11.9367 66.961L12.3235 66.6856ZM13.263 32.0861L12.9867 32.3615L13.263 32.6921L13.5393 32.3615L13.263 32.0861ZM14.534 63.2146C14.4235 63.0493 14.2577 62.9391 13.9814 62.9391H13.5393L14.2577 63.5452L14.534 63.2146ZM14.6998 33.1329H14.313V33.5185H14.6998V33.1329ZM15.6393 49.5511H15.1972V49.9918H15.6393V49.5511ZM17.7945 62.278C17.7945 62.1678 17.6287 62.0025 17.3524 61.7821L16.7998 62.3331L17.0208 62.6636H17.1866C17.2971 62.6636 17.4629 62.5535 17.7945 62.278ZM17.7945 34.1246H17.3524L18.0708 34.4L17.7945 34.1246ZM18.2366 46.3556H17.7945V46.7964H18.2366V46.3556ZM18.3471 60.6802C18.1261 60.4599 17.9603 60.3497 17.8498 60.3497H17.7945L18.0708 60.9557L18.3471 60.6802ZM20.3366 58.6417C20.1155 58.4213 19.8392 58.3112 19.5076 58.3112C19.1761 58.3112 18.955 58.4213 18.7892 58.6417L19.3971 59.1927L19.4524 59.2478C19.5076 59.2478 19.6182 59.2478 19.7287 59.1927C19.8392 59.1376 19.8945 59.0825 20.005 58.9723C20.0603 58.8621 20.1708 58.807 20.226 58.7519C20.2813 58.6968 20.2813 58.6417 20.3366 58.6417ZM19.6182 55.7217L20.0603 55.3911C19.8945 55.2259 19.7287 55.1157 19.5076 55.1157C19.2866 55.1157 19.1208 55.2259 19.0655 55.3911L20.3366 56.6032L20.6129 56.2726L19.6182 55.7217ZM20.3366 53.7383L20.0603 54.0138L20.3366 54.2892L20.6129 54.0138L20.3366 53.7383ZM20.7787 30.7638H20.3366V31.2045H20.7787V30.7638ZM20.7787 61.8923H20.3366V62.3331H20.7787V61.8923ZM20.6129 65.5837H20.3366L20.6129 65.8591V65.5837ZM21.8839 54.8953L21.6076 55.4462H21.8839V54.8953ZM24.1497 58.9172L23.8734 59.1927L24.1497 59.4681L24.426 59.1927L24.1497 58.9172ZM25.0891 55.9972H24.9233C24.8681 55.9972 24.7023 56.1074 24.426 56.2726L24.7023 56.6032C24.9786 56.3277 25.1444 56.1625 25.1444 56.1074L25.0891 55.9972Z" fill="white"/>
<path d="M61.0671 68.3307C60.5109 69.1581 59.343 69.5442 57.6189 69.489H56.451C56.0617 69.1029 55.6724 68.9374 55.2275 68.9374C55.0606 68.9374 54.8382 68.9926 54.6157 69.0478C54.3377 69.1029 54.1152 69.2132 53.8371 69.2684C53.6147 69.3235 53.3366 69.3787 53.1141 69.4339C52.8917 69.489 52.6692 69.489 52.5024 69.489C51.5569 69.489 50.7783 68.6617 50.2778 67.007C50.1109 66.4003 49.9441 65.8487 49.7772 65.2971C49.6104 64.7456 49.4435 64.194 49.2211 63.5321C48.3312 63.3115 47.4414 63.2012 46.4959 63.146C45.328 63.2012 44.3826 63.3115 43.7152 63.5873C43.0478 63.8631 42.5473 64.2492 42.2136 64.8559C42.0467 65.4074 41.8799 65.9039 41.7687 66.4003C41.6018 66.8967 41.435 67.3379 41.2681 67.8895C40.9344 68.9926 39.9334 69.5442 38.1537 69.5442C37.9312 69.5442 37.7088 69.5442 37.3751 69.5442C37.097 69.5442 36.7633 69.489 36.4296 69.489C36.0959 69.489 35.7622 69.4339 35.4285 69.4339C35.0949 69.4339 34.8168 69.4339 34.6499 69.4339C34.5387 69.4339 34.3162 69.4339 34.0382 69.489C33.7601 69.5442 33.5376 69.5442 33.4264 69.5442C32.8703 69.5993 32.3697 69.4339 31.9248 69.1029C31.4799 68.772 31.1462 68.3307 30.8125 67.7792C30.8681 67.5585 30.9793 67.3379 31.0906 67.1724C31.2018 66.9518 31.313 66.676 31.4243 66.3451L34.0938 54.1555C34.1494 53.8798 34.1494 53.5488 34.205 53.1627C34.205 52.7766 34.2606 52.3354 34.2606 51.8941C34.6499 50.6255 34.9836 49.1363 35.4285 47.3713C35.8179 45.6615 36.2628 43.5655 36.6521 41.1938L38.7654 30.4383C38.9323 29.611 39.0435 29.0043 39.1548 28.4527C39.266 27.9563 39.3772 27.5702 39.5441 27.3496C39.7665 26.8532 40.1558 26.5222 40.6564 26.3016C41.1569 26.081 41.713 25.9707 42.3248 25.9707C42.5473 25.9707 42.8253 25.9707 43.159 26.0258C43.4927 26.081 43.882 26.081 44.2713 26.1361C44.6606 26.1913 44.9943 26.1913 45.328 26.2464C45.6617 26.3016 45.9398 26.3016 46.1066 26.3016C46.774 26.3016 47.4414 26.1913 47.9975 25.9707C47.9419 25.9707 48.1088 25.9707 48.4981 25.9155C48.8874 25.9155 49.4991 25.8604 50.2778 25.8604C51.1676 25.8604 51.835 26.081 52.2799 26.5774C52.3355 26.6325 52.4467 26.8532 52.6136 27.1841C52.7804 27.515 52.9473 27.9563 53.2254 28.563C53.2254 28.7285 53.2254 29.0043 53.281 29.3352C53.3366 29.6661 53.3922 30.0522 53.4478 30.4383C53.5034 30.8244 53.559 31.2105 53.6147 31.5415C53.6703 31.9275 53.7259 32.2033 53.7259 32.424C53.7259 32.8652 53.6703 33.2513 53.559 33.6374C54.2264 34.2441 54.6157 35.2369 54.8382 36.5607C54.8938 37.1122 55.005 37.6638 55.0606 38.1602C55.1163 38.7118 55.2275 39.2082 55.3943 39.7046L58.1751 54.652C58.8425 55.369 59.2318 56.1963 59.2318 57.134V57.3546L58.8425 57.6304L59.3986 58.2371C59.4542 58.8438 59.5655 59.5057 59.6767 60.2227C59.8435 60.9949 60.066 61.8223 60.3441 62.8151C60.5665 63.9182 60.789 64.8559 60.9002 65.6281C61.0671 66.4554 61.1227 67.1173 61.1783 67.6688L61.0671 68.3307ZM36.7633 60.2227C36.7633 60.1676 36.6521 60.0021 36.374 59.7263L35.9847 60.0021C36.2628 60.2227 36.4852 60.3331 36.5965 60.3331H36.6521L36.7633 60.2227ZM37.5419 43.2898H37.0414V43.731H37.5419V43.2898ZM39.3772 62.0981C39.2104 61.9326 38.9879 61.8223 38.7098 61.8223H38.3205L38.9879 62.429L39.3772 62.0981ZM40.3227 56.3618C40.3227 56.3066 40.2114 56.1412 40.0446 55.8654L39.6553 56.1963C39.989 56.417 40.1558 56.5273 40.2114 56.5273L40.3227 56.4721V56.3618ZM40.4895 53.3282H39.989V53.7695H40.4895V53.3282ZM40.6564 50.5704L40.3783 50.8462L41.0457 51.4529L41.3237 51.122L40.6564 50.5704ZM41.1569 59.2851H40.6007V59.7263H41.1569V59.2851ZM41.4906 38.2154H40.99V38.6566H41.4906V38.2154ZM41.9355 48.4744L41.6018 48.4193C41.3237 48.4193 41.1013 48.5296 40.99 48.7502C41.2681 48.9709 41.435 49.0812 41.5462 49.0812L41.6574 49.026C41.8799 48.8054 42.0467 48.6399 42.0467 48.5848L41.9355 48.4744ZM42.6029 53.7695H42.2136C41.6574 53.7143 41.2125 53.8798 40.9344 54.3762C40.9901 54.5968 41.1569 54.7071 41.4906 54.7071H42.2692C42.4917 54.5968 42.5473 54.3762 42.5473 54.1004V53.7695H42.6029ZM42.6029 33.6374C42.4917 33.4168 42.2692 33.3065 41.9911 33.3065L41.6018 33.3616V33.4719C41.5462 33.8029 41.7687 33.9683 42.3248 33.9683L42.5473 33.9132V33.6374H42.6029ZM42.9922 36.5607C42.881 36.3401 42.6585 36.2297 42.3248 36.2297C41.9911 36.2297 41.7687 36.3401 41.6574 36.5607L41.9355 36.8916H42.3804C42.6585 36.8916 42.881 36.7813 42.9922 36.5607ZM43.2703 60.0021C43.1034 59.8367 42.881 59.7263 42.5473 59.7263H41.6574L42.6029 60.6088L43.2703 60.0021ZM42.6029 40.9732L42.3248 40.4768C42.1024 40.5319 41.9355 40.6422 41.9355 40.918C41.9355 41.1387 42.0467 41.3041 42.3248 41.3593L42.6029 41.0835V40.9732ZM42.9922 62.7048H42.6029C42.2692 62.7048 42.0467 62.8151 41.9355 63.0357C42.2692 63.2563 42.436 63.3667 42.4917 63.3667L42.6029 63.3115L42.9922 62.8703V62.7048ZM48.9986 54.5416C48.9986 54.4865 48.943 54.3762 48.8874 54.321C48.8318 54.2107 48.7762 54.2107 48.7205 54.2107L48.1644 46.7094L48.8318 46.1027L48.1088 46.1579C47.8863 45.5512 47.6638 44.8893 47.5526 44.2826C47.4414 43.6207 47.4414 42.9588 47.5526 42.2969C47.1633 41.8005 46.7184 41.5799 46.2179 41.6351L45.8286 41.6902C44.9943 42.2418 44.7163 42.9037 44.8831 43.7862C44.2157 44.3377 43.9376 45.5512 43.9376 47.3713C43.9933 49.026 43.4371 50.0188 42.3248 50.2394L42.2692 50.3498C42.2692 50.4601 42.3248 50.5704 42.436 50.6255C42.5473 50.6807 42.7141 50.7359 42.881 50.791C43.0478 50.8462 43.2146 50.9013 43.3259 50.9013C43.4927 50.9565 43.5483 51.0116 43.604 51.0668C43.4927 51.2323 43.3815 51.4529 43.3259 51.6184C43.2703 51.7838 43.2147 52.0045 43.2147 52.2802C43.2147 52.4457 43.2146 52.6112 43.2703 52.8318C43.3259 53.0524 43.3259 53.273 43.3815 53.4937C43.4371 53.7143 43.4371 53.9349 43.4927 54.1555C43.5483 54.3762 43.5483 54.5968 43.5483 54.7071C43.5483 55.4241 43.1034 55.8654 42.2692 56.1412L42.5473 56.417C42.7697 56.1963 43.0478 56.0309 43.3815 55.9757C43.7708 55.9206 44.2157 55.8654 44.7163 55.8102H47.1633C47.3302 55.8654 47.4414 56.0309 47.5526 56.417V56.1412C47.6082 56.086 47.6638 56.0309 47.7751 55.9206C47.8863 55.8102 48.1088 55.6448 48.3868 55.4241C48.8318 55.1484 48.9986 54.8174 48.9986 54.5416ZM44.9387 38.6566C44.8831 38.7669 44.7163 38.8221 44.5494 38.8772C44.3826 38.9324 44.1601 38.9324 43.9376 38.9876C43.7152 39.0427 43.4927 39.0979 43.3259 39.2082C43.159 39.3185 43.0478 39.4288 42.9922 39.5391C43.2146 39.7046 43.3815 39.8149 43.4927 39.8149C43.5483 39.8149 43.6596 39.7597 43.7708 39.6494C43.882 39.5391 43.9933 39.3737 44.1045 39.2633C44.2157 39.0979 44.3269 38.9876 44.3826 38.8772C44.4938 38.7669 44.5494 38.7118 44.6606 38.7118L44.9387 38.6566ZM46.2735 34.8508C46.3291 34.7957 45.8286 34.7957 44.6606 34.7957C44.1045 34.7957 43.6596 34.906 43.3259 35.1266L43.9933 35.7333C44.1045 35.5679 44.605 35.4576 45.4949 35.4576C45.9398 35.4576 46.1622 35.2369 46.2735 34.8508ZM43.604 60.9398L43.3259 61.5465L43.604 61.2156V60.9398ZM44.327 31.5415H44.2157C43.9376 31.5415 43.7152 31.6518 43.604 31.8172L43.9933 32.1482L44.6606 31.5415H44.327ZM46.9965 60.0573C46.774 60.1124 46.4959 60.0573 46.2735 59.947C46.051 59.8367 45.7729 59.616 45.4392 59.3954C44.8275 58.8438 44.3269 58.5681 43.9376 58.5681C43.7152 58.6784 43.5483 58.8438 43.5483 59.0093C43.5483 59.2299 43.6596 59.3954 43.9376 59.5057C44.1045 59.3402 44.327 59.2851 44.605 59.2851C44.9387 59.2851 45.328 59.5057 45.7729 59.947C46.1622 60.3882 46.4959 60.6088 46.6628 60.6088C46.8296 60.6088 46.9965 60.4434 47.2189 60.0573H46.9965ZM44.9387 29.1697H44.2713L44.9387 29.5007V29.1697ZM46.5516 37.1674C46.1622 36.7813 45.8286 36.5607 45.6617 36.5607C45.4393 36.5607 45.328 36.671 45.2724 36.8916L45.8842 37.4983H45.9954C46.051 37.4983 46.2179 37.388 46.5516 37.1674ZM46.6072 32.6446C46.6072 32.5894 46.4959 32.424 46.2179 32.1482L45.8286 32.424C46.1066 32.6446 46.3291 32.7549 46.4403 32.7549H46.4959L46.6072 32.6446ZM45.8842 39.5943L46.5516 40.4768L46.9409 40.1458L45.8842 39.5943ZM46.2735 57.3546V57.6304L46.5516 57.3546H46.2735ZM48.22 37.4983L48.1088 37.4432C48.0532 37.4432 47.8863 37.5535 47.6082 37.7741L47.8863 38.0499C48.1088 37.8293 48.2756 37.6638 48.2756 37.5535L48.22 37.4983ZM51.835 59.1196C51.5013 58.6784 51.0007 58.4577 50.3334 58.4577C49.9997 58.4577 49.7216 58.5129 49.4435 58.5681C49.1655 58.6232 48.8874 58.7335 48.6093 58.8438L48.8874 59.1196C49.0542 59.0645 49.1655 59.0093 49.3323 58.9542C49.4435 58.899 49.6104 58.899 49.7772 58.899C49.8884 58.899 50.0553 58.899 50.2778 58.9542C50.5002 59.0093 50.6671 59.0645 50.8895 59.1196C51.112 59.1748 51.2788 59.2299 51.4457 59.2851C51.6125 59.3402 51.7794 59.3954 51.8906 59.3954V59.1196H51.835ZM49.2211 42.5176H48.8318L49.2211 42.7933V42.5176ZM48.8874 62.3738V62.6496L49.2767 62.3738H48.8874ZM50.2221 48.1435C50.1665 47.978 49.9997 47.8677 49.7772 47.8677C49.3879 47.8677 49.2211 48.0332 49.2211 48.3641V48.4744H49.6104C49.8885 48.4744 50.0553 48.3641 50.2221 48.1435ZM50.5002 49.6327L50.4446 49.6879C50.3334 49.6879 50.1665 49.5776 49.8885 49.3569L49.5548 49.6327C49.666 49.8534 49.9441 49.9637 50.2778 49.9637H50.5002V49.6327ZM50.5002 38.6566H50.389C50.3334 38.6566 50.1665 38.7669 49.8885 38.9876L50.1665 39.2633C50.389 38.9876 50.5558 38.8221 50.5558 38.7669L50.5002 38.6566ZM52.5024 57.3546C52.3911 56.9685 52.0574 56.7479 51.6125 56.5824C51.112 56.417 50.6671 56.2515 50.1665 56.1412C50.3334 56.5273 50.6671 56.7479 51.112 56.9134C51.6125 57.0788 52.0574 57.2443 52.5024 57.3546ZM50.6671 43.5655H50.1665V44.0068H50.6671V43.5655ZM53.1697 54.7071C53.0585 54.7071 52.8917 54.652 52.6692 54.5968C52.4467 54.5416 52.2799 54.4313 52.0574 54.3762C51.835 54.321 51.6681 54.2659 51.5013 54.2107C51.3344 54.1556 51.1676 54.1555 51.0564 54.1555C50.8895 54.1555 50.7227 54.2107 50.6114 54.2107C50.4446 54.2659 50.3334 54.321 50.2221 54.3762C50.3334 54.4313 50.5002 54.4313 50.7227 54.4865C50.9451 54.5416 51.112 54.5968 51.2788 54.652C51.4457 54.7071 51.6681 54.7623 51.835 54.8174C52.0574 54.8726 52.2243 54.8726 52.3355 54.8726C52.6136 54.9829 52.8917 54.8726 53.1697 54.7071ZM50.8895 51.4529L50.5002 51.6735L50.8895 52.0045L51.1676 51.6735L50.8895 51.4529ZM54.1708 61.8774C54.1708 61.6017 54.004 61.4362 53.6147 61.4362C53.3366 61.4362 53.1697 61.5465 53.1141 61.7671L53.7815 62.3738C54.0596 62.0981 54.1708 61.9326 54.1708 61.8774ZM55.1719 51.3977L54.7826 51.6735L55.1719 52.0045L55.45 51.6735L55.1719 51.3977Z" fill="white"/>
<path d="M93.3301 67.5477C93.3301 68.1558 93.1645 68.6534 92.8886 69.1509C92.3918 69.5379 91.8399 69.759 91.1224 69.8143C90.9568 69.759 90.7361 69.759 90.4601 69.7038C90.1841 69.6485 89.9082 69.6485 89.577 69.5932C89.3011 69.5379 88.9699 69.5379 88.694 69.4826C88.418 69.4273 88.1972 69.4273 88.0316 69.4273C87.5349 69.4273 87.0382 69.5379 86.5966 69.759L86.2103 69.4826C85.9895 69.6485 85.7688 69.759 85.4928 69.759C85.3824 69.759 85.2168 69.759 85.0513 69.7038C84.8857 69.6485 84.7201 69.5932 84.5545 69.5379C84.389 69.4826 84.2234 69.3721 84.0578 69.3168C83.8922 69.2615 83.7818 69.2062 83.6163 69.1509C82.5124 68.1558 81.9053 65.7787 81.7949 62.0747C81.8501 61.7983 81.8501 61.4666 81.8501 61.0796C81.8501 60.6374 81.8501 60.1951 81.9053 59.6975C81.9605 59.0894 81.9605 58.6472 81.9605 58.3155C81.9605 57.9838 81.9605 57.7074 81.9053 57.5415C81.9605 56.1042 81.6293 54.9432 81.0222 53.9481C80.3599 53.0083 79.3665 52.2896 77.9315 51.8474C77.5451 52.0132 77.214 52.1238 76.8276 52.1238C76.6068 52.1238 76.3309 52.1238 75.9445 52.0685C75.5582 52.0132 75.2822 52.0132 75.0615 52.0132C74.6751 52.0132 74.4543 52.0685 74.2888 52.1791C75.1718 52.4555 75.6134 52.953 75.6686 53.727C75.6686 53.8928 75.6134 54.0587 75.5582 54.2245C75.503 54.4457 75.4478 54.6115 75.3926 54.8326C75.3374 55.0538 75.2822 55.2749 75.227 55.496C75.1718 55.7172 75.1718 55.9383 75.1718 56.0489C75.1718 56.5464 75.3374 56.9887 75.6134 57.2651C75.1718 57.5415 74.9511 57.8179 74.9511 58.1496C74.9511 58.2602 75.0063 58.3708 75.0615 58.5366C75.1166 58.7024 75.227 58.8683 75.3374 59.0341C75.4478 59.2 75.503 59.3658 75.6134 59.5317C75.6686 59.6975 75.7238 59.8081 75.7238 59.9187C75.7238 60.1951 75.5582 60.4715 75.2822 60.7479C75.3374 61.356 75.4478 61.9089 75.503 62.5723C75.5582 63.1804 75.6134 63.8438 75.6134 64.5624L75.5582 68.5981C75.0615 69.5379 74.1784 69.9249 72.909 69.9249C72.6882 69.9249 72.357 69.9249 72.0259 69.8696C71.6947 69.8143 71.3084 69.759 70.922 69.7038C70.5357 69.6485 70.2045 69.5932 69.8182 69.5379C69.487 69.4826 69.2111 69.4826 69.0455 69.4826C68.9351 69.4826 68.7695 69.5379 68.5488 69.5932C68.328 69.6485 68.1072 69.7038 67.9417 69.759C67.7209 69.8143 67.5553 69.8696 67.3345 69.9249C67.1138 69.9802 66.9482 69.9802 66.8378 69.9802C66.4515 70.0355 66.1203 69.9802 65.8443 69.8143C65.5684 69.6485 65.2924 69.4273 65.0165 69.2062C64.7957 68.9298 64.5749 68.6534 64.4645 68.3217C64.3542 67.99 64.2438 67.603 64.2438 67.2713C64.2438 66.7738 64.3542 66.3315 64.6301 65.7787L63.8574 65.3364L64.9613 40.5696C64.7405 40.4591 64.5749 40.2379 64.5749 39.9062C64.5749 39.2981 64.5749 39.0217 64.6301 39.077L64.7957 39.0217C64.8509 39.0217 64.9613 39.1323 65.2372 39.3534C65.734 38.8559 65.9547 38.5795 65.9547 38.6347C65.9547 38.303 65.7892 38.1372 65.5132 38.1372C65.4028 38.1372 65.2372 38.1925 65.0165 38.2478C64.7957 38.3583 64.6301 38.3583 64.4093 38.303L64.3542 27.8546C64.7405 27.357 65.3476 26.97 66.1755 26.6936C67.0034 26.4172 67.9417 26.3066 69.1007 26.3066C69.487 26.3066 69.9286 26.3066 70.4805 26.3619C71.0324 26.4172 71.6395 26.4725 72.3018 26.5278C72.9642 26.6383 73.5713 26.6936 74.1232 26.6936C74.6751 26.6936 75.1167 26.6936 75.503 26.6936C75.7238 26.6936 76.1101 26.6936 76.5516 26.6383C76.9932 26.6383 77.4899 26.5831 78.097 26.5278C78.649 26.4725 79.1457 26.4172 79.5872 26.3619C80.0288 26.3066 80.4151 26.3066 80.6911 26.3619C83.0091 26.3619 84.9409 26.5831 86.4311 27.0806C87.9213 27.5781 89.1355 28.4074 90.0186 29.5683C90.4049 30.1764 90.8465 31.1715 91.2328 32.5536C91.6743 33.9357 92.0055 35.76 92.3366 37.9713C92.3918 38.2478 92.3918 38.4689 92.447 38.7453C92.447 39.0217 92.447 39.2429 92.3918 39.464C92.5022 40.9013 92.0607 42.781 91.012 45.2134C90.7913 45.6004 90.3497 46.0979 89.6322 46.706C88.8043 47.3142 88.4732 47.8117 88.4732 48.3645C88.418 48.5304 88.5284 48.8621 88.8043 49.2491C89.0803 49.6913 89.4114 50.2442 89.9082 50.9076C90.4049 51.571 90.8465 52.1791 91.1224 52.7319C91.3984 53.2847 91.5639 53.8376 91.5639 54.2798C91.5639 54.7221 91.5088 55.1091 91.3432 55.4408C91.564 55.7172 91.6743 55.9936 91.7847 56.3806C91.8951 56.7675 91.9503 57.1545 92.0607 57.5415C92.1159 58.1496 92.1159 58.9789 92.0607 59.974C92.0055 60.7479 92.0055 61.3007 92.0055 61.6877C92.0055 62.0747 92.0055 62.2406 92.0055 62.2958C92.0055 62.6275 92.0607 63.0145 92.1159 63.4568C92.1711 63.899 92.3366 64.4519 92.5574 65.0047C92.723 65.6128 92.8334 66.1104 92.9438 66.5526C93.3301 66.8843 93.3301 67.216 93.3301 67.5477ZM67.8865 44.8264C67.7761 44.6053 67.6105 44.4947 67.3897 44.4947C67.169 44.4947 66.9482 44.6053 66.8378 44.8264L67.2242 45.1028H67.3345L67.8865 44.8264ZM69.487 54.4457C69.2663 54.2245 68.9903 54.114 68.5488 54.114C68.1072 54.114 67.7761 54.2245 67.5001 54.4457L67.8865 54.7774H68.8247C69.1559 54.7774 69.3767 54.6668 69.487 54.4457ZM67.8865 56.2147H67.5001L67.8865 56.5464V56.2147ZM68.052 60.3057H67.5001V60.8032H68.052V60.3057ZM69.8734 49.0279C69.6526 48.8068 69.3767 48.6962 69.0455 48.6962C68.6592 48.6962 68.3832 48.8068 68.2176 49.0279L68.604 49.3596H69.3767C69.5974 49.3596 69.763 49.2491 69.8734 49.0279ZM69.487 47.2036C69.4318 47.0377 69.2111 46.9272 68.9351 46.9272H68.7695H68.5488L69.2111 47.5353L69.487 47.2036ZM69.2111 62.2406H68.8247L69.2111 62.517V62.2406ZM69.6526 36.5893H69.1559V37.0315H69.6526V36.5893ZM69.6526 57.5968H69.1559V58.0391H69.6526V57.5968ZM69.487 64.0649H69.2111L69.487 64.3413V64.0649ZM71.474 52.3449C71.4188 52.2343 71.3084 52.1791 71.1428 52.1238C70.9772 52.0685 70.8668 52.0132 70.6461 52.0132C70.4805 51.9579 70.3149 51.9579 70.1493 51.9026C69.9838 51.8474 69.8734 51.8474 69.8734 51.7921L71.198 52.6766L71.474 52.3449ZM70.8117 45.711H70.1493L70.8117 45.9874V45.711ZM71.474 42.7257C71.4188 42.5045 71.2532 42.394 70.9772 42.394C70.7013 42.394 70.5357 42.5045 70.4805 42.7257L70.7565 43.0574H70.8668C70.9772 43.0574 71.1428 42.9468 71.474 42.7257ZM70.8117 50.1889V50.5206L71.198 50.1889H70.8117ZM71.198 35.4836V35.8153L71.474 35.4836H71.198ZM72.5226 38.9664C72.5226 38.9112 72.4122 38.7453 72.1363 38.4689L71.474 39.077L71.8603 39.4087H71.9707C72.0259 39.4087 72.2466 39.2981 72.5226 39.077V38.9664ZM72.5226 55.6066L71.474 56.2147L71.8603 56.5464C71.8603 56.4911 72.0259 56.3253 72.3018 56.1594C72.4674 55.9936 72.5226 55.883 72.5226 55.7725V55.6066ZM73.8472 40.2932C73.6265 40.1274 73.4057 40.0168 73.1297 40.0168C72.4674 40.0168 72.0811 40.2932 71.8603 40.9013C71.9155 40.7908 72.0811 40.7355 72.2466 40.6802C72.4122 40.6249 72.633 40.6249 72.8538 40.6249C73.0745 40.6249 73.2953 40.5696 73.4609 40.5696C73.6265 40.4591 73.7368 40.4038 73.8472 40.2932ZM74.1232 61.0243C73.9024 60.8032 73.6265 60.6926 73.1849 60.6926C72.6882 60.6926 72.4674 60.8585 72.5226 61.2455V61.356C72.633 61.5219 72.7986 61.6324 73.0193 61.6324C73.0745 61.6324 73.1297 61.6324 73.2401 61.5772C73.3505 61.5219 73.4609 61.4666 73.5713 61.4113C73.6817 61.356 73.792 61.2455 73.8472 61.1902C73.9576 61.0796 74.068 61.0243 74.1232 61.0243ZM73.0745 46.5955C72.6882 46.5955 72.5226 46.706 72.4674 46.9272L72.7434 47.2036L73.4057 46.5955H73.0745ZM72.7986 53.8375C72.5778 53.9481 72.5226 54.114 72.5226 54.2798C72.5226 54.5009 72.633 54.6668 72.7986 54.7774L73.8472 53.8375H72.7986ZM77.1036 48.3093C77.1036 48.254 76.9932 48.0881 76.7172 47.7564C76.2757 48.254 75.779 48.6962 75.1718 48.9727C74.5647 49.2491 73.9024 49.4702 73.0745 49.636C73.1297 49.6913 73.2401 49.6913 73.3505 49.6913C73.4609 49.6913 73.5713 49.6913 73.6817 49.6913C73.9024 49.6913 74.1232 49.636 74.3992 49.5808C74.6751 49.4702 75.0063 49.3596 75.3374 49.2491C76.2205 48.7515 76.7724 48.4751 76.9932 48.4198V48.3093H77.1036ZM75.4478 30.3976C75.227 30.1764 74.8959 30.0659 74.5095 30.0659C74.068 30.0659 73.7368 30.1764 73.4609 30.3976L73.8472 30.674C73.7368 30.7293 73.7368 30.7293 73.9024 30.7293C74.068 30.7293 74.344 30.7293 74.7303 30.7293C75.0615 30.7293 75.3374 30.6187 75.4478 30.3976ZM74.6199 37.1974H74.1232V37.6396H74.6199V37.1974ZM74.7855 44.4947C74.8407 44.2183 74.7303 43.9972 74.5095 43.8866C74.2888 43.9972 74.1232 44.2183 74.1232 44.4947C74.1232 44.7711 74.2336 44.9923 74.5095 45.1028L74.7855 44.8264V44.4947ZM74.7855 47.5353L74.5095 47.8117L74.7855 48.1434L75.1718 47.8117L74.7855 47.5353ZM74.9511 54.0034H74.4543V54.4457H74.9511V54.0034ZM83.0091 42.1176H82.8988C82.8436 42.1176 82.7884 42.1176 82.7332 42.1728C82.678 42.2281 82.5124 42.2834 82.3468 42.3387C82.402 41.62 82.402 40.8461 82.402 39.851C82.402 38.9112 82.2916 37.8608 82.1261 36.6998C82.0709 36.2576 81.9053 35.8706 81.6293 35.4836C81.4086 35.0966 81.1326 34.8202 80.8015 34.5438C80.4703 34.2674 80.084 34.1015 79.6976 33.9357C79.2561 33.7698 78.8697 33.7146 78.4282 33.7698C76.8828 33.7698 75.8341 34.3227 75.1718 35.4836C75.227 35.8706 75.3374 36.3129 75.3926 36.8104C75.4478 37.308 75.503 37.9161 75.5582 38.6347C75.503 39.6298 75.503 40.4591 75.503 41.0672C75.503 41.6753 75.5582 42.0623 75.5582 42.1728C75.8341 43.7208 76.4965 44.4947 77.6003 44.55C77.8211 44.55 78.0418 44.4947 78.373 44.4394C78.649 44.3289 78.9801 44.2736 79.3113 44.163C79.6424 44.0525 79.9184 43.9972 80.2495 43.9419C80.5255 43.8866 80.8015 43.8313 80.967 43.8313C81.4638 43.8313 81.8501 43.9972 82.1813 44.2736L82.5676 43.9419L81.4086 43.2785C81.3534 43.2232 81.3534 43.1679 81.3534 43.1127V43.0574C81.3534 42.8915 81.5741 42.5598 82.0709 42.0623L83.0091 43.0021H83.1747C83.2299 43.0021 83.3955 42.8915 83.6715 42.6704L83.0091 42.1176ZM76.4413 45.8215C76.4413 45.5451 76.2205 45.3793 75.779 45.3793L75.3926 45.4345V45.6004C75.3926 46.0979 75.5582 46.3191 75.9445 46.3191H76.0549C76.3309 46.0427 76.4413 45.8768 76.4413 45.8215ZM79.3665 50.1889H79.1457C78.2074 50.1889 77.5451 50.41 77.1588 50.797L77.8211 51.4051C78.0418 51.3498 78.3178 51.184 78.649 50.9628C78.9801 50.7417 79.3665 50.4653 79.808 50.1889H79.3665ZM81.4086 46.3191C81.3534 46.0979 81.1326 45.9874 80.8566 45.9874H80.084C79.8632 46.0427 79.5872 46.1532 79.1457 46.2085C78.7041 46.3191 78.1522 46.4296 77.4899 46.5402L77.8763 46.8719C78.0418 46.7613 78.2626 46.706 78.5938 46.706C78.7593 46.706 79.0353 46.7061 79.4216 46.7613C79.808 46.8166 80.084 46.8166 80.2495 46.8166C80.6911 46.9272 81.1326 46.706 81.4086 46.3191ZM78.7593 48.9727C78.7041 48.8068 78.4834 48.6962 78.2074 48.6962H78.0418H77.8211L78.4834 49.3043L78.7593 48.9727ZM78.5938 31.7797H78.097V32.2219H78.5938V31.7797ZM81.0774 31.6138H80.6911L81.0774 31.8902V31.6138ZM83.3955 47.2036C83.3403 47.093 83.2299 47.0377 83.1195 46.9825C83.0091 46.9272 82.8988 46.9272 82.7884 46.9272C82.1261 46.9272 81.7949 47.2036 81.7397 47.8117C81.7949 47.867 81.9053 47.867 81.9605 47.867H82.0157C82.1261 47.867 82.2365 47.867 82.402 47.8117C82.5124 47.7564 82.678 47.7011 82.7884 47.5906C82.954 47.48 83.0643 47.4247 83.1747 47.3694C83.2851 47.2036 83.3403 47.2036 83.3955 47.2036ZM82.8988 50.3547H82.402V50.797H82.8988V50.3547ZM83.3955 54.9985C83.3403 54.7774 83.1747 54.6668 82.8988 54.6668C82.6228 54.6668 82.4572 54.7774 82.402 54.9985L82.678 55.3302H82.7884C82.8988 55.3302 83.0643 55.2196 83.3955 54.9985ZM83.6715 52.0132C83.4507 51.7921 83.2299 51.6815 83.1195 51.6815L83.0091 51.7368L83.6715 52.3449V52.0132ZM85.6584 46.3191C85.4376 46.0979 85.1616 45.9874 84.8305 45.9874C84.2234 45.9874 83.837 46.2085 83.6715 46.5955C83.837 46.8166 84.0578 46.9272 84.2786 46.9272C84.3338 46.9272 84.4441 46.9272 84.5545 46.8719C84.6649 46.8166 84.8305 46.7613 84.9409 46.706C85.1065 46.6508 85.2168 46.5402 85.3272 46.4849C85.4928 46.3191 85.6032 46.3191 85.6584 46.3191ZM84.3338 41.233L84.0578 41.5095L84.3338 41.8412L84.7201 41.5095L84.3338 41.233ZM85.7136 39.0217C85.7136 38.9664 85.6584 38.8559 85.6032 38.7453C85.548 38.6347 85.4376 38.5242 85.3824 38.4689C85.3272 38.4136 85.1616 38.303 84.9961 38.1925L84.7201 38.4689C84.7753 38.4689 84.7753 38.5242 84.8305 38.5795C84.8857 38.6347 84.9409 38.7453 84.9961 38.8006C85.0513 38.9112 85.1616 38.9664 85.272 39.0217C85.3824 39.077 85.4376 39.077 85.548 39.077L85.6584 39.0217H85.7136ZM84.9961 48.9727L84.7201 49.3043L84.9961 49.5808L85.3824 49.3043L84.9961 48.9727ZM85.6584 51.7368L85.6032 51.6815C85.4928 51.6815 85.272 51.7921 84.9961 52.0132L85.3824 52.3449C85.6032 52.0685 85.7688 51.9026 85.7688 51.8474L85.6584 51.7368ZM85.6584 32.1666H85.3824L85.6584 32.7747V32.1666ZM88.1972 35.0413H87.6453V35.4836H88.1972V35.0413Z" fill="white"/>
<path d="M126.381 66.0017C126.27 65.5604 126.16 65.0088 125.994 64.4572C125.774 63.8505 125.663 63.3541 125.553 62.9128C125.498 62.4715 125.442 62.0854 125.442 61.7545C125.442 61.6993 125.442 61.5338 125.442 61.1477C125.442 60.7616 125.442 60.2101 125.498 59.4378C125.553 58.445 125.553 57.6728 125.498 57.0109C125.442 56.6248 125.332 56.2387 125.222 55.8526C125.111 55.4665 124.946 55.1907 124.78 54.9149C124.946 54.5839 125.001 54.1978 125.001 53.7566C125.001 53.2601 124.835 52.7637 124.559 52.2121C124.283 51.6606 123.897 51.0538 123.345 50.3919C122.848 49.6749 122.517 49.1233 122.241 48.7372C121.965 48.2959 121.855 48.0201 121.91 47.8546C121.855 47.3582 122.241 46.8066 123.069 46.1999C123.787 45.5932 124.228 45.1519 124.449 44.7106C125.498 42.2837 125.939 40.4083 125.829 38.9742C125.884 38.7536 125.884 38.5329 125.884 38.2571C125.884 37.9813 125.829 37.7607 125.774 37.4849C125.442 35.2786 125.056 33.4584 124.67 32.0794C124.228 30.7005 123.842 29.7076 123.456 29.1009C122.572 27.8874 121.358 27.06 119.868 26.6188C118.378 26.1224 116.446 25.9017 114.128 25.9017C113.852 25.8466 113.466 25.8466 113.024 25.9017C112.583 25.9569 112.086 26.012 111.534 26.0672C110.927 26.1224 110.43 26.1224 109.989 26.1775C109.547 26.1775 109.216 26.2327 108.94 26.2327C108.554 26.2327 108.112 26.2327 107.56 26.2327C107.008 26.2327 106.401 26.1775 105.739 26.0672C105.077 25.9569 104.469 25.9017 103.917 25.9017C103.862 25.9017 103.807 25.9017 103.807 25.9017C103.697 26.0672 103.531 26.1775 103.421 26.343C102.648 27.1704 101.71 27.7219 100.606 27.8874C100.109 27.9977 99.6677 27.9977 99.2262 27.8874C99.0606 27.8323 98.895 27.8323 98.7846 27.7219C98.5087 27.5565 98.3431 27.3358 98.2327 27.06C98.0671 27.1704 97.9567 27.3358 97.8463 27.5013L97.9015 37.9262C98.1223 37.9813 98.2879 37.9262 98.5087 37.871C98.7294 37.7607 98.895 37.7607 99.0054 37.7607C99.2813 37.7607 99.4469 37.9262 99.4469 38.2571C99.4469 38.202 99.2261 38.4778 98.7294 38.9742C98.5086 38.7536 98.3431 38.6432 98.2879 38.6432L98.1223 38.6984C98.0671 38.6432 98.0671 38.919 98.0671 39.5258C98.0671 39.8567 98.1775 40.0774 98.4535 40.1877L97.3496 64.8985L98.1223 65.3398C97.9015 65.8362 97.736 66.3326 97.736 66.829C97.7911 67.2151 97.8463 67.5461 97.9567 67.877C98.0671 68.208 98.2327 68.5389 98.5087 68.7596C98.7294 69.0353 99.0054 69.2008 99.3365 69.3663C99.6125 69.5318 99.9437 69.5869 100.33 69.5318C100.44 69.5869 100.606 69.5318 100.827 69.4766C101.047 69.4215 101.213 69.3663 101.434 69.3111C101.655 69.256 101.82 69.2008 102.041 69.1457C102.262 69.0905 102.427 69.0905 102.538 69.0905C102.703 69.0905 102.924 69.0905 103.31 69.1457C103.642 69.2008 104.028 69.256 104.414 69.3111C104.801 69.3663 105.132 69.4215 105.518 69.4766C105.849 69.5318 106.125 69.5318 106.401 69.5318C107.671 69.5869 108.498 69.1457 109.05 68.208L109.106 64.1814C109.106 63.4644 109.05 62.8576 108.995 62.1957C108.94 61.589 108.83 60.9823 108.774 60.3755C109.05 60.0997 109.216 59.8239 109.216 59.5482C109.216 59.4378 109.161 59.3275 109.106 59.1621C109.05 58.9966 108.94 58.8311 108.83 58.6656C108.719 58.5002 108.664 58.3347 108.554 58.1692C108.498 58.0037 108.443 57.8934 108.443 57.7831C108.443 57.4522 108.664 57.1764 109.106 56.9006C108.83 56.6248 108.664 56.1835 108.664 55.6871C108.664 55.5216 108.664 55.3561 108.719 55.1355C108.774 54.9149 108.83 54.6942 108.885 54.4736C108.94 54.253 108.995 54.0323 109.05 53.8669C109.106 53.6462 109.161 53.4808 109.161 53.3705C109.106 52.6534 108.664 52.157 107.781 51.826C107.947 51.7157 108.222 51.6606 108.554 51.6606C108.774 51.6606 109.05 51.6606 109.437 51.7157C109.823 51.7709 110.099 51.7709 110.32 51.7709C110.706 51.7709 111.037 51.6605 111.424 51.4951C112.803 51.9363 113.852 52.6534 114.514 53.5911C115.177 54.5288 115.453 55.7423 115.397 57.1764C115.453 57.3418 115.453 57.6176 115.453 57.9486C115.453 58.2795 115.453 58.7759 115.397 59.3275C115.342 59.8239 115.342 60.3204 115.342 60.7065C115.342 61.1477 115.342 61.4787 115.287 61.6993C115.342 65.3949 115.949 67.7116 117.108 68.7596C117.219 68.8147 117.384 68.8699 117.55 68.925C117.716 68.9802 117.881 69.0905 118.047 69.1457C118.212 69.2008 118.378 69.256 118.543 69.3111C118.709 69.3663 118.875 69.3663 118.985 69.3663C119.261 69.3663 119.482 69.256 119.702 69.0905L120.089 69.3663C120.53 69.1457 121.027 69.0353 121.524 69.0353C121.689 69.0353 121.91 69.0353 122.186 69.0905C122.462 69.1457 122.738 69.1457 123.069 69.2008C123.345 69.256 123.676 69.256 123.952 69.3111C124.228 69.3663 124.449 69.3663 124.615 69.4215C125.277 69.3663 125.884 69.1457 126.381 68.7596C126.657 68.2631 126.822 67.7667 126.822 67.16C126.546 66.829 126.491 66.4429 126.381 66.0017ZM118.875 31.8588V32.4655L118.599 31.8588H118.875ZM117.55 40.8496L117.936 41.1254L117.55 41.4563L117.274 41.1254L117.55 40.8496ZM114.294 31.2521V31.5278L113.907 31.2521H114.294ZM111.258 31.4175H111.755V31.8588H111.258V31.4175ZM111.589 33.4584C112.031 33.4032 112.472 33.4584 112.859 33.6239C113.3 33.7893 113.631 34.01 113.962 34.2306C114.294 34.5064 114.57 34.7822 114.79 35.1683C115.011 35.5544 115.177 35.9405 115.287 36.3818C115.453 37.5401 115.563 38.5881 115.563 39.5258C115.563 40.4635 115.563 41.2908 115.508 42.0079C115.673 41.9527 115.784 41.8976 115.894 41.8424C116.005 41.7873 116.06 41.7873 116.06 41.7873H116.17L116.832 42.394C116.612 42.6146 116.446 42.7249 116.336 42.7249H116.17L115.232 41.7873C114.735 42.2837 114.514 42.6146 114.514 42.7801V42.8353C114.514 42.8904 114.514 42.9456 114.57 43.0007L115.618 43.6075L115.232 43.9384C114.901 43.6626 114.514 43.4972 114.018 43.4972C113.852 43.4972 113.631 43.5523 113.3 43.6075C113.024 43.6626 112.693 43.7729 112.362 43.8281C112.031 43.9384 111.755 43.9936 111.424 44.1039C111.148 44.2142 110.872 44.2142 110.651 44.2142C109.547 44.1591 108.885 43.3317 108.609 41.7873C108.609 41.6218 108.609 41.2908 108.554 40.6841C108.554 40.0774 108.554 39.25 108.609 38.2571C108.554 37.5401 108.498 36.9885 108.443 36.4369C108.388 35.9405 108.333 35.4992 108.222 35.1131C108.995 34.01 110.044 33.4584 111.589 33.4584ZM109.657 45.4277C109.657 45.4828 109.547 45.6483 109.271 45.9241H109.161C108.774 45.9241 108.609 45.7035 108.609 45.2071V45.0416L108.995 44.9864C109.437 44.9864 109.657 45.1519 109.657 45.4277ZM107.671 29.7076C108.057 29.7076 108.388 29.8179 108.609 30.0386C108.498 30.2592 108.222 30.3695 107.891 30.3695C107.505 30.3695 107.229 30.3695 107.063 30.3695C106.898 30.3695 106.898 30.3695 107.008 30.3144L106.622 30.0386C106.898 29.8179 107.229 29.7076 107.671 29.7076ZM107.671 43.5523C107.891 43.6626 108.002 43.8833 107.947 44.159V44.49L107.671 44.7658C107.45 44.6555 107.284 44.4348 107.284 44.159C107.339 43.8281 107.45 43.6626 107.671 43.5523ZM107.339 37.2643V36.823H107.836V37.2643H107.339ZM108.002 47.1376L108.388 47.4134L108.002 47.7443L107.726 47.4134L108.002 47.1376ZM106.291 39.6361C106.567 39.6361 106.787 39.7464 107.008 39.9119C106.953 40.0222 106.787 40.0774 106.622 40.1325C106.456 40.1877 106.236 40.1877 106.015 40.1877C105.794 40.1877 105.573 40.2428 105.408 40.2428C105.242 40.298 105.077 40.3531 105.021 40.4635C105.242 39.967 105.628 39.6361 106.291 39.6361ZM105.684 46.5308C105.739 46.3102 105.904 46.1999 106.291 46.1999H106.677L106.015 46.8066L105.684 46.5308ZM107.008 53.4256L105.96 54.3633C105.739 54.253 105.684 54.0875 105.684 53.8669C105.684 53.7014 105.794 53.5359 105.96 53.4256H107.008ZM105.684 38.6432V38.7536C105.408 38.9742 105.242 39.0845 105.132 39.0845H105.021L104.635 38.7536L105.297 38.1468C105.573 38.4226 105.684 38.5881 105.684 38.6432ZM104.359 35.1131H104.635L104.359 35.4441V35.1131ZM104.193 42.0079C104.414 42.0079 104.58 42.1182 104.69 42.3388C104.359 42.5595 104.193 42.6698 104.138 42.6698H104.028L103.752 42.3388C103.752 42.1182 103.917 42.0079 104.193 42.0079ZM104.359 49.8403L103.973 50.1713V49.8403H104.359ZM104.028 45.3174V45.5932L103.366 45.3174H104.028ZM102.372 36.2163H102.869V36.6575H102.372V36.2163ZM101.986 46.5308H102.151C102.427 46.5308 102.593 46.6412 102.703 46.8066L102.427 47.1376L101.765 46.5308H101.986ZM100.496 44.7658H100.385L99.9988 44.49C100.109 44.2694 100.275 44.159 100.551 44.159C100.772 44.159 100.937 44.2694 101.047 44.49L100.496 44.7658ZM101.268 60.3755H100.716V59.8791H101.268V60.3755ZM100.716 55.8526H101.103V56.1835L100.716 55.8526ZM101.047 54.3633L100.661 54.0323C100.882 53.8117 101.268 53.7014 101.71 53.7014C102.151 53.7014 102.482 53.8117 102.648 54.0323C102.538 54.253 102.317 54.3633 101.986 54.3633H101.047ZM102.041 61.8096H102.427V62.0854L102.041 61.8096ZM102.703 63.9056L102.427 63.6299H102.703V63.9056ZM102.869 57.6176H102.372V57.1764H102.869V57.6176ZM102.482 48.9578H101.71L101.323 48.6269C101.544 48.4062 101.82 48.2959 102.151 48.2959C102.538 48.2959 102.814 48.4062 102.979 48.6269C102.979 48.8475 102.758 48.9578 102.482 48.9578ZM104.359 52.2121L103.034 51.3296C103.09 51.3848 103.2 51.3848 103.31 51.4399C103.476 51.4951 103.642 51.4951 103.807 51.5502C103.973 51.6054 104.138 51.6054 104.304 51.6606C104.469 51.7157 104.58 51.7709 104.635 51.8812L104.359 52.2121ZM105.463 55.7422C105.187 55.9077 105.021 56.0732 105.021 56.1284L104.635 55.7974L105.684 55.1907V55.3561C105.684 55.5216 105.628 55.6319 105.463 55.7422ZM107.063 60.7065C106.953 60.7616 106.843 60.8719 106.787 60.9271C106.677 60.9823 106.567 61.0374 106.456 61.0926C106.346 61.1477 106.236 61.1477 106.236 61.1477C106.015 61.1477 105.849 61.0374 105.739 60.872V60.7616C105.684 60.3755 105.904 60.2101 106.401 60.2101C106.843 60.2101 107.174 60.3204 107.339 60.541C107.229 60.6513 107.119 60.6513 107.063 60.7065ZM108.167 53.5911V54.0323H107.671V53.5911H108.167ZM108.664 48.8475C108.278 49.013 108.002 49.1233 107.726 49.1784C107.45 49.2888 107.229 49.2888 107.008 49.2888C106.898 49.2888 106.787 49.2888 106.677 49.2888C106.567 49.2888 106.512 49.2336 106.401 49.2336C107.229 49.0681 107.891 48.8475 108.498 48.5717C109.106 48.2959 109.602 47.8546 110.044 47.3582C110.265 47.6892 110.43 47.8546 110.43 47.9098V48.0201C110.099 48.0201 109.492 48.2959 108.664 48.8475ZM111.81 50.5574C111.479 50.778 111.203 50.9435 110.982 50.9987L110.32 50.3919C110.706 50.0058 111.368 49.7852 112.307 49.7852H112.527H112.969C112.527 50.1161 112.141 50.3368 111.81 50.5574ZM110.982 48.3511H111.203H111.368C111.644 48.3511 111.81 48.4614 111.92 48.6269L111.644 48.9578L110.982 48.3511ZM113.3 46.5308C113.135 46.5308 112.859 46.5308 112.472 46.4757C112.086 46.4205 111.81 46.4205 111.644 46.4205C111.313 46.4205 111.092 46.4757 110.927 46.586L110.541 46.2551C111.203 46.0896 111.81 45.9793 112.252 45.9241C112.693 45.8138 113.024 45.7586 113.19 45.7035H113.962C114.238 45.7035 114.404 45.8138 114.514 46.0344C114.294 46.3102 113.907 46.5308 113.3 46.5308ZM115.232 47.4685H115.177C115.122 47.4685 115.011 47.4685 114.956 47.4134C115.011 46.8066 115.342 46.5308 116.005 46.5308C116.115 46.5308 116.225 46.5308 116.336 46.586C116.446 46.6412 116.501 46.6963 116.612 46.8066C116.557 46.8066 116.501 46.8618 116.391 46.917C116.281 46.9721 116.17 47.0824 116.005 47.1376C115.839 47.2479 115.729 47.3031 115.618 47.3582C115.508 47.4134 115.342 47.4685 115.232 47.4685ZM116.115 49.9506V50.3919H115.618V49.9506H116.115ZM116.005 54.9149H115.894L115.618 54.5839C115.673 54.3633 115.839 54.253 116.115 54.253C116.391 54.253 116.557 54.3633 116.612 54.5839C116.225 54.8046 116.06 54.9149 116.005 54.9149ZM116.888 51.9363L116.225 51.3296L116.336 51.2744C116.446 51.2744 116.612 51.3848 116.888 51.6054V51.9363ZM117.771 46.4205C117.66 46.4757 117.55 46.4757 117.495 46.4757C117.274 46.4757 117.053 46.3654 116.888 46.1447C117.053 45.7586 117.44 45.538 118.047 45.538C118.433 45.538 118.709 45.6483 118.875 45.869C118.819 45.869 118.709 45.9241 118.599 45.9793C118.488 46.0344 118.323 46.1447 118.212 46.1999C118.047 46.3102 117.881 46.3654 117.771 46.4205ZM118.212 48.6269L118.599 48.9578L118.212 49.2336L117.936 48.9578L118.212 48.6269ZM118.543 51.9363L118.157 51.6054C118.433 51.3848 118.654 51.2744 118.764 51.2744L118.819 51.3296L118.875 51.4399C118.93 51.4951 118.819 51.6606 118.543 51.9363ZM118.875 38.6984L118.764 38.7536C118.709 38.7536 118.599 38.7536 118.488 38.6984C118.378 38.6432 118.323 38.5881 118.212 38.4778C118.157 38.3675 118.047 38.3123 118.047 38.2571C117.992 38.202 117.992 38.1468 117.936 38.1468L118.212 37.871C118.378 37.9813 118.488 38.0917 118.599 38.1468C118.654 38.202 118.764 38.3123 118.819 38.4226C118.875 38.5329 118.93 38.6432 118.93 38.6984H118.875ZM121.358 35.1131H120.806V34.6719H121.358V35.1131Z" fill="white"/>
<path d="M99.917 27.1591C100.084 27.0292 100.252 26.8344 100.419 26.6396C100.587 26.3798 100.754 26.1201 100.922 25.8604C100.419 25.9253 99.9728 26.0552 99.582 26.185C99.582 26.3149 99.582 26.4448 99.582 26.5097C99.582 26.7045 99.6378 26.8993 99.6937 27.0292C99.7495 27.224 99.8053 27.224 99.917 27.1591Z" fill="white"/>
<path d="M156.295 66.2486C156.184 67.3506 155.961 68.0669 155.683 68.4526C155.239 69.1689 154.572 69.5546 153.683 69.5546C153.293 69.5546 152.904 69.5546 152.404 69.4995C151.904 69.4444 151.293 69.4444 150.57 69.3893C149.125 69.2791 148.013 69.224 147.291 69.224L144.067 69.2791C143.678 69.3342 143.233 69.3342 142.733 69.2791C142.233 69.224 141.622 69.224 140.899 69.1689C140.177 69.1138 139.565 69.0587 139.009 69.0036C138.509 68.9485 138.065 68.9485 137.731 68.8934C137.509 68.8934 137.175 68.9485 136.842 69.0036C136.453 69.0587 136.119 69.1138 135.73 69.1689C135.341 69.224 134.952 69.2791 134.619 69.3342C134.23 69.3893 133.952 69.3893 133.729 69.3893C132.951 69.3893 132.229 69.224 131.617 68.8934C130.784 68.5077 130.395 68.0118 130.395 67.3506C130.395 67.1853 130.45 67.02 130.617 66.7445C130.784 66.469 130.839 66.3037 130.839 66.1384C130.839 66.0833 130.784 66.0282 130.728 65.9731C130.672 65.918 130.561 65.918 130.45 65.9731C130.561 59.6366 130.728 53.3552 130.95 47.184C131.061 47.1289 131.117 46.6881 131.117 45.8616C131.117 45.0351 131.061 43.8229 130.95 42.225C130.895 40.6271 130.784 38.6435 130.672 36.2191C130.561 33.7947 130.506 30.9846 130.45 27.7338L132.784 25.8604L149.347 26.2461C149.458 26.2461 149.625 26.2461 149.903 26.191C150.125 26.1359 150.403 26.1359 150.681 26.0808C150.959 26.0257 151.181 26.0257 151.459 25.9706C151.737 25.9155 151.96 25.9155 152.071 25.9155C153.182 25.9155 153.905 26.0257 154.349 26.2461C155.239 26.742 155.739 27.9542 155.795 29.8827C155.739 31.2601 155.461 32.7478 154.961 34.2906L153.405 35.1171L144.679 34.8967C144.623 34.8967 144.512 34.8967 144.345 34.8416C144.178 34.7865 144.067 34.7865 144.012 34.7865C143.511 34.7865 142.956 35.1171 142.511 35.8334C142.289 36.2191 142.122 36.4946 141.9 36.6599C141.677 36.8252 141.511 36.9905 141.344 37.0456C141.455 37.2109 141.511 37.4313 141.511 37.7068C141.511 38.0374 141.511 38.3129 141.455 38.6435C141.455 38.9741 141.455 39.2496 141.455 39.5802C141.455 39.9108 141.566 40.1312 141.677 40.2965C141.233 40.4618 140.788 40.572 140.399 40.7373C139.899 40.9026 139.565 41.123 139.287 41.5087C139.51 41.9495 139.899 42.1699 140.566 42.1699C141.066 42.1699 141.511 42.0597 141.955 41.8393C141.9 41.8944 141.9 41.8944 141.9 41.9495C141.9 42.0046 141.9 42.0046 141.9 42.0597C141.9 42.1699 141.955 42.2801 142.066 42.4454C142.177 42.6107 142.344 42.776 142.511 42.9964L151.96 43.0515C152.404 43.327 152.738 43.6576 152.96 43.9882C153.182 44.3188 153.293 44.6494 153.293 44.9249C153.293 45.2004 153.182 45.4759 152.904 45.7514C153.071 46.633 153.182 47.3493 153.238 47.8452C153.293 48.3411 153.349 48.6717 153.349 48.7819C153.405 49.388 153.293 49.8839 153.127 50.3247C152.904 50.7655 152.682 51.1512 152.404 51.4818L142.678 52.0328C142.567 52.143 142.4 52.1981 142.233 52.1981C142.066 52.1981 141.844 52.143 141.566 52.0328C141.288 51.9226 141.066 51.8675 140.899 51.8675C140.621 51.8675 140.454 52.143 140.343 52.694L141.01 53.3001C141.066 53.0797 141.233 52.9695 141.622 52.9695H142.011C141.844 53.3001 141.733 53.7409 141.622 54.2368C141.677 54.4572 141.677 54.6776 141.677 54.9531C141.677 55.1184 141.677 55.3388 141.677 55.6143V56C141.622 55.9449 141.511 55.9449 141.511 55.9449C141.455 55.9449 141.455 55.9449 141.399 55.9449C141.177 55.9449 140.844 56.1653 140.343 56.6061C140.399 56.7163 140.51 56.8265 140.621 56.8816C140.788 56.9918 140.955 57.0469 141.121 57.1571C141.288 57.2673 141.399 57.3224 141.566 57.4326C141.677 57.5428 141.733 57.5979 141.733 57.7081C141.733 57.7632 141.733 57.7632 141.733 57.8183C141.733 57.8734 141.733 57.9836 141.677 58.0387L140.621 58.9754C141.121 59.2509 141.566 59.5264 141.955 59.857C142.344 60.1876 142.678 60.5733 143.011 60.959C143.4 61.1243 143.789 61.1794 144.29 61.2345C144.79 61.2896 145.29 61.2896 145.846 61.2896C146.124 61.3447 146.513 61.2896 147.013 61.2345C147.513 61.1794 148.125 61.1243 148.791 61.0141C149.458 60.9039 150.07 60.8488 150.626 60.7937C151.181 60.7386 151.626 60.7386 151.904 60.7937C152.182 60.7937 152.46 60.7937 152.738 60.7937C153.016 60.7937 153.293 60.8488 153.516 60.8488C153.683 60.6284 153.849 60.5182 154.072 60.5182C154.183 60.5182 154.349 60.5182 154.461 60.5733C154.627 60.6284 154.739 60.6835 154.85 60.7937C154.961 60.9039 155.072 60.959 155.239 61.0141C155.35 61.0692 155.461 61.1243 155.517 61.1243C155.961 61.6202 156.184 62.1712 156.128 62.8875C156.128 63.0528 156.128 63.2181 156.072 63.3834C156.072 63.6038 156.017 63.7691 156.017 63.9895C156.017 64.2099 156.017 64.4303 155.961 64.5956C155.961 64.816 155.906 64.9813 155.906 65.0915C155.906 65.5323 155.961 65.8629 156.072 66.1384H156.295V66.2486ZM133.285 33.2988H132.784V33.7396H133.285V33.2988ZM134.785 55.9449C134.785 55.6694 134.563 55.5041 134.174 55.5041C133.674 55.5041 133.34 55.7245 133.062 56.1653C133.229 56.3306 133.451 56.4408 133.674 56.4408H134.396C134.674 56.1102 134.785 55.9449 134.785 55.9449ZM133.618 63.4385H133.062V63.8793H133.618V63.4385ZM133.729 48.9472L133.451 49.5533L134.118 48.9472H133.729ZM136.119 43.5474L135.452 44.4841L136.397 43.878L136.119 43.5474ZM137.731 48.0656C137.064 47.5697 136.397 47.3493 135.73 47.4044L135.452 47.4595C135.508 47.5146 135.619 47.5697 135.786 47.6248C135.953 47.6799 136.064 47.7901 136.286 47.8452C136.453 47.9554 136.619 48.0105 136.786 48.1207C136.953 48.2309 137.064 48.2309 137.231 48.2309C137.398 48.286 137.564 48.2309 137.731 48.0656ZM135.953 49.1125H135.452V49.5533H135.953V49.1125ZM136.397 52.5287C136.175 52.5838 136.008 52.694 136.008 52.9695C136.008 53.245 136.119 53.3552 136.397 53.4103H136.842C137.064 53.4103 137.286 53.3001 137.453 53.1348L136.397 52.5287ZM136.786 40.7924C136.786 40.7373 136.675 40.572 136.397 40.2965L136.119 40.6271C136.397 40.8475 136.564 40.9577 136.675 40.9577L136.786 40.9026V40.7924ZM136.619 57.7632H136.119V58.204H136.619V57.7632ZM137.453 42.9964L137.286 42.9413C137.231 42.9413 137.064 43.0515 136.786 43.2719L137.064 43.5474C137.342 43.327 137.453 43.1617 137.453 42.9964ZM137.286 64.6507H136.786V65.0915H137.286V64.6507ZM137.731 36.1089H137.453L138.065 36.3844L137.731 36.1089ZM138.12 64.0997C138.12 63.9895 138.009 63.8242 137.731 63.5487L137.453 63.8793C137.675 64.0997 137.898 64.2099 138.009 64.2099L138.065 64.1548L138.12 64.0997ZM140.065 45.0902C140.01 45.0351 139.843 45.0351 139.621 45.0351C139.287 45.0351 138.676 45.2555 137.731 45.6963L138.398 46.3024C138.565 46.2473 138.732 46.1371 138.898 46.082C139.065 46.0269 139.232 45.9167 139.398 45.8616C139.565 45.7514 139.676 45.6412 139.843 45.531C140.01 45.3657 140.065 45.2004 140.065 45.0902ZM138.732 58.204C138.787 57.9285 138.454 57.7632 137.787 57.5979V57.653C137.787 58.0387 138.009 58.204 138.509 58.204H138.732ZM138.62 37.4313H138.065V37.8721H138.62V37.4313ZM138.398 41.2332L138.009 41.5087L138.398 41.8393L138.676 41.5087L138.398 41.2332ZM138.732 43.5474L138.454 43.878L138.732 44.1535L139.121 43.878L138.732 43.5474ZM140.065 67.5159C139.788 67.2955 139.621 67.1853 139.51 67.1853H139.398L139.788 67.7914L140.065 67.5159ZM140.732 33.7396C140.677 33.5192 140.51 33.409 140.232 33.409C139.954 33.409 139.788 33.5192 139.732 33.7396L140.01 34.0151L140.177 34.0702L140.732 33.7396ZM140.065 36.9905L139.788 37.5966H139.899C139.954 37.5966 140.121 37.4864 140.454 37.266L140.065 36.9905ZM140.399 48.3411C140.065 48.1207 139.899 48.0105 139.843 48.0105L139.732 48.0656L140.399 48.6717V48.3411ZM140.732 60.6284H140.454L140.732 60.9039V60.6284ZM141.177 31.1499H140.677V31.5907H141.177V31.1499ZM141.066 49.8288L140.677 50.4349L140.788 50.49C140.844 50.49 141.066 50.3798 141.344 50.1594L141.066 49.8288ZM142.4 63.8793C142.289 63.6589 142.066 63.5487 141.733 63.5487H141.344L142.011 64.1548L142.4 63.8793ZM142.511 32.3621H142.011V32.8029H142.511V32.3621ZM142.733 61.51L142.455 62.1161H142.511C142.622 62.1161 142.789 62.1712 142.956 62.2814C143.122 62.3916 143.289 62.4467 143.345 62.4467C143.511 62.4467 143.623 62.3365 143.789 62.1161L142.733 61.51ZM143.4 49.8288L143.122 50.1594L143.4 50.4349L143.789 50.1594L143.4 49.8288ZM144.067 46.8534H143.789L144.067 47.1289V46.8534ZM146.012 33.409H145.623L146.012 33.7396V33.409ZM146.012 46.5228L145.623 46.8534L146.012 47.1289L146.29 46.8534L146.012 46.5228ZM146.235 62.2263H145.679V62.6671H146.235V62.2263ZM148.847 29.9377H148.347V30.3785H148.847V29.9377Z" fill="white"/>
<path d="M187.999 29.6071C187.944 29.4418 187.944 29.7173 187.888 30.3234C187.833 30.9846 187.778 32.0315 187.667 33.5743C187.167 34.3457 186.39 34.7314 185.502 34.7314C185.336 34.7314 185.114 34.7314 184.836 34.6763C184.559 34.6212 184.281 34.6212 183.948 34.5661C183.671 34.511 183.338 34.511 183.061 34.4559C182.783 34.4008 182.561 34.4008 182.339 34.4559C181.451 34.4008 180.73 34.6763 180.119 35.2824C179.509 35.8885 179.12 36.7701 178.843 38.0374C179.065 38.1476 179.231 38.368 179.231 38.6435L179.176 38.9741L178.565 39.5802C178.787 39.8557 178.898 40.1312 179.009 40.5169C179.12 40.9026 179.176 41.3434 179.231 41.7842C179.231 42.1148 179.176 42.5005 179.12 42.9413C179.065 43.3821 178.954 43.8229 178.843 44.3188C178.954 44.6494 179.065 45.0351 179.12 45.4208C179.176 45.8065 179.231 46.2473 179.231 46.6881C179.231 46.7983 179.231 46.9636 179.176 47.184C179.12 47.4044 179.12 47.6799 179.065 47.9003C179.009 48.1207 179.009 48.3962 178.954 48.6166C178.954 48.837 178.954 49.0023 179.009 49.1125L179.564 67.0751C179.342 67.2955 179.12 67.5159 179.009 67.7363C178.898 67.9567 178.787 68.1771 178.732 68.3424C178.676 68.5628 178.565 68.7281 178.51 68.8383C178.454 69.0036 178.343 69.0587 178.232 69.1138C178.066 69.224 177.789 69.2791 177.456 69.2791C177.067 69.2791 176.623 69.2791 176.068 69.2791C175.846 69.3342 175.513 69.3342 175.18 69.3893C174.847 69.3893 174.459 69.4444 174.126 69.4995C173.737 69.5546 173.404 69.5546 173.072 69.5546C172.739 69.5546 172.461 69.5546 172.295 69.5546C170.519 69.4995 169.187 69.1138 168.355 68.3975L168.299 62.2814C168.355 61.4549 168.354 60.6835 168.41 60.0223C168.41 59.3611 168.465 58.6999 168.465 58.1489C168.576 57.2673 168.687 56.6612 168.687 56.3306C168.743 56 168.798 55.9449 168.909 56.2204C168.854 53.8511 168.798 51.8124 168.743 49.9941C168.687 48.2309 168.576 46.6881 168.521 45.4759C168.465 44.2637 168.41 43.2719 168.355 42.5556C168.299 41.8393 168.299 41.3985 168.355 41.2332C168.355 40.4618 168.465 39.9108 168.743 39.5802C168.521 39.0843 168.355 38.5884 168.355 37.9272C168.355 37.2109 168.465 36.715 168.743 36.3293C168.077 35.4477 167.078 34.8416 165.746 34.6212C165.635 34.6763 165.247 34.6763 164.636 34.6212C164.026 34.5661 163.138 34.5661 161.973 34.511L161.196 34.4008C160.641 34.1804 160.197 33.8498 159.864 33.3539C159.531 32.858 159.42 32.2519 159.42 31.4254C159.475 31.1499 159.475 30.8744 159.475 30.4887C159.475 30.103 159.531 29.7173 159.586 29.2765C159.642 28.7806 159.753 28.3398 159.753 28.0092C159.808 27.6786 159.808 27.4031 159.808 27.1827C159.808 26.6868 160.086 26.4114 160.696 26.2461C161.584 26.0257 162.028 25.9155 162.084 25.8604L181.784 26.191C181.895 26.191 182.117 26.191 182.339 26.1359C182.617 26.0808 182.894 26.0808 183.171 26.0257C183.449 25.9706 183.726 25.9155 184.004 25.9155C184.281 25.8604 184.503 25.8604 184.67 25.8604C185.78 25.9155 186.668 26.0808 187.334 26.4665C187.556 26.9623 187.667 27.4582 187.778 28.0092C187.889 28.45 187.999 29.001 187.999 29.6071ZM170.63 35.062C170.408 34.6763 170.075 34.4559 169.575 34.4559C169.187 34.4559 168.909 34.5661 168.687 34.7865C168.743 34.7865 168.854 34.7865 168.965 34.8416C169.076 34.8967 169.242 34.9518 169.353 35.062C169.52 35.1722 169.631 35.2273 169.742 35.2824C169.853 35.3375 169.964 35.3375 170.019 35.3375C170.241 35.3926 170.408 35.2824 170.63 35.062ZM170.019 37.4313C169.742 37.2109 169.575 37.1007 169.464 37.1007C169.131 37.1007 168.965 37.266 168.965 37.5415C168.965 37.7619 169.076 37.9272 169.353 37.9823L170.019 37.4313ZM169.631 40.6822L169.353 41.2883L169.409 41.3434C169.52 41.3434 169.742 41.2332 170.019 41.0128L169.631 40.6822ZM170.63 51.3716L170.352 51.6471L170.63 51.9226L171.018 51.6471L170.63 51.3716ZM171.962 38.3129C171.906 38.0925 171.74 37.9823 171.462 37.9823C171.185 37.9823 171.018 38.0925 170.963 38.3129L171.24 38.5884L171.351 38.6435C171.462 38.6435 171.629 38.5333 171.962 38.3129ZM171.462 42.6107H170.963V43.0515H171.462V42.6107ZM171.962 34.0702C171.962 34.0151 171.906 33.96 171.851 33.9049C171.795 33.8498 171.74 33.7396 171.629 33.5743L171.24 33.9049C171.573 34.0702 171.74 34.1804 171.795 34.1804H171.906V34.0702H171.962ZM171.962 60.1325C171.962 60.0774 171.906 60.0223 171.851 59.9672C171.795 59.857 171.74 59.8019 171.629 59.6917L171.24 59.9672C171.518 60.1876 171.684 60.2978 171.795 60.2978L171.962 60.1325ZM172.128 49.9941H171.629V50.4349H172.128V49.9941ZM176.512 32.6927C176.235 32.4172 175.957 32.307 175.68 32.307C175.569 32.307 175.402 32.3621 175.236 32.4172C175.069 32.4723 174.847 32.5825 174.681 32.6927C174.514 32.8029 174.348 32.9131 174.181 32.9682C174.015 33.0233 173.904 33.0784 173.737 33.0784C173.46 33.0784 173.183 32.9682 172.905 32.6927C173.072 33.2988 173.349 33.5743 173.793 33.5743C173.904 33.5743 174.07 33.5192 174.292 33.4641C174.514 33.3539 174.736 33.2988 175.014 33.1886C175.236 33.0784 175.513 32.9682 175.735 32.858C175.957 32.7478 176.124 32.6927 176.29 32.6927C176.346 32.6927 176.346 32.6927 176.401 32.6927C176.457 32.6376 176.512 32.6927 176.512 32.6927ZM174.903 30.654L174.625 30.9295L174.903 31.2601L175.18 30.9295L174.903 30.654ZM175.569 34.4559H175.18L175.569 34.7865V34.4559ZM175.846 44.8147C175.68 44.7045 175.569 44.6494 175.513 44.5943C175.458 44.5392 175.402 44.5392 175.347 44.5392H175.18L175.569 45.1453L175.846 44.8147ZM175.846 35.9987H175.569L176.235 36.2742L175.846 35.9987ZM177.178 59.9121C176.568 59.9121 176.235 59.8019 176.235 59.6366L175.846 59.9121C175.902 60.1325 176.068 60.2427 176.401 60.2427C176.956 60.2427 177.234 60.2427 177.178 60.1876V59.9121ZM177.511 33.2988L177.9 33.5743C178.288 33.2988 178.732 32.8029 179.176 32.0866L177.511 33.2988ZM183.116 32.6927C182.894 32.4723 182.672 32.3621 182.45 32.3621C182.173 32.3621 181.84 32.5274 181.562 32.858C181.34 33.0784 181.174 33.2437 181.063 33.3539C180.952 33.4641 180.896 33.5192 180.841 33.5743C180.952 33.1886 181.285 32.9682 181.784 32.9682C182.45 32.9682 182.894 32.858 183.116 32.6927Z" fill="white"/>
</g>
<g filter="url(#filter1_d_330_4514)">
<path d="M77.153 4.04753C77.042 3.99239 76.9865 3.99239 76.931 3.99239C74.9887 3.93724 73.1019 4.04753 71.2705 4.48872C70.1051 4.76446 68.9952 5.26079 67.9963 6.03287C67.6078 6.30861 67.2748 6.63949 67.0528 7.02553C66.7199 7.46672 66.5534 7.9079 66.6644 8.45938C66.7199 8.67997 66.4979 8.95572 66.3314 8.84542C66.2204 8.79027 66.1094 8.79027 65.9984 8.79027C65.6655 8.67998 65.388 8.51453 65.1105 8.23879C64.9995 8.12849 64.8885 8.0182 64.7775 7.9079C64.4446 7.57701 64.2226 7.13583 64.3336 6.63949C64.4446 5.97772 64.722 5.42624 65.166 4.9299C66.1094 3.88209 67.2193 3.11002 68.6067 2.66883C69.6611 2.28279 70.771 2.0622 71.881 1.95191C73.4903 1.73131 75.0997 1.67616 76.7091 1.78646C78.2074 1.89676 79.7058 2.22765 81.1487 2.55853C82.7581 2.94457 84.312 3.05487 85.9768 2.88942C86.8093 2.83428 87.6417 2.61368 88.4186 2.22765C88.9181 1.95191 89.362 1.56587 89.6395 1.12468C89.806 0.904091 89.917 0.683499 90.028 0.462906C90.139 0.297462 90.25 0.187166 90.4165 0.0768697C90.583 -0.0334265 90.7494 -0.0334265 90.9159 0.132018C91.0269 0.187166 91.1379 0.187166 91.1934 0.297462C91.5264 0.683499 91.8593 1.01439 91.9703 1.51072C92.0258 1.84161 91.9703 2.22765 91.8039 2.50339C91.6374 2.83428 91.4709 3.16516 91.2489 3.4409C90.9714 3.82694 90.583 4.15783 90.0835 4.43357C89.362 4.81961 88.5296 5.0402 87.6972 5.1505C86.0878 5.37109 84.4784 5.31594 82.8691 4.98505C82.0366 4.81961 81.2042 4.65416 80.3718 4.43357C80.0943 4.37842 80.0943 4.37842 79.9833 4.65416C79.4838 5.59168 79.0954 6.5292 78.6514 7.52186C77.93 9.06601 77.153 10.6102 76.2651 12.0992C75.5437 13.3124 74.9887 14.636 74.3783 15.8492C73.7123 17.2279 73.1574 18.6066 72.4914 19.9853C72.1029 20.9229 71.659 21.8052 71.1595 22.6876C71.0485 22.9633 70.8265 23.1839 70.6601 23.4597C70.3271 23.956 69.8276 24.1214 69.2727 24.0663C69.0507 24.0663 68.7732 24.0663 68.6067 23.9009C68.6067 23.9009 68.5512 23.9009 68.4957 23.9009C68.4402 23.956 68.3847 23.9009 68.2737 23.8457C68.0518 23.6803 67.9963 23.5148 68.0518 23.2942C68.2183 22.7427 68.4402 22.1913 68.6622 21.6949C69.1617 20.6471 69.6611 19.5993 70.1051 18.5515C70.3271 18.0552 70.5491 17.614 70.7155 17.1176C70.882 16.6765 71.104 16.2904 71.2705 15.8492C71.437 15.4632 71.659 15.0772 71.8255 14.636C72.4359 13.3124 73.0464 11.9889 73.7123 10.7756C74.7667 8.90057 75.6547 6.97038 76.5426 5.0402C76.8756 4.59901 76.9865 4.32327 77.153 4.04753Z" fill="white"/>
<path d="M84.9796 17.0156C85.1979 16.9602 85.3617 16.8495 85.4709 16.7387C86.2896 16.0739 86.9993 15.4091 87.7089 14.689C87.8181 14.5228 87.9818 14.4674 88.2002 14.4674C88.4185 14.4674 88.4731 14.5782 88.3639 14.7444C88.3093 14.7998 88.3093 14.8552 88.2547 14.9106C87.5451 15.7415 86.8901 16.5725 86.0713 17.2372C85.58 17.625 85.0342 17.902 84.4883 18.1236C84.3245 18.179 84.3245 18.2344 84.27 18.3451C83.8879 18.9545 83.3966 19.5085 82.8507 20.007C82.0865 20.7272 81.2131 21.0042 80.2306 20.9488C79.7939 20.9488 79.3572 20.838 78.9205 20.6164C78.5384 20.4502 78.2109 20.0624 78.0471 19.6747C77.7196 19.0099 77.665 18.2898 77.7196 17.5696C77.8288 16.6279 78.0471 15.6861 78.3746 14.7998C78.8659 13.6365 79.4118 12.5839 80.176 11.6422C80.5581 11.199 80.9402 10.7559 81.3769 10.3127C81.7044 9.98031 82.0865 9.70333 82.5778 9.53714C83.1236 9.31555 83.6149 9.31555 84.2154 9.48174C84.8704 9.64793 85.4163 9.98031 85.9075 10.4235C86.0167 10.5343 86.1259 10.6451 86.1805 10.7559C86.508 11.3652 86.6718 11.9746 86.5626 12.6947C86.3988 13.6365 86.2351 14.5228 85.7984 15.3537C85.4163 15.8523 85.2525 16.4617 84.9796 17.0156ZM81.0494 16.2401C80.9948 16.2401 80.9948 16.2401 80.9948 16.2955C80.6127 17.348 80.5581 18.4559 80.7764 19.5639C80.831 19.7855 80.831 19.7855 80.9948 19.6747L81.0494 19.6193C81.4315 19.2869 81.759 18.8991 82.0865 18.5113C82.2503 18.2898 82.414 18.1236 82.5778 17.8466C82.2503 17.6804 81.8682 17.5142 81.5952 17.2372C81.3223 16.9048 81.1585 16.6279 81.0494 16.2401ZM84.8158 11.199C84.7066 11.199 84.6521 11.2544 84.5975 11.3652C84.3245 11.6422 84.1062 11.9192 83.9424 12.307C83.7787 12.6947 83.6149 13.1379 83.4512 13.5257C83.2328 14.2458 83.1236 15.0214 83.2328 15.7969C83.2328 15.9631 83.2874 16.1847 83.342 16.3509C83.4512 16.3509 83.4512 16.2955 83.4512 16.2401C83.6149 15.8523 83.8333 15.5199 83.997 15.1322C84.27 14.4674 84.4883 13.7473 84.6521 13.0825C84.8158 12.5839 84.8158 12.1408 84.8158 11.6422C84.8158 11.476 84.8158 11.3098 84.8158 11.199Z" fill="white"/>
<path d="M94.1073 19.9316C94.1629 19.9316 94.2186 19.8758 94.2186 19.8758C94.3855 19.7084 94.5525 19.5411 94.7194 19.3738C95.9436 18.035 97.2791 16.8078 98.4476 15.5248C98.6702 15.3016 98.8928 15.0785 99.1154 14.8554C99.2823 14.688 99.5049 14.6323 99.7275 14.5765C99.8388 14.5765 99.9501 14.5765 100.006 14.688C100.061 14.7996 100.006 14.9112 99.9501 14.967C99.8944 15.0227 99.8388 15.0785 99.7831 15.1343C98.7815 16.2499 97.8356 17.3098 96.9452 18.4812C96.8339 18.5928 96.7783 18.7044 96.667 18.8159C96.1662 19.318 95.6654 19.7642 95.2202 20.2105C95.0533 20.3778 94.8307 20.5452 94.5525 20.6567C93.996 20.9357 93.4396 20.9914 92.8274 20.7683C92.6049 20.7125 92.4379 20.5452 92.3266 20.2663C92.1597 19.8758 92.1041 19.4295 92.1041 19.0391C92.1041 18.2023 92.271 17.4772 92.4936 16.6962C92.4936 16.6404 92.5492 16.5289 92.6049 16.4731C93.1057 15.5806 93.3839 14.5765 93.8847 13.684C93.9404 13.6282 93.996 13.5166 93.996 13.4608C93.8847 13.5166 93.7734 13.6282 93.7178 13.684C93.3283 14.0744 92.9944 14.5207 92.6605 14.967C92.6049 15.0785 92.4936 15.1343 92.4379 15.2459C91.6032 16.2499 90.8242 17.3656 90.0452 18.4255C89.4887 19.1506 88.9323 19.8758 88.3758 20.601C88.2089 20.7683 88.0419 20.8799 87.8193 20.9357C87.3185 20.9914 86.8734 20.9357 86.4282 20.6567C86.2056 20.5452 86.15 20.322 86.2056 20.0989C86.2613 19.5411 86.3726 18.9275 86.4838 18.3697C86.7064 17.4214 86.9847 16.5846 87.4298 15.6921C87.4855 15.5806 87.5411 15.469 87.6524 15.3574C87.7081 15.1901 87.8193 15.0785 87.8193 14.8554C87.8193 14.7996 87.875 14.688 87.9306 14.6323C88.2089 14.0744 88.4871 13.4608 88.821 12.903C89.0435 12.5125 89.3218 12.0663 89.5444 11.62C89.8226 11.1738 90.2121 10.7833 90.6016 10.3928C90.6573 10.337 90.7129 10.2813 90.7686 10.2813C90.9911 10.1697 91.1581 10.1139 91.4363 10.2255C91.8258 10.3928 92.1041 10.6159 92.271 10.9506C92.4379 11.1738 92.4936 11.4527 92.4379 11.6758C92.3823 11.9547 92.3266 12.2336 92.271 12.5125C92.271 12.5683 92.2153 12.6241 92.271 12.6799C92.3823 12.6799 92.3823 12.5683 92.4379 12.5683C92.9387 12.0105 93.4395 11.5085 93.996 11.118C94.3855 10.8391 94.7194 10.5044 94.9976 10.1139C95.3315 9.72343 95.4984 9.77921 95.8323 9.89078C96.4444 10.1139 97.0009 10.5044 97.3347 11.0622C97.6686 11.5642 97.6686 12.0663 97.5573 12.5683C97.446 13.0704 97.2234 13.5724 97.0565 14.0187C96.6113 15.0785 96.1662 16.0826 95.6654 17.0309C95.3315 17.6445 94.942 18.2023 94.6081 18.8159C94.4412 19.0948 94.2742 19.318 94.1629 19.5969C94.1073 19.7642 94.1073 19.82 94.1073 19.9316Z" fill="white"/>
<path d="M104.375 17.4806C104.32 17.5907 104.211 17.6458 104.156 17.7559C103.608 18.4165 102.951 19.0772 102.349 19.6277C102.185 19.7929 101.966 19.958 101.802 20.0681C101.09 20.5636 100.378 20.5086 99.6118 20.2333C99.4476 20.1783 99.2833 20.0681 99.1191 20.0131C98.7906 19.7929 98.5169 19.4626 98.4074 19.0772C98.2431 18.5817 98.1884 18.0862 98.1336 17.6458C98.1336 17.3705 98.1884 17.1503 98.2431 16.9301C98.5169 15.8841 98.8453 14.8931 99.2286 13.9022C99.5023 13.1314 99.8855 12.3607 100.378 11.645C100.597 11.3147 100.871 10.9843 101.09 10.654C101.145 10.599 101.199 10.5439 101.254 10.4889C101.583 10.1585 101.911 10.2136 102.294 10.4338C102.513 10.599 102.732 10.7641 102.951 10.9843C103.17 11.2596 103.28 11.5349 103.17 11.9202C103.006 12.5809 102.787 13.2415 102.459 13.9022C101.747 15.3336 101.254 16.82 100.98 18.3615C100.98 18.5267 100.871 18.7469 100.816 18.912C100.816 19.0221 100.762 19.0772 100.762 19.1873C100.926 19.1873 100.98 19.0772 101.035 19.0772C101.473 18.7469 101.856 18.3615 102.294 17.9211C103.225 17.0402 103.992 15.9942 104.758 15.0032C104.922 14.728 105.141 14.4527 105.306 14.2325C105.47 14.0123 105.579 13.737 105.634 13.5168C105.853 12.8562 106.072 12.1955 106.346 11.5899C106.346 11.5349 106.4 11.4798 106.4 11.4248C106.619 10.9843 106.674 10.9293 107.167 11.0394C107.331 11.0394 107.495 11.1495 107.66 11.2046C107.824 11.3147 107.988 11.4248 108.098 11.5349C108.481 11.7551 108.59 12.1405 108.59 12.5258C108.59 13.3516 108.481 14.1224 108.317 14.8931C108.262 15.1133 108.207 15.3886 108.152 15.6088C108.262 15.6088 108.317 15.5538 108.371 15.4987C108.864 15.1684 109.357 14.8931 109.795 14.6179C110.014 14.5078 110.288 14.4527 110.507 14.4527C110.616 14.4527 110.726 14.5078 110.726 14.6179C110.78 14.728 110.726 14.8381 110.616 14.8931C110.561 14.9482 110.452 15.0583 110.288 15.1133C109.466 15.6639 108.645 16.2695 107.879 16.8751C107.714 16.9852 107.66 17.0953 107.605 17.2604C106.948 19.2974 106.017 21.2243 104.922 23.041C104.375 23.9769 103.718 24.8027 103.006 25.5735C102.24 26.3993 101.309 26.9498 100.214 27.115C99.7213 27.2251 99.2833 27.2251 98.8453 27.115C98.6811 27.0599 98.5169 27.0599 98.4074 26.9498C97.9694 26.6746 97.7504 26.2892 97.8051 25.7937C97.8599 25.4083 97.9694 24.9679 98.1884 24.6376C98.5169 24.032 98.9001 23.4264 99.3928 22.9309C99.7761 22.4905 100.214 22.0501 100.597 21.7197C101.637 20.8389 102.623 19.8479 103.663 19.0221C103.827 18.912 103.937 18.7469 103.992 18.5817C104.101 18.2514 104.211 17.9211 104.32 17.5907C104.43 17.4806 104.43 17.4806 104.375 17.4806ZM103.225 20.5086C103.17 20.5086 103.116 20.5636 103.061 20.6187C102.021 21.5546 101.035 22.6006 100.159 23.7017C99.9403 24.032 99.7213 24.3623 99.5571 24.7477C99.4476 25.023 99.3381 25.3533 99.3381 25.6836C99.3381 25.8488 99.3928 26.0139 99.4476 26.124C99.5023 26.2341 99.5571 26.2341 99.6666 26.1791C99.8308 26.069 99.995 25.9038 100.159 25.7386C100.707 25.078 101.199 24.4174 101.637 23.6466C101.856 23.2612 102.021 22.9309 102.24 22.5455C102.568 21.94 102.897 21.2793 103.17 20.6187C103.225 20.6187 103.28 20.6187 103.225 20.5086Z" fill="white"/>
<path d="M110.87 4.45898C111.084 4.45898 111.351 4.56389 111.511 4.77371C111.779 5.03598 111.993 5.3507 112.046 5.71788C112.1 5.87524 112.1 5.98015 112.046 6.13752C111.993 6.6096 111.779 6.97678 111.458 7.29151C111.244 7.50132 110.977 7.71114 110.763 7.8685C110.602 7.97341 110.495 7.97341 110.335 8.02586C110.174 8.02586 110.014 7.97341 109.96 7.81605C109.907 7.71114 109.854 7.60623 109.854 7.50132C109.854 7.44887 109.854 7.34396 109.907 7.29151C109.96 7.1866 110.014 7.08169 110.121 7.02924C110.281 6.81942 110.442 6.66206 110.602 6.45224C110.656 6.39979 110.656 6.39979 110.656 6.39979C110.656 6.39979 110.656 6.34733 110.602 6.34733C110.442 6.18997 110.388 6.08506 110.281 5.87524C110.067 5.45561 110.121 5.03598 110.442 4.6688C110.495 4.61635 110.602 4.51144 110.709 4.51144C110.763 4.51144 110.816 4.51144 110.87 4.51144C110.816 4.45898 110.87 4.45898 110.87 4.45898Z" fill="white"/>
<path d="M115.519 18.1815C115.628 18.1815 115.683 18.0715 115.738 18.0165C116.23 17.5763 116.613 17.1362 117.051 16.641C117.325 16.3109 117.653 16.0359 117.927 15.7057C118.31 15.3206 118.802 14.8805 119.24 14.4403C119.349 14.3303 119.459 14.2203 119.623 14.1102C119.623 14.1102 119.678 14.0552 119.733 14.0552C119.842 14.0002 119.951 14.0002 120.061 14.0552C120.17 14.1653 120.116 14.2753 120.061 14.3853C120.061 14.4954 120.006 14.5504 119.951 14.6054C118.966 15.6507 118.091 16.7511 117.051 17.7414C116.504 18.2916 116.011 18.8417 115.464 19.3919C115.3 19.557 115.136 19.722 115.026 19.8871C114.643 20.4373 114.041 20.7123 113.439 20.9324C113.22 20.9874 112.947 20.9324 112.673 20.8774C112.345 20.8224 112.016 20.6573 111.743 20.5473C111.141 20.2172 110.539 19.8871 110.046 19.4469C109.389 18.7867 108.787 18.1265 108.568 17.1912C108.568 17.0262 108.514 16.9161 108.514 16.7511C108.514 16.586 108.568 16.531 108.787 16.421C108.951 16.366 109.116 16.421 109.335 16.421C109.663 16.531 110.046 16.641 110.374 16.8611C110.757 17.1362 111.141 17.4663 111.359 17.9064C111.469 18.1265 111.578 18.2916 111.743 18.5667C111.797 18.6767 111.852 18.6767 111.961 18.6217C112.126 18.5116 112.29 18.3466 112.454 18.1815C112.728 17.7964 112.892 17.3563 112.947 16.8611C113.001 16.2559 113.001 15.7057 112.947 15.1006C112.892 14.3853 112.892 13.6701 112.947 12.9549C113.001 11.6344 113.548 10.5891 114.479 9.76384C114.971 9.3237 115.464 9.04861 116.066 8.93858C116.285 8.88356 116.504 8.93858 116.723 9.04861C117.106 9.26868 117.434 9.54377 117.708 9.92889C117.927 10.259 118.146 10.5341 118.255 10.9192C118.31 11.2493 118.2 11.4144 117.872 11.4694C117.653 11.5244 117.489 11.5244 117.27 11.5794C116.121 11.9645 115.409 12.7898 115.245 14.0002C115.19 14.4954 115.245 14.9905 115.3 15.4307C115.354 16.0359 115.464 16.641 115.519 17.2462C115.573 17.5213 115.573 17.8514 115.519 18.1815Z" fill="white"/>
</g>
<defs>
<filter id="filter0_d_330_4514" x="0" y="25.8604" width="189" height="45.1406" filterUnits="userSpaceOnUse" color-interpolation-filters="sRGB">
<feFlood flood-opacity="0" result="BackgroundImageFix"/>
<feColorMatrix in="SourceAlpha" type="matrix" values="0 0 0 0 0 0 0 0 0 0 0 0 0 0 0 0 0 0 127 0" result="hardAlpha"/>
<feOffset dx="1" dy="1"/>
<feComposite in2="hardAlpha" operator="out"/>
<feColorMatrix type="matrix" values="0 0 0 0 0 0 0 0 0 0.211765 0 0 0 0 0.388235 0 0 0 1 0"/>
<feBlend mode="normal" in2="BackgroundImageFix" result="effect1_dropShadow_330_4514"/>
<feBlend mode="normal" in="SourceGraphic" in2="effect1_dropShadow_330_4514" result="shape"/>
</filter>
<filter id="filter1_d_330_4514" x="64.3047" y="0" width="56.8203" height="28.1973" filterUnits="userSpaceOnUse" color-interpolation-filters="sRGB">
<feFlood flood-opacity="0" result="BackgroundImageFix"/>
<feColorMatrix in="SourceAlpha" type="matrix" values="0 0 0 0 0 0 0 0 0 0 0 0 0 0 0 0 0 0 127 0" result="hardAlpha"/>
<feOffset dx="1" dy="1"/>
<feComposite in2="hardAlpha" operator="out"/>
<feColorMatrix type="matrix" values="0 0 0 0 0 0 0 0 0 0.211765 0 0 0 0 0.388235 0 0 0 1 0"/>
<feBlend mode="normal" in2="BackgroundImageFix" result="effect1_dropShadow_330_4514"/>
<feBlend mode="normal" in="SourceGraphic" in2="effect1_dropShadow_330_4514" result="shape"/>
</filter>
</defs>
</svg>
