<svg width="818" height="157" viewBox="0 0 818 157" fill="none" xmlns="http://www.w3.org/2000/svg">
<g clip-path="url(#clip0_330_4609)">
<path d="M5.33464 51.2329C4.61055 49.4707 4.61055 48.5895 5.576 47.121C6.30009 45.9462 7.02417 44.7714 7.98962 43.5965C8.47234 43.0091 8.47234 42.4217 8.23098 41.8343C7.74826 40.6595 7.26553 39.1909 6.78281 38.0161C6.30009 36.5476 5.81736 35.3727 6.30008 33.6105C7.26553 28.3238 6.05872 23.0371 4.85191 18.044C4.61055 16.5755 4.12783 15.107 3.6451 13.9321C3.16238 12.7573 3.6451 12.4636 4.36919 12.1699C6.54145 11.8762 8.95506 11.5825 11.1273 10.9951C14.7477 10.1139 18.1268 10.4077 21.7472 9.82024C22.7127 9.82024 23.4368 9.82024 24.4022 10.4077C25.8504 11.5825 27.5399 12.4636 29.2295 13.6384C30.1949 14.5196 31.1604 14.5196 32.1258 14.2258C34.2981 13.6384 36.4703 12.7573 38.8839 13.051C39.8494 13.051 40.8148 13.051 41.5389 13.3447C43.7112 13.9321 45.8834 13.6384 48.0557 12.7573C51.4347 11.5825 54.5725 11.8762 57.9515 12.7573C58.917 13.051 59.641 13.051 60.6065 12.4636C62.5374 11.2888 64.7096 10.4077 66.6405 9.23283C67.1233 8.93912 67.606 8.93912 68.0887 9.23283C69.7783 10.4077 71.7091 11.5825 73.3987 12.7573C75.0882 14.2258 77.0191 14.2258 78.95 14.5196C81.1223 15.107 83.0531 14.2258 84.7427 12.7573C87.3977 10.9951 90.0526 9.82024 93.1903 10.4077C95.3626 10.7014 97.5349 10.4077 99.7071 9.52653C101.155 8.93912 102.362 8.64541 103.81 8.058C104.534 7.76429 105.258 7.76429 105.741 8.35171C107.672 10.1139 109.844 11.8762 111.775 13.6384C112.017 13.9321 112.258 13.9321 112.258 13.9321C114.43 13.9321 116.844 14.5196 118.775 13.3447C120.706 12.1699 122.395 10.9951 124.326 9.52653C125.291 8.64541 126.257 8.64541 127.464 8.93912C129.153 9.23283 131.084 9.52653 132.774 9.82024C134.463 10.1139 136.153 9.23283 137.842 8.64541C140.739 8.35171 143.635 8.64541 146.531 8.93912C149.669 9.23283 152.807 9.52653 155.944 9.82024C157.875 10.1139 159.806 10.9951 161.737 11.5825C163.427 12.1699 165.116 12.7573 167.047 12.4636C170.426 12.1699 173.805 13.051 176.943 13.6384C177.426 13.6384 177.908 13.6384 178.391 13.3447C180.563 11.5825 182.736 9.82024 184.666 8.058C185.391 7.47059 185.873 7.47059 186.356 8.058C187.804 8.93912 189.494 9.82024 190.942 10.9951C192.39 11.8762 194.08 12.7573 196.01 12.1699C199.39 11.2888 202.527 11.5825 205.906 12.4636C208.079 13.051 210.251 12.1699 212.423 12.1699C215.802 11.8762 218.94 10.1139 222.319 9.23283C223.043 8.93912 223.526 9.23283 224.25 9.52653C225.939 10.7014 227.87 11.5825 229.56 12.7573C230.043 13.051 230.525 13.051 231.008 12.7573C232.939 11.2888 234.87 9.82024 236.801 8.35171C237.525 7.76429 238.007 7.76429 238.49 8.35171C240.421 9.52653 242.593 10.7014 244.524 12.1699C245.007 12.4636 245.49 12.7573 246.214 12.1699C247.179 11.5825 248.145 11.2888 249.11 10.7014C251.765 8.93912 254.42 8.64541 257.316 8.64541C260.695 8.93912 264.075 7.76429 267.695 7.47059C269.143 7.17688 270.35 8.058 271.557 8.35171C274.453 8.93912 277.108 9.82024 279.763 10.9951C282.418 12.1699 284.832 11.8762 287.487 11.5825C290.866 11.2888 293.521 9.23283 296.658 8.058C297.141 7.76429 297.382 7.76429 297.865 7.76429C299.313 7.76429 301.003 7.76429 302.451 7.47059C304.865 7.17688 307.037 7.76429 309.209 8.93912C314.036 11.2888 318.864 11.8762 323.932 10.7014C326.829 9.82024 329.966 10.4077 332.863 10.4077C333.828 10.4077 334.552 10.4077 335.276 9.82024C337.207 8.93912 339.379 8.058 341.31 7.17688C341.793 6.88317 342.276 6.88317 342.758 7.47059C344.207 8.64541 345.896 9.52653 347.344 10.7014C349.034 12.1699 350.482 12.1699 352.172 11.2888C353.62 10.4077 355.309 10.1139 356.999 9.82024C362.067 8.64541 367.136 7.76429 372.446 7.76429C374.136 7.76429 375.825 8.058 377.515 8.35171C378.721 8.64541 379.928 8.058 381.135 7.76429C382.583 7.47059 384.031 6.88317 385.238 6.58947C386.204 6.29576 387.169 6.29576 388.134 6.88317C389.341 7.76429 390.789 8.35171 391.996 8.93912C393.203 9.52653 394.169 9.52653 395.375 8.93912C396.099 8.64541 396.824 8.058 397.548 7.76429C399.961 5.70834 402.616 6.00205 405.271 6.29576C407.685 6.58947 409.857 6.58947 412.271 6.00205C413.719 5.70834 414.926 5.41464 416.374 5.41464C416.857 5.41464 417.339 5.70834 417.822 6.00205C419.27 7.17688 420.96 8.058 422.167 9.23283C423.856 10.7014 425.787 10.9951 427.718 10.4077C428.925 10.1139 430.131 9.82024 431.097 8.93912C431.58 8.35171 432.304 8.35171 432.786 8.93912C433.993 9.82024 435.441 10.1139 436.89 10.1139C439.545 10.1139 442.2 10.7014 444.613 10.9951C446.544 11.2888 448.234 10.4077 449.923 10.1139C453.061 9.52653 456.199 8.058 459.336 7.17688C462.474 6.29576 465.612 6.29576 468.508 6.29576C469.232 6.29576 469.956 6.88317 470.439 7.17688C471.646 8.058 472.853 8.058 473.818 7.47059C475.507 6.29576 477.197 6.58947 478.887 8.058C480.335 9.23283 481.783 10.1139 483.231 10.9951C483.714 11.2888 484.197 11.5825 484.679 11.2888C485.645 10.9951 486.61 10.7014 487.334 10.1139C489.989 8.64541 492.644 8.35171 495.541 8.93912C497.713 9.23283 499.885 8.93912 502.057 8.35171C505.436 7.47059 508.574 8.058 511.953 8.64541C514.849 8.93912 517.504 10.4077 520.159 11.5825C520.883 11.8762 521.366 11.8762 522.09 11.8762C525.952 12.1699 529.573 10.7014 533.193 8.64541C535.124 7.47059 537.055 7.76429 538.744 7.47059C539.71 7.17688 540.675 7.47059 541.882 7.17688C544.054 6.88317 546.227 7.76429 548.157 8.64541C551.054 9.82024 554.191 10.7014 557.088 11.5825C558.536 11.8762 559.743 11.2888 561.191 11.2888C563.122 10.9951 564.811 10.4077 566.742 10.7014C570.363 10.9951 573.5 10.4077 576.638 8.058C579.293 6.00205 581.465 6.29576 583.879 8.35171C584.844 9.23283 586.051 10.4077 587.258 10.4077C588.465 10.4077 589.43 8.93912 590.396 8.058C591.361 7.17688 592.568 6.58947 593.533 5.70834C594.258 4.82722 594.982 5.12093 595.947 5.70834C597.878 6.88317 599.809 8.058 601.74 9.52653C602.222 9.82024 602.705 10.1139 603.429 9.82024C607.532 8.058 611.877 7.17688 615.98 6.88317C618.152 6.58947 620.083 7.17688 622.014 7.47059C624.428 8.058 626.841 7.47059 629.014 7.17688C630.945 6.88317 632.875 6.58947 634.565 8.058C635.289 8.64541 636.013 8.93912 636.737 9.23283C638.185 10.4077 639.392 10.4077 640.84 8.93912C642.047 7.76429 643.495 6.88317 644.702 5.70834C645.668 4.82722 646.392 4.82722 647.357 5.12093C651.219 6.00205 655.081 6.88317 659.184 6.88317C661.356 6.88317 663.77 7.47059 665.942 8.35171C668.597 9.52653 671.493 9.82024 674.148 10.1139C677.045 10.4077 679.941 10.7014 682.837 10.9951C684.527 10.9951 685.975 10.4077 687.423 9.82024C690.32 8.64541 693.457 8.64541 696.354 9.23283C697.319 9.52653 698.284 9.23283 699.25 8.64541C700.457 7.76429 701.905 6.88317 703.112 6.00205C704.56 4.82722 706.008 4.53352 707.456 4.53352C709.387 4.53352 711.559 4.53352 713.49 4.23981C713.973 4.23981 714.456 4.53352 714.938 4.82722C716.869 6.58947 718.8 8.058 720.731 9.82024C721.214 10.1139 721.455 10.4077 722.179 10.1139C723.869 9.52653 725.558 8.93912 727.248 8.35171C729.179 7.76429 731.11 8.058 732.799 8.058C734.006 8.058 735.213 8.058 736.42 7.47059C737.626 6.58947 739.075 6.00205 740.281 5.12093C742.212 3.6524 744.143 3.9461 746.315 4.23981C747.281 4.53352 748.246 4.53352 749.453 4.53352C751.143 4.53352 752.35 5.12093 753.798 6.29576C755.005 7.17688 756.211 7.76429 757.418 8.64541C758.142 9.23283 758.625 9.23283 759.108 8.64541C760.797 7.76429 762.728 6.88317 764.418 6.00205C765.142 5.70834 765.866 6.00205 766.59 6.00205C768.521 6.29576 770.21 6.88317 772.141 7.17688C773.589 7.47059 775.038 6.88317 776.486 6.29576C779.865 5.12093 783.003 5.41464 786.14 6.00205C788.071 6.29576 790.002 5.41464 791.933 4.82722C794.346 3.9461 796.519 3.9461 798.691 6.00205C799.174 6.58947 799.898 6.58947 800.139 7.17688C802.553 9.52653 804.966 9.52653 807.863 8.93912C809.07 8.64541 810.035 8.93912 811.242 8.64541C811.483 8.64541 811.725 8.64541 811.966 8.93912C813.173 12.7573 815.104 16.2818 816.069 20.3937C816.31 21.8622 816.552 23.0371 816.31 24.5056C815.828 26.5615 815.586 28.9112 815.586 30.9671C815.586 32.142 815.104 33.3168 814.38 34.1979C813.897 34.7853 813.655 35.3727 814.38 35.9601C816.069 37.4287 815.828 39.4846 816.31 41.5406C816.31 42.128 816.069 42.4217 815.828 42.4217C814.621 43.8902 813.414 45.3588 812.207 46.8273C811.966 47.121 811.725 47.4147 811.966 48.0021C813.173 52.114 815.104 55.6385 816.069 59.7504C816.31 60.9252 816.552 62.3938 816.31 63.5686C815.828 65.6245 815.586 67.9742 815.586 70.0301C815.586 71.205 815.104 72.3798 814.38 73.2609C813.897 73.8483 813.897 74.142 814.38 74.7295C815.828 76.198 815.828 78.2539 816.31 80.3099C816.31 80.6036 816.069 81.191 815.828 81.191C813.655 82.6595 813.414 85.5966 813.173 88.24C813.173 90.0022 813.414 91.4707 813.655 92.9393C814.138 97.0512 815.104 100.869 816.31 104.394C816.552 105.275 817.034 105.862 817.517 106.744C817.759 107.331 817.759 107.625 817.035 107.625C816.793 107.625 816.31 107.625 816.069 107.625C815.586 107.918 815.104 107.918 814.862 108.799C814.621 109.974 813.897 110.855 813.173 111.737C811.725 113.499 811.242 114.967 812.449 117.317C814.138 120.254 813.897 123.485 813.414 127.009C813.173 128.772 813.655 130.24 813.897 132.002C814.38 136.408 815.586 140.52 816.793 144.632C816.793 144.925 817.276 145.219 817.517 145.513C817.759 145.807 817.759 146.1 818 146.688C816.069 146.981 814.38 147.275 812.69 147.569C809.552 148.156 806.173 147.862 803.036 148.45C802.553 148.45 802.07 148.156 801.829 147.862C798.932 145.219 795.795 144.338 792.174 144.925C789.036 145.219 785.657 144.925 782.52 144.925C780.106 144.925 777.451 145.219 775.038 146.1C773.107 146.688 771.417 146.1 769.728 145.807C769.245 145.807 768.521 145.513 768.038 145.513C767.073 145.219 766.107 145.219 765.383 145.807C763.452 146.981 761.521 147.862 759.59 148.744C759.108 149.037 758.625 149.037 757.901 148.744C754.522 145.807 750.66 144.632 746.557 145.219C745.833 145.219 745.109 145.219 744.626 145.219C742.454 144.925 740.523 145.219 738.592 146.688C737.144 147.862 735.696 147.569 734.247 147.275C731.351 146.688 728.455 147.275 725.8 148.744C722.903 150.212 720.49 149.918 718.318 147.275C717.111 145.513 715.421 145.219 713.49 145.513C712.042 145.513 710.594 145.807 709.146 145.513C706.974 145.219 705.284 145.807 703.594 147.275C701.905 148.744 699.974 149.331 697.802 148.744C694.181 147.569 690.561 148.45 687.182 149.918C685.01 150.8 683.079 150.212 680.906 150.212C677.527 149.918 674.39 149.331 671.011 149.331C668.838 149.331 666.907 148.156 664.735 147.275C663.046 146.688 661.356 146.394 659.667 146.394C656.288 146.688 652.667 145.513 649.288 145.513C648.323 145.513 647.599 145.807 646.874 146.394C645.185 147.862 643.254 149.331 641.564 150.8C641.082 151.387 640.599 151.387 640.116 150.8C637.944 149.625 635.772 148.45 633.841 146.981C632.875 146.394 632.151 146.394 631.186 146.394C627.324 147.275 623.462 146.981 619.6 146.1C617.67 145.513 615.497 146.394 613.566 146.688C610.429 146.981 607.532 148.45 604.636 149.625C603.671 149.918 602.947 149.918 602.222 149.331C600.533 148.156 599.085 147.275 597.395 146.394C596.671 145.807 596.188 146.1 595.464 146.394C593.533 147.862 591.603 149.331 589.913 150.8C589.189 151.387 588.706 151.387 588.223 150.8C586.293 149.625 584.12 148.156 582.189 146.981C581.707 146.688 581.224 146.688 580.741 146.981C579.052 147.862 577.362 148.744 575.673 149.625C574.707 150.212 573.742 150.506 572.776 150.506C568.432 150.506 564.329 150.8 559.984 151.681C557.57 152.268 555.157 150.8 552.743 150.212C550.571 149.625 548.157 148.744 546.227 147.862C544.537 147.275 543.089 147.275 541.641 147.569C538.262 147.862 535.124 149.331 531.986 150.8C530.538 151.387 529.09 151.974 527.642 151.974C526.435 151.974 525.228 151.974 524.021 152.268C521.849 152.855 519.677 151.974 517.746 150.8C514.608 149.037 511.229 148.744 507.85 148.45C505.919 148.156 503.988 149.037 502.057 149.331C499.402 149.918 496.747 149.331 494.092 149.331C493.61 149.331 493.127 149.331 492.644 149.625C490.472 150.506 488.3 151.681 486.127 152.562C485.403 152.855 484.921 152.855 484.438 152.268C482.99 151.093 481.3 150.212 479.852 148.744C478.162 147.275 476.714 147.569 475.266 148.45C473.577 149.331 471.646 149.625 469.715 150.212C465.37 151.093 461.026 151.681 456.681 152.268C454.992 152.562 453.544 152.268 451.854 151.974C449.199 151.387 446.785 151.974 444.372 152.855C441.958 153.737 439.545 153.737 437.372 151.974C436.407 151.093 435.2 150.506 433.993 150.506C433.269 150.506 432.545 150.8 431.821 151.093C431.097 151.681 430.373 151.974 429.649 152.562C427.718 154.324 425.546 154.03 423.373 153.737C420.718 153.443 417.822 153.443 415.167 154.03C413.96 154.324 412.512 154.324 411.305 154.618C410.823 154.618 410.581 154.324 410.34 154.03C408.409 152.562 406.237 151.093 404.306 149.918C403.823 149.625 403.34 149.331 402.616 149.331C400.444 149.625 398.272 149.625 396.582 151.093C396.099 151.387 395.617 151.387 395.134 151.093C393.686 150.212 392.238 149.918 390.548 149.918C388.134 149.918 385.962 149.625 383.549 149.037C381.376 148.744 379.204 149.625 377.032 149.918C373.894 150.506 370.998 151.681 367.86 152.562C364.964 153.443 361.826 153.443 358.688 153.443C357.723 153.443 356.999 152.855 356.033 152.268C355.309 151.974 354.585 151.681 353.861 152.268C351.689 153.443 349.758 153.443 347.827 151.387C346.862 150.506 345.896 150.212 344.931 149.331C343.965 148.45 342.758 148.156 341.793 149.037C341.069 149.625 340.103 149.625 339.138 150.212C336.724 151.681 334.069 151.387 331.656 151.093C329.484 150.8 327.07 151.093 324.898 151.681C321.76 152.562 318.864 151.974 315.726 151.681C313.312 151.387 311.14 150.506 308.968 149.331C306.796 148.156 304.382 148.45 301.968 148.45C299.313 148.45 297.141 149.918 294.727 151.093C292.314 152.562 289.659 152.268 287.004 152.855C283.383 153.737 280.246 151.974 277.108 150.8C274.694 149.918 272.039 149.037 269.384 148.45C268.178 148.156 266.971 148.45 266.005 149.037C262.868 149.918 259.489 149.918 256.351 149.918C255.627 149.918 254.903 150.212 254.42 150.506C252.248 151.681 250.076 152.855 247.903 154.03C247.421 154.324 246.938 154.324 246.214 154.03C244.283 152.855 242.352 151.681 240.662 150.506C240.18 150.212 239.697 150.212 239.214 150.506C237.283 151.974 235.352 153.443 233.18 155.205C232.697 155.499 232.215 155.793 231.732 155.205C229.801 153.737 227.629 152.562 225.457 151.387C224.974 151.093 224.25 150.8 223.526 151.093C219.181 152.855 214.837 153.737 210.251 154.324C208.561 154.618 206.872 154.03 205.182 153.737C202.527 153.149 200.114 153.443 197.459 154.03C195.528 154.324 193.597 154.324 191.907 152.855C190.942 151.974 189.735 151.681 188.528 150.8C187.804 150.506 187.321 150.506 186.839 151.093C185.632 152.268 184.184 153.149 182.736 154.618C181.287 156.086 179.839 156.38 177.908 155.793C173.564 154.618 169.219 154.324 164.875 154.324C163.668 154.324 162.461 153.737 161.496 153.149C157.634 151.387 153.531 151.093 149.428 150.8C147.738 150.506 146.049 150.506 144.359 150.212C143.152 149.918 141.704 150.212 140.497 150.8C136.635 152.268 132.774 152.562 128.912 151.681C128.429 151.681 127.946 151.681 127.705 151.974C126.498 152.855 125.291 153.443 124.326 154.324C122.395 156.086 119.982 156.674 117.809 156.674C116.12 156.674 114.43 156.674 112.741 156.967C112.017 156.967 111.775 156.674 111.292 156.086C109.603 154.618 107.672 153.149 105.983 151.387C105.258 150.8 104.776 150.8 104.052 151.093C103.328 151.387 102.362 151.681 101.638 151.974C99.2244 152.855 96.8108 153.443 94.1558 152.855C92.2249 152.562 90.5354 153.149 89.0872 154.324C88.1217 154.911 86.9149 155.499 85.9495 156.086C84.5013 157.261 82.8118 156.967 81.1222 156.967C80.1568 156.674 79.1914 156.674 77.9846 156.674C75.5709 156.967 73.64 155.793 71.9505 154.324C69.5369 152.268 67.1233 151.681 64.7097 153.737C60.8479 153.149 58.6756 153.149 56.262 152.268C53.607 151.387 51.1934 151.387 48.5384 152.268C45.6421 153.443 42.9871 153.443 40.0907 152.855C37.9185 152.268 35.9876 152.562 34.0567 153.443C30.919 154.911 28.0226 154.324 25.609 151.974C22.7127 149.331 19.8163 149.331 16.6786 149.625C14.0237 149.918 11.61 150.212 8.95507 150.8C8.23098 150.8 7.98962 150.8 7.74826 149.918C7.74826 148.744 7.26553 147.569 6.78281 146.394C5.33464 143.163 4.12783 139.639 3.16238 136.114C2.67966 134.352 3.40374 132.59 3.6451 130.827C3.6451 129.946 3.88647 129.065 3.88647 127.89C3.88647 126.128 3.88647 124.366 5.09328 123.191C5.576 122.897 5.576 122.31 5.09328 122.016C3.6451 120.548 3.40374 118.492 3.16238 116.436C3.16238 115.848 3.40374 115.555 3.6451 115.261C4.61055 114.086 5.576 112.911 6.54145 111.737C7.98962 110.855 7.98962 109.681 7.50689 108.506C6.05872 105.275 4.85191 102.044 3.88647 98.5197C3.16238 96.7575 3.16238 94.9952 3.6451 93.233C3.88647 91.7645 4.36919 90.2959 4.12783 88.5337C4.12783 86.7714 4.36919 85.3029 5.576 84.1281C6.05872 83.8344 6.05872 83.2469 5.576 82.9532C4.12783 81.4847 3.88647 79.4288 3.6451 77.3728C3.6451 76.7854 3.6451 76.4917 3.88647 76.198C6.30009 74.7295 6.54145 71.7924 6.54145 69.149C6.54145 67.6805 6.30009 66.212 6.05872 64.7434C5.576 60.6315 4.61055 56.8133 3.16238 52.9951C3.16238 52.114 3.16238 51.5266 3.88647 51.5266C4.36919 51.5266 4.85191 51.2329 5.33464 51.2329Z" fill="#043964"/>
<path d="M2.33464 47.2329C1.61055 45.4707 1.61055 44.5895 2.576 43.121C3.30009 41.9462 4.02417 40.7714 4.98962 39.5965C5.47234 39.0091 5.47234 38.4217 5.23098 37.8343C4.74826 36.6595 4.26553 35.1909 3.78281 34.0161C3.30009 32.5476 2.81736 31.3727 3.30008 29.6105C4.26553 24.3238 3.05872 19.0371 1.85191 14.044C1.61055 12.5755 1.12783 11.107 0.645105 9.93214C0.162381 8.75731 0.645105 8.4636 1.36919 8.1699C3.54145 7.87619 5.95506 7.58248 8.12732 6.99507C11.7477 6.11395 15.1268 6.40765 18.7472 5.82024C19.7127 5.82024 20.4368 5.82024 21.4022 6.40765C22.8504 7.58248 24.5399 8.4636 26.2295 9.63843C27.1949 10.5196 28.1604 10.5196 29.1258 10.2258C31.2981 9.63843 33.4703 8.75731 35.8839 9.05102C36.8494 9.05102 37.8148 9.05102 38.5389 9.34472C40.7112 9.93214 42.8834 9.63843 45.0557 8.75731C48.4347 7.58248 51.5725 7.87619 54.9515 8.75731C55.917 9.05102 56.641 9.05102 57.6065 8.4636C59.5374 7.28877 61.7096 6.40765 63.6405 5.23283C64.1233 4.93912 64.606 4.93912 65.0887 5.23283C66.7783 6.40765 68.7091 7.58248 70.3987 8.75731C72.0882 10.2258 74.0191 10.2258 75.95 10.5196C78.1223 11.107 80.0531 10.2258 81.7427 8.75731C84.3977 6.99507 87.0526 5.82024 90.1903 6.40765C92.3626 6.70136 94.5349 6.40765 96.7071 5.52653C98.1553 4.93912 99.3621 4.64541 100.81 4.058C101.534 3.76429 102.258 3.76429 102.741 4.35171C104.672 6.11395 106.844 7.87619 108.775 9.63843C109.017 9.93214 109.258 9.93214 109.258 9.93214C111.43 9.93214 113.844 10.5196 115.775 9.34472C117.706 8.1699 119.395 6.99507 121.326 5.52653C122.291 4.64541 123.257 4.64541 124.464 4.93912C126.153 5.23283 128.084 5.52653 129.774 5.82024C131.463 6.11395 133.153 5.23283 134.842 4.64541C137.739 4.35171 140.635 4.64541 143.531 4.93912C146.669 5.23283 149.807 5.52653 152.944 5.82024C154.875 6.11395 156.806 6.99507 158.737 7.58248C160.427 8.1699 162.116 8.75731 164.047 8.4636C167.426 8.1699 170.805 9.05102 173.943 9.63843C174.426 9.63843 174.908 9.63843 175.391 9.34472C177.563 7.58248 179.736 5.82024 181.666 4.058C182.391 3.47059 182.873 3.47059 183.356 4.058C184.804 4.93912 186.494 5.82024 187.942 6.99507C189.39 7.87619 191.08 8.75731 193.01 8.1699C196.39 7.28877 199.527 7.58248 202.906 8.4636C205.079 9.05102 207.251 8.1699 209.423 8.1699C212.802 7.87619 215.94 6.11395 219.319 5.23283C220.043 4.93912 220.526 5.23283 221.25 5.52653C222.939 6.70136 224.87 7.58248 226.56 8.75731C227.043 9.05102 227.525 9.05102 228.008 8.75731C229.939 7.28877 231.87 5.82024 233.801 4.35171C234.525 3.76429 235.007 3.76429 235.49 4.35171C237.421 5.52653 239.593 6.70136 241.524 8.1699C242.007 8.4636 242.49 8.75731 243.214 8.1699C244.179 7.58248 245.145 7.28877 246.11 6.70136C248.765 4.93912 251.42 4.64541 254.316 4.64541C257.695 4.93912 261.075 3.76429 264.695 3.47059C266.143 3.17688 267.35 4.058 268.557 4.35171C271.453 4.93912 274.108 5.82024 276.763 6.99507C279.418 8.1699 281.832 7.87619 284.487 7.58248C287.866 7.28877 290.521 5.23283 293.658 4.058C294.141 3.76429 294.382 3.76429 294.865 3.76429C296.313 3.76429 298.003 3.76429 299.451 3.47059C301.865 3.17688 304.037 3.76429 306.209 4.93912C311.036 7.28877 315.864 7.87619 320.932 6.70136C323.829 5.82024 326.966 6.40765 329.863 6.40765C330.828 6.40765 331.552 6.40765 332.276 5.82024C334.207 4.93912 336.379 4.058 338.31 3.17688C338.793 2.88317 339.276 2.88317 339.758 3.47059C341.207 4.64541 342.896 5.52653 344.344 6.70136C346.034 8.1699 347.482 8.1699 349.172 7.28877C350.62 6.40765 352.309 6.11395 353.999 5.82024C359.067 4.64541 364.136 3.76429 369.446 3.76429C371.136 3.76429 372.825 4.058 374.515 4.35171C375.721 4.64541 376.928 4.058 378.135 3.76429C379.583 3.47059 381.031 2.88317 382.238 2.58947C383.204 2.29576 384.169 2.29576 385.134 2.88317C386.341 3.76429 387.789 4.35171 388.996 4.93912C390.203 5.52653 391.169 5.52653 392.375 4.93912C393.099 4.64541 393.824 4.058 394.548 3.76429C396.961 1.70834 399.616 2.00205 402.271 2.29576C404.685 2.58947 406.857 2.58947 409.271 2.00205C410.719 1.70834 411.926 1.41464 413.374 1.41464C413.857 1.41464 414.339 1.70834 414.822 2.00205C416.27 3.17688 417.96 4.058 419.167 5.23283C420.856 6.70136 422.787 6.99507 424.718 6.40765C425.925 6.11395 427.131 5.82024 428.097 4.93912C428.58 4.35171 429.304 4.35171 429.786 4.93912C430.993 5.82024 432.441 6.11395 433.89 6.11395C436.545 6.11395 439.2 6.70136 441.613 6.99507C443.544 7.28877 445.234 6.40765 446.923 6.11395C450.061 5.52653 453.199 4.058 456.336 3.17688C459.474 2.29576 462.612 2.29576 465.508 2.29576C466.232 2.29576 466.956 2.88317 467.439 3.17688C468.646 4.058 469.853 4.058 470.818 3.47059C472.507 2.29576 474.197 2.58947 475.887 4.058C477.335 5.23283 478.783 6.11395 480.231 6.99507C480.714 7.28877 481.197 7.58248 481.679 7.28877C482.645 6.99507 483.61 6.70136 484.334 6.11395C486.989 4.64541 489.644 4.35171 492.541 4.93912C494.713 5.23283 496.885 4.93912 499.057 4.35171C502.436 3.47059 505.574 4.058 508.953 4.64541C511.849 4.93912 514.504 6.40765 517.159 7.58248C517.883 7.87619 518.366 7.87619 519.09 7.87619C522.952 8.1699 526.573 6.70136 530.193 4.64541C532.124 3.47059 534.055 3.76429 535.744 3.47059C536.71 3.17688 537.675 3.47059 538.882 3.17688C541.054 2.88317 543.227 3.76429 545.157 4.64541C548.054 5.82024 551.191 6.70136 554.088 7.58248C555.536 7.87619 556.743 7.28877 558.191 7.28877C560.122 6.99507 561.811 6.40765 563.742 6.70136C567.363 6.99507 570.5 6.40765 573.638 4.058C576.293 2.00205 578.465 2.29576 580.879 4.35171C581.844 5.23283 583.051 6.40765 584.258 6.40765C585.465 6.40765 586.43 4.93912 587.396 4.058C588.361 3.17688 589.568 2.58947 590.533 1.70834C591.258 0.827224 591.982 1.12093 592.947 1.70834C594.878 2.88317 596.809 4.058 598.74 5.52653C599.222 5.82024 599.705 6.11395 600.429 5.82024C604.532 4.058 608.877 3.17688 612.98 2.88317C615.152 2.58947 617.083 3.17688 619.014 3.47059C621.428 4.058 623.841 3.47059 626.014 3.17688C627.945 2.88317 629.875 2.58947 631.565 4.058C632.289 4.64541 633.013 4.93912 633.737 5.23283C635.185 6.40765 636.392 6.40765 637.84 4.93912C639.047 3.76429 640.495 2.88317 641.702 1.70834C642.668 0.827224 643.392 0.827224 644.357 1.12093C648.219 2.00205 652.081 2.88317 656.184 2.88317C658.356 2.88317 660.77 3.47059 662.942 4.35171C665.597 5.52653 668.493 5.82024 671.148 6.11395C674.045 6.40765 676.941 6.70136 679.837 6.99507C681.527 6.99507 682.975 6.40765 684.423 5.82024C687.32 4.64541 690.457 4.64541 693.354 5.23283C694.319 5.52653 695.284 5.23283 696.25 4.64541C697.457 3.76429 698.905 2.88317 700.112 2.00205C701.56 0.827224 703.008 0.533517 704.456 0.533517C706.387 0.533517 708.559 0.533518 710.49 0.239811C710.973 0.239811 711.456 0.533518 711.938 0.827224C713.869 2.58947 715.8 4.058 717.731 5.82024C718.214 6.11395 718.455 6.40765 719.179 6.11395C720.869 5.52653 722.558 4.93912 724.248 4.35171C726.179 3.76429 728.11 4.058 729.799 4.058C731.006 4.058 732.213 4.058 733.42 3.47059C734.626 2.58947 736.075 2.00205 737.281 1.12093C739.212 -0.347603 741.143 -0.0538962 743.315 0.239811C744.281 0.533518 745.246 0.533517 746.453 0.533517C748.143 0.533517 749.35 1.12093 750.798 2.29576C752.005 3.17688 753.211 3.76429 754.418 4.64541C755.142 5.23283 755.625 5.23283 756.108 4.64541C757.797 3.76429 759.728 2.88317 761.418 2.00205C762.142 1.70834 762.866 2.00205 763.59 2.00205C765.521 2.29576 767.21 2.88317 769.141 3.17688C770.589 3.47059 772.038 2.88317 773.486 2.29576C776.865 1.12093 780.003 1.41464 783.14 2.00205C785.071 2.29576 787.002 1.41464 788.933 0.827224C791.346 -0.0538962 793.519 -0.0538961 795.691 2.00205C796.174 2.58947 796.898 2.58947 797.139 3.17688C799.553 5.52653 801.966 5.52653 804.863 4.93912C806.07 4.64541 807.035 4.93912 808.242 4.64541C808.483 4.64541 808.725 4.64541 808.966 4.93912C810.173 8.75731 812.104 12.2818 813.069 16.3937C813.31 17.8622 813.552 19.0371 813.31 20.5056C812.828 22.5615 812.586 24.9112 812.586 26.9671C812.586 28.142 812.104 29.3168 811.38 30.1979C810.897 30.7853 810.655 31.3727 811.38 31.9601C813.069 33.4287 812.828 35.4846 813.31 37.5406C813.31 38.128 813.069 38.4217 812.828 38.4217C811.621 39.8902 810.414 41.3588 809.207 42.8273C808.966 43.121 808.725 43.4147 808.966 44.0021C810.173 48.114 812.104 51.6385 813.069 55.7504C813.31 56.9252 813.552 58.3938 813.31 59.5686C812.828 61.6245 812.586 63.9742 812.586 66.0301C812.586 67.205 812.104 68.3798 811.38 69.2609C810.897 69.8483 810.897 70.142 811.38 70.7295C812.828 72.198 812.828 74.2539 813.31 76.3099C813.31 76.6036 813.069 77.191 812.828 77.191C810.655 78.6595 810.414 81.5966 810.173 84.24C810.173 86.0022 810.414 87.4707 810.655 88.9393C811.138 93.0512 812.104 96.8694 813.31 100.394C813.552 101.275 814.034 101.862 814.517 102.744C814.759 103.331 814.759 103.625 814.035 103.625C813.793 103.625 813.31 103.625 813.069 103.625C812.586 103.918 812.104 103.918 811.862 104.799C811.621 105.974 810.897 106.855 810.173 107.737C808.725 109.499 808.242 110.967 809.449 113.317C811.138 116.254 810.897 119.485 810.414 123.009C810.173 124.772 810.655 126.24 810.897 128.002C811.38 132.408 812.586 136.52 813.793 140.632C813.793 140.925 814.276 141.219 814.517 141.513C814.759 141.807 814.759 142.1 815 142.688C813.069 142.981 811.38 143.275 809.69 143.569C806.552 144.156 803.173 143.862 800.036 144.45C799.553 144.45 799.07 144.156 798.829 143.862C795.932 141.219 792.795 140.338 789.174 140.925C786.036 141.219 782.657 140.925 779.52 140.925C777.106 140.925 774.451 141.219 772.038 142.1C770.107 142.688 768.417 142.1 766.728 141.807C766.245 141.807 765.521 141.513 765.038 141.513C764.073 141.219 763.107 141.219 762.383 141.807C760.452 142.981 758.521 143.862 756.59 144.744C756.108 145.037 755.625 145.037 754.901 144.744C751.522 141.807 747.66 140.632 743.557 141.219C742.833 141.219 742.109 141.219 741.626 141.219C739.454 140.925 737.523 141.219 735.592 142.688C734.144 143.862 732.696 143.569 731.247 143.275C728.351 142.688 725.455 143.275 722.8 144.744C719.903 146.212 717.49 145.918 715.318 143.275C714.111 141.513 712.421 141.219 710.49 141.513C709.042 141.513 707.594 141.807 706.146 141.513C703.974 141.219 702.284 141.807 700.594 143.275C698.905 144.744 696.974 145.331 694.802 144.744C691.181 143.569 687.561 144.45 684.182 145.918C682.01 146.8 680.079 146.212 677.906 146.212C674.527 145.918 671.39 145.331 668.011 145.331C665.838 145.331 663.907 144.156 661.735 143.275C660.046 142.688 658.356 142.394 656.667 142.394C653.288 142.688 649.667 141.513 646.288 141.513C645.323 141.513 644.599 141.807 643.874 142.394C642.185 143.862 640.254 145.331 638.564 146.8C638.082 147.387 637.599 147.387 637.116 146.8C634.944 145.625 632.772 144.45 630.841 142.981C629.875 142.394 629.151 142.394 628.186 142.394C624.324 143.275 620.462 142.981 616.6 142.1C614.67 141.513 612.497 142.394 610.566 142.688C607.429 142.981 604.532 144.45 601.636 145.625C600.671 145.918 599.947 145.918 599.222 145.331C597.533 144.156 596.085 143.275 594.395 142.394C593.671 141.807 593.188 142.1 592.464 142.394C590.533 143.862 588.603 145.331 586.913 146.8C586.189 147.387 585.706 147.387 585.223 146.8C583.293 145.625 581.12 144.156 579.189 142.981C578.707 142.688 578.224 142.688 577.741 142.981C576.052 143.862 574.362 144.744 572.673 145.625C571.707 146.212 570.742 146.506 569.776 146.506C565.432 146.506 561.329 146.8 556.984 147.681C554.57 148.268 552.157 146.8 549.743 146.212C547.571 145.625 545.157 144.744 543.227 143.862C541.537 143.275 540.089 143.275 538.641 143.569C535.262 143.862 532.124 145.331 528.986 146.8C527.538 147.387 526.09 147.974 524.642 147.974C523.435 147.974 522.228 147.974 521.021 148.268C518.849 148.855 516.677 147.974 514.746 146.8C511.608 145.037 508.229 144.744 504.85 144.45C502.919 144.156 500.988 145.037 499.057 145.331C496.402 145.918 493.747 145.331 491.092 145.331C490.61 145.331 490.127 145.331 489.644 145.625C487.472 146.506 485.3 147.681 483.127 148.562C482.403 148.855 481.921 148.855 481.438 148.268C479.99 147.093 478.3 146.212 476.852 144.744C475.162 143.275 473.714 143.569 472.266 144.45C470.577 145.331 468.646 145.625 466.715 146.212C462.37 147.093 458.026 147.681 453.681 148.268C451.992 148.562 450.544 148.268 448.854 147.974C446.199 147.387 443.785 147.974 441.372 148.855C438.958 149.737 436.545 149.737 434.372 147.974C433.407 147.093 432.2 146.506 430.993 146.506C430.269 146.506 429.545 146.8 428.821 147.093C428.097 147.681 427.373 147.974 426.649 148.562C424.718 150.324 422.546 150.03 420.373 149.737C417.718 149.443 414.822 149.443 412.167 150.03C410.96 150.324 409.512 150.324 408.305 150.618C407.823 150.618 407.581 150.324 407.34 150.03C405.409 148.562 403.237 147.093 401.306 145.918C400.823 145.625 400.34 145.331 399.616 145.331C397.444 145.625 395.272 145.625 393.582 147.093C393.099 147.387 392.617 147.387 392.134 147.093C390.686 146.212 389.238 145.918 387.548 145.918C385.134 145.918 382.962 145.625 380.549 145.037C378.376 144.744 376.204 145.625 374.032 145.918C370.894 146.506 367.998 147.681 364.86 148.562C361.964 149.443 358.826 149.443 355.688 149.443C354.723 149.443 353.999 148.855 353.033 148.268C352.309 147.974 351.585 147.681 350.861 148.268C348.689 149.443 346.758 149.443 344.827 147.387C343.862 146.506 342.896 146.212 341.931 145.331C340.965 144.45 339.758 144.156 338.793 145.037C338.069 145.625 337.103 145.625 336.138 146.212C333.724 147.681 331.069 147.387 328.656 147.093C326.484 146.8 324.07 147.093 321.898 147.681C318.76 148.562 315.864 147.974 312.726 147.681C310.312 147.387 308.14 146.506 305.968 145.331C303.796 144.156 301.382 144.45 298.968 144.45C296.313 144.45 294.141 145.918 291.727 147.093C289.314 148.562 286.659 148.268 284.004 148.855C280.383 149.737 277.246 147.974 274.108 146.8C271.694 145.918 269.039 145.037 266.384 144.45C265.178 144.156 263.971 144.45 263.005 145.037C259.868 145.918 256.489 145.918 253.351 145.918C252.627 145.918 251.903 146.212 251.42 146.506C249.248 147.681 247.076 148.855 244.903 150.03C244.421 150.324 243.938 150.324 243.214 150.03C241.283 148.855 239.352 147.681 237.662 146.506C237.18 146.212 236.697 146.212 236.214 146.506C234.283 147.974 232.352 149.443 230.18 151.205C229.697 151.499 229.215 151.793 228.732 151.205C226.801 149.737 224.629 148.562 222.457 147.387C221.974 147.093 221.25 146.8 220.526 147.093C216.181 148.855 211.837 149.737 207.251 150.324C205.561 150.618 203.872 150.03 202.182 149.737C199.527 149.149 197.114 149.443 194.459 150.03C192.528 150.324 190.597 150.324 188.907 148.855C187.942 147.974 186.735 147.681 185.528 146.8C184.804 146.506 184.321 146.506 183.839 147.093C182.632 148.268 181.184 149.149 179.736 150.618C178.287 152.086 176.839 152.38 174.908 151.793C170.564 150.618 166.219 150.324 161.875 150.324C160.668 150.324 159.461 149.737 158.496 149.149C154.634 147.387 150.531 147.093 146.428 146.8C144.738 146.506 143.049 146.506 141.359 146.212C140.152 145.918 138.704 146.212 137.497 146.8C133.635 148.268 129.774 148.562 125.912 147.681C125.429 147.681 124.946 147.681 124.705 147.974C123.498 148.855 122.291 149.443 121.326 150.324C119.395 152.086 116.982 152.674 114.809 152.674C113.12 152.674 111.43 152.674 109.741 152.967C109.017 152.967 108.775 152.674 108.292 152.086C106.603 150.618 104.672 149.149 102.983 147.387C102.258 146.8 101.776 146.8 101.052 147.093C100.328 147.387 99.3621 147.681 98.638 147.974C96.2244 148.855 93.8108 149.443 91.1558 148.855C89.2249 148.562 87.5354 149.149 86.0872 150.324C85.1217 150.911 83.9149 151.499 82.9495 152.086C81.5013 153.261 79.8118 152.967 78.1222 152.967C77.1568 152.674 76.1914 152.674 74.9846 152.674C72.5709 152.967 70.64 151.793 68.9505 150.324C66.5369 148.268 64.1233 147.681 61.7097 149.737C57.8479 149.149 55.6756 149.149 53.262 148.268C50.607 147.387 48.1934 147.387 45.5384 148.268C42.6421 149.443 39.9871 149.443 37.0907 148.855C34.9185 148.268 32.9876 148.562 31.0567 149.443C27.919 150.911 25.0226 150.324 22.609 147.974C19.7127 145.331 16.8163 145.331 13.6786 145.625C11.0237 145.918 8.61005 146.212 5.95507 146.8C5.23098 146.8 4.98962 146.8 4.74826 145.918C4.74826 144.744 4.26553 143.569 3.78281 142.394C2.33464 139.163 1.12783 135.639 0.162381 132.114C-0.320343 130.352 0.403743 128.59 0.645105 126.827C0.645105 125.946 0.886467 125.065 0.886467 123.89C0.886467 122.128 0.886467 120.366 2.09328 119.191C2.576 118.897 2.576 118.31 2.09328 118.016C0.645105 116.548 0.403743 114.492 0.162381 112.436C0.162381 111.848 0.403743 111.555 0.645105 111.261C1.61055 110.086 2.576 108.911 3.54145 107.737C4.98962 106.855 4.98962 105.681 4.50689 104.506C3.05872 101.275 1.85191 98.0442 0.886467 94.5197C0.162381 92.7575 0.162381 90.9952 0.645105 89.233C0.886467 87.7645 1.36919 86.2959 1.12783 84.5337C1.12783 82.7714 1.36919 81.3029 2.576 80.1281C3.05872 79.8344 3.05872 79.2469 2.576 78.9532C1.12783 77.4847 0.886467 75.4288 0.645105 73.3728C0.645105 72.7854 0.645105 72.4917 0.886467 72.198C3.30009 70.7295 3.54145 67.7924 3.54145 65.149C3.54145 63.6805 3.30009 62.212 3.05872 60.7434C2.576 56.6315 1.61055 52.8133 0.162381 48.9951C0.162381 48.114 0.162381 47.5266 0.886467 47.5266C1.36919 47.5266 1.85191 47.2329 2.33464 47.2329Z" fill="white"/>
</g>
<defs>
<clipPath id="clip0_330_4609">
<rect width="818" height="157" fill="white"/>
</clipPath>
</defs>
</svg>
