<svg width="1062" height="270" viewBox="0 0 1062 270" fill="none" xmlns="http://www.w3.org/2000/svg">
<path fill-rule="evenodd" clip-rule="evenodd" d="M4.39509 44.0364C3.13815 45.5149 3.13745 46.4019 4.07787 48.176C3.76393 48.176 3.44993 48.2499 3.13593 48.3239C2.82193 48.3978 2.50793 48.4717 2.19399 48.4717C1.25217 48.4717 1.2517 49.0631 1.251 49.9501C3.13161 53.794 4.38433 57.6379 5.00893 61.7775C5.32171 63.256 5.63448 64.7344 5.63331 66.2128C5.6312 68.874 5.31492 71.8308 2.17435 73.3092C1.86017 73.6049 1.85994 73.9006 1.85947 74.492C2.17177 76.5618 2.48408 78.6316 4.36655 80.11C4.9942 80.4057 4.99373 80.997 4.36562 81.2927C2.79498 82.4755 2.47987 83.9539 2.47846 85.728C2.71741 87.0844 2.40598 88.2679 2.10525 89.4108C2.01263 89.7627 1.92103 90.1109 1.84684 90.459C1.21755 92.2331 1.21615 94.0072 2.15657 95.7813C3.40953 99.3295 4.97666 102.582 6.85773 105.835C7.48467 107.017 7.48374 108.2 5.59939 109.087L1.8293 112.635C1.51512 112.931 1.20095 113.227 1.20048 113.818C1.51278 115.888 1.82509 117.958 3.70756 119.436C4.33521 119.732 4.33474 120.323 3.70663 120.619C2.13599 121.802 2.13458 123.576 2.13318 125.35C2.13268 125.984 2.04208 126.533 1.95799 127.042C1.88517 127.483 1.81723 127.895 1.8169 128.307C1.7268 128.814 1.58545 129.32 1.44409 129.827C1.09071 131.095 0.737325 132.362 1.18481 133.629C2.43776 137.177 4.00466 140.725 5.88573 143.978C6.05612 144.299 6.2265 144.621 6.38428 144.942C6.35247 145.096 6.31837 145.25 6.28189 145.404C5.7016 147.04 6.18954 148.174 6.76047 149.499C6.80868 149.611 6.85747 149.725 6.90627 149.84C7.21974 150.431 7.53315 151.096 7.84656 151.762C8.15998 152.427 8.47339 153.092 8.78687 153.684C9.10034 154.275 9.09987 154.866 8.47152 155.458C7.21483 156.64 6.27207 157.823 5.32931 159.006C4.07238 160.484 4.07168 161.371 5.0121 163.146C4.69816 163.146 4.38416 163.219 4.07016 163.293C3.75616 163.367 3.44216 163.441 3.12822 163.441C2.1864 163.441 2.18593 164.033 2.18523 164.92C4.06583 168.764 5.31855 172.607 5.94316 176.747C6.25593 178.225 6.5687 179.704 6.56753 181.182C6.56543 183.844 6.24915 186.8 3.10857 188.279C2.7944 188.574 2.79416 188.87 2.7937 189.462C3.106 191.531 3.4183 193.601 5.30078 195.08C5.92843 195.375 5.92796 195.967 5.29984 196.262C3.7292 197.445 3.41409 198.923 3.41269 200.698C3.65164 202.054 3.3402 203.237 3.03948 204.38C2.94686 204.732 2.85526 205.08 2.78107 205.429C2.15178 207.203 2.15038 208.977 3.0908 210.751C4.34376 214.299 5.91089 217.552 7.79196 220.804C8.4189 221.987 8.41797 223.17 6.53362 224.057L2.76353 227.605C2.44935 227.901 2.13518 228.196 2.13471 228.788C2.44701 230.857 2.75932 232.927 4.64179 234.406C5.26944 234.701 5.26897 235.293 4.64086 235.588C3.07022 236.771 3.06882 238.545 3.06741 240.319C3.06691 240.953 2.97632 241.502 2.89223 242.012C2.8194 242.453 2.75146 242.865 2.75113 243.276C2.66103 243.783 2.51968 244.29 2.37833 244.797C2.02494 246.064 1.67156 247.331 2.11904 248.599C3.372 252.147 4.9389 255.695 6.81997 258.947C7.44691 260.13 8.07386 261.313 8.07292 262.496C8.38616 263.383 8.7001 263.383 9.64193 263.383C13.0957 262.791 16.2354 262.496 19.689 262.2C23.7704 261.904 27.5377 261.904 31.3029 264.566C34.4404 266.931 38.2073 267.522 42.2897 266.044C44.8019 265.157 47.3136 264.861 50.1386 265.453C53.9055 266.044 57.3588 266.044 61.127 264.861C64.5811 263.974 67.7205 263.974 71.1731 264.861C73.3397 265.474 75.3571 265.663 78.0508 265.916C79.2595 266.03 80.6043 266.156 82.1599 266.34C85.3009 264.27 88.4399 264.861 91.5777 266.931C93.7741 268.409 96.2847 269.592 99.4243 269.296L99.4248 269.296C100.994 269.296 102.25 269.296 103.505 269.592C103.873 269.592 104.241 269.6 104.607 269.609C106.43 269.65 108.216 269.69 109.785 268.705C110.413 268.409 111.12 268.114 111.826 267.818C112.533 267.522 113.239 267.227 113.867 266.931C115.752 265.748 117.95 265.157 120.461 265.453C123.914 266.044 127.054 265.453 130.194 264.566C130.665 264.418 131.215 264.27 131.764 264.122C132.314 263.974 132.863 263.826 133.334 263.678C134.276 263.383 134.904 263.383 135.846 263.974C137.407 265.235 139.126 266.347 140.779 267.415C141.452 267.85 142.113 268.277 142.749 268.705C143.376 269.296 143.69 269.592 144.632 269.592C146.829 269.296 149.026 269.296 151.224 269.296L151.225 269.296C154.05 269.296 157.19 268.705 159.703 266.931C160.461 266.396 161.333 265.968 162.25 265.519C162.854 265.223 163.477 264.917 164.1 264.566C164.414 264.27 165.042 264.27 165.67 264.27C170.692 265.157 175.715 264.861 180.74 263.383C182.31 262.791 184.194 262.496 185.763 262.791C186.862 262.939 187.961 263.013 189.059 263.087C190.158 263.161 191.257 263.235 192.355 263.383C197.692 263.678 203.029 263.974 208.051 265.748C209.306 266.34 210.875 266.931 212.445 266.931C218.096 266.931 223.746 267.227 229.396 268.409C231.908 269.001 233.791 268.705 235.676 267.227C236.709 266.417 237.741 265.784 238.722 265.183C239.532 264.688 240.306 264.213 241.016 263.678C241.644 263.087 242.272 263.087 243.214 263.383C243.924 263.784 244.634 264.065 245.315 264.333C246.139 264.659 246.92 264.967 247.607 265.453C249.804 266.931 252.315 266.931 254.827 266.635C258.281 266.044 261.421 265.748 264.873 266.34C265.423 266.414 265.972 266.506 266.521 266.598C268.169 266.876 269.817 267.153 271.466 266.931C277.431 266.34 283.083 265.453 288.735 263.678C289.677 263.383 290.619 263.678 291.246 263.974C294.071 265.157 296.895 266.34 299.406 267.818C300.033 268.409 300.661 268.114 301.289 267.818C304.116 266.044 306.629 264.566 309.142 263.087C309.77 262.791 310.398 262.791 311.025 263.087C313.222 264.27 315.732 265.453 318.243 266.635C319.185 266.931 319.813 266.931 320.441 266.635L328.92 263.087C329.548 262.791 330.49 262.496 331.432 262.496C335.513 262.496 339.908 262.496 343.99 261.609C345.246 261.017 346.816 260.722 348.386 261.017C351.839 261.609 355.291 262.496 358.43 263.383C359.129 263.585 359.829 263.806 360.531 264.027C363.928 265.096 367.398 266.188 371.3 265.453C372.44 265.257 373.579 265.159 374.707 265.061C376.999 264.863 379.243 264.669 381.348 263.678C381.963 263.447 382.567 263.203 383.165 262.962C385.62 261.973 387.992 261.017 390.768 261.017C391.293 261.017 391.817 261.009 392.34 261.001C394.948 260.96 397.519 260.919 399.871 261.904C402.696 263.087 405.521 263.974 408.66 264.27C409.38 264.322 410.091 264.383 410.796 264.444C414.081 264.728 417.228 265 420.59 264.27C423.416 263.678 426.555 263.383 429.38 263.678C432.52 263.974 435.973 264.27 439.113 262.791C439.702 262.514 440.291 262.367 440.848 262.228C441.478 262.07 442.067 261.923 442.568 261.609C443.824 260.722 445.394 261.017 446.649 261.904C447.276 262.348 447.904 262.644 448.531 262.939C449.159 263.235 449.787 263.531 450.414 263.974C452.924 266.044 455.436 266.044 458.262 264.861C459.204 264.27 460.146 264.565 461.088 264.861C461.303 264.963 461.509 265.064 461.709 265.163C462.675 265.638 463.5 266.044 464.54 266.044C468.621 266.044 472.702 266.044 476.47 265.157C477.933 264.839 479.356 264.483 480.767 264.13C483.294 263.498 485.783 262.875 488.402 262.496C489.344 262.397 490.286 262.233 491.228 262.069C493.112 261.74 494.996 261.412 496.879 261.609C500.018 262.2 502.844 262.496 505.983 262.496C508.181 262.496 510.064 262.791 511.947 263.678C512.575 263.974 513.202 263.974 513.831 263.678C515.674 262.439 517.958 262.239 520.313 262.032C520.767 261.992 521.224 261.952 521.68 261.904C522.622 261.904 523.25 262.2 523.878 262.496C526.388 263.678 529.212 265.157 531.723 266.635C532.037 266.931 532.35 267.227 532.978 267.227C533.763 267.079 534.626 267.005 535.49 266.931C536.353 266.857 537.217 266.783 538.002 266.635C541.455 266.044 545.223 266.044 548.676 266.34C551.501 266.635 554.326 266.931 556.839 265.157C557.31 264.861 557.781 264.639 558.252 264.418C558.724 264.196 559.195 263.974 559.666 263.678C560.608 263.383 561.55 263.087 562.492 263.087C564.062 263.087 565.631 263.678 566.886 264.566C569.71 266.34 572.849 266.34 575.989 265.453C579.13 264.566 582.269 263.974 585.722 264.566C585.861 264.584 585.998 264.603 586.134 264.621C588.158 264.896 589.941 265.138 592.001 264.861C597.652 264.27 603.304 263.678 608.955 262.791C609.738 262.607 610.52 262.452 611.293 262.298C613.001 261.958 614.664 261.628 616.177 261.017C618.062 260.13 619.946 259.835 622.142 261.313C623.311 262.231 624.601 262.921 625.862 263.595C626.631 264.007 627.39 264.413 628.104 264.861C628.731 265.453 629.359 265.453 630.301 265.157C631.714 264.713 633.128 264.196 634.541 263.678C635.954 263.161 637.367 262.644 638.78 262.2C639.408 261.904 640.036 261.904 640.664 261.904C641.815 261.904 642.966 261.97 644.117 262.036C646.419 262.167 648.721 262.299 651.024 261.904C651.861 261.806 652.699 261.641 653.536 261.477C655.21 261.149 656.885 260.82 658.559 261.017C662.954 261.313 667.349 261.609 671.429 263.383C673.94 264.565 676.764 265.453 679.59 264.861C681.16 264.566 682.73 264.566 684.299 264.566L684.3 264.566C686.183 264.566 688.067 263.974 689.951 263.383C694.034 261.904 698.116 260.426 702.512 260.13C704.396 259.835 706.279 259.835 708.476 260.426C710.987 261.313 714.126 262.2 716.951 262.791C717.893 262.969 718.834 263.226 719.776 263.483C721.973 264.084 724.17 264.684 726.368 264.27C732.02 263.383 737.357 263.087 743.008 263.087C744.264 263.087 745.519 262.791 746.776 262.2L753.371 259.539C753.999 259.243 754.627 259.243 755.254 259.539C756.509 260.13 757.843 260.795 759.177 261.461C760.51 262.126 761.844 262.791 763.1 263.383C763.727 263.974 764.355 263.974 765.297 263.383C767.496 261.904 770.009 260.426 772.521 258.947C772.609 258.92 772.694 258.892 772.777 258.865C773.583 258.604 774.179 258.411 775.033 258.947C777.23 259.835 779.113 260.722 781.309 261.904C782.251 262.496 783.193 262.496 784.449 262.2C785.153 261.979 785.858 261.747 786.564 261.515C789.637 260.506 792.748 259.484 796.067 259.243C796.754 259.162 797.465 259.037 798.186 258.91C800.101 258.573 802.092 258.222 803.916 258.652C808.938 259.539 813.961 259.835 818.985 258.947C820.24 258.947 821.182 258.947 822.438 259.539C824.948 261.017 827.772 262.2 830.597 263.383C831.224 263.974 831.852 263.974 832.481 263.383C833.58 262.643 834.758 261.904 835.936 261.165C837.114 260.426 838.292 259.687 839.391 258.947C840.333 258.356 841.275 258.06 842.531 258.06C844.478 258.06 846.486 258.292 848.501 258.525C851.035 258.818 853.581 259.112 856.03 258.947C858.227 258.947 860.425 259.243 862.622 259.835C863.296 260.046 863.952 260.275 864.599 260.5C866.663 261.219 868.631 261.904 870.783 261.904C873.668 261.904 876.417 262.159 879.209 262.418C880.67 262.553 882.143 262.69 883.653 262.791C884.472 262.791 885.264 262.841 886.045 262.89C887.96 263.01 889.809 263.126 891.816 262.496C896.212 261.017 900.922 260.13 905.63 261.313C908.455 261.904 910.968 261.313 913.166 259.835C915.365 258.356 917.563 257.765 920.388 258.06C921.644 258.258 922.9 258.192 924.155 258.126C924.783 258.093 925.411 258.06 926.039 258.06C928.551 257.765 930.748 258.06 932.317 259.835C935.14 262.496 938.279 262.791 942.048 261.313C945.502 259.835 949.27 259.243 953.037 259.835C954.92 260.13 956.804 260.426 958.688 259.243C961.201 257.765 963.713 257.469 966.538 257.765L969.049 257.765C974.387 257.173 979.409 258.356 983.802 261.313C984.743 261.609 985.371 261.609 985.999 261.313L986 261.313C988.512 260.426 991.024 259.539 993.536 258.356C994.478 257.765 995.734 257.765 996.99 258.06C997.304 258.06 997.696 258.134 998.089 258.208C998.481 258.282 998.873 258.356 999.187 258.356C999.612 258.413 1000.04 258.482 1000.46 258.55C1002.25 258.836 1004.07 259.129 1006.09 258.652C1009.23 257.765 1012.69 257.469 1015.83 257.469C1017.18 257.469 1018.56 257.501 1019.95 257.534C1022.78 257.6 1025.65 257.667 1028.38 257.469C1033.09 256.878 1037.17 257.765 1040.94 260.426C1041.25 260.722 1041.88 261.017 1042.51 261.017C1044.55 260.722 1046.67 260.648 1048.79 260.574C1050.91 260.5 1053.03 260.426 1055.07 260.13L1055.07 260.13C1057.27 259.834 1059.46 259.539 1061.97 259.243C1061.85 259.017 1061.78 258.835 1061.72 258.679C1061.62 258.426 1061.54 258.243 1061.35 258.06C1061.24 257.962 1061.1 257.863 1060.96 257.765C1060.69 257.568 1060.41 257.371 1060.41 257.173C1058.84 253.034 1057.27 248.894 1056.65 244.459C1056.56 243.971 1056.45 243.506 1056.35 243.05C1056.06 241.849 1055.8 240.719 1056.03 239.432C1056.66 235.884 1056.97 232.632 1054.78 229.675C1053.21 227.309 1053.84 225.831 1055.72 224.057C1056.67 223.17 1057.61 222.283 1057.92 221.1C1058.17 220.415 1058.6 220.259 1059.07 220.087C1059.21 220.037 1059.35 219.984 1059.49 219.917L1060.75 219.917C1061.69 219.917 1061.69 219.621 1061.38 219.03C1061.19 218.765 1061 218.527 1060.83 218.299C1060.4 217.764 1060.03 217.287 1059.81 216.665C1058.24 213.116 1056.99 209.272 1056.37 205.133C1056.05 203.654 1055.74 202.176 1055.74 200.402L1055.75 200.3C1056.07 197.665 1056.41 194.765 1059.2 193.305C1059.52 193.305 1059.83 192.714 1059.83 192.418C1059.68 191.928 1059.57 191.437 1059.46 190.954C1059.1 189.4 1058.76 187.928 1057.32 186.8C1056.7 186.209 1056.7 185.913 1057.32 185.322C1058.27 184.435 1058.9 183.252 1058.9 182.069C1058.9 180 1059.21 177.634 1059.84 175.564C1060.16 174.382 1059.85 172.903 1059.53 171.72C1058.84 169.419 1057.75 167.3 1056.66 165.161C1055.78 163.453 1054.9 161.731 1054.2 159.893C1053.89 159.302 1054.21 159.006 1054.52 158.71L1059.23 154.275C1059.55 154.275 1059.86 153.979 1059.86 153.388C1059.7 152.841 1059.6 152.293 1059.5 151.757C1059.23 150.265 1058.97 148.857 1057.35 147.77C1056.41 147.179 1056.73 146.587 1057.36 145.996C1057.79 145.582 1058.17 145.105 1058.44 144.593C1059.27 144.486 1060.14 144.38 1061.04 144.274C1060.92 144.048 1060.85 143.865 1060.78 143.709C1060.68 143.456 1060.61 143.274 1060.41 143.091C1060.31 142.992 1060.17 142.894 1060.03 142.795C1059.75 142.598 1059.47 142.401 1059.47 142.204C1059.32 141.789 1059.16 141.373 1059 140.958C1059.13 139.379 1059.42 137.732 1059.87 136.238C1060.16 134.885 1059.92 133.779 1059.64 132.468C1059.62 132.346 1059.59 132.224 1059.56 132.099C1058.83 129.664 1057.66 127.434 1056.5 125.228C1056.1 124.476 1055.71 123.726 1055.33 122.972C1055.76 119.999 1055.73 117.243 1053.84 114.705C1052.28 112.34 1052.9 110.861 1054.79 109.087C1055.73 108.2 1056.67 107.313 1056.99 106.13C1057.23 105.445 1057.66 105.289 1058.13 105.118C1058.27 105.067 1058.42 105.015 1058.56 104.948L1059.82 104.948C1060.76 104.948 1060.76 104.652 1060.44 104.06C1060.26 103.796 1060.07 103.557 1059.89 103.329C1059.47 102.794 1059.1 102.317 1058.88 101.695C1057.31 98.1468 1056.06 94.3029 1055.43 90.1633C1055.12 88.6849 1054.81 87.2064 1054.81 85.4323L1054.82 85.33C1055.13 82.6957 1055.48 79.7954 1058.27 78.3359C1058.58 78.3359 1058.9 77.7445 1058.9 77.4488C1058.75 76.9582 1058.63 76.4675 1058.52 75.9847C1058.16 74.4309 1057.82 72.9588 1056.39 71.8308C1055.76 71.2394 1055.76 70.9438 1056.39 70.3524C1057.33 69.4653 1057.96 68.2826 1057.96 67.0999C1057.96 65.0301 1058.28 62.6646 1058.91 60.5948C1059.22 59.412 1058.91 57.9336 1058.6 56.7509C1057.9 54.4492 1056.82 52.3304 1055.72 50.1911C1054.85 48.4828 1053.97 46.7614 1053.27 44.9235C1052.96 44.3321 1053.27 44.0364 1053.59 43.7407L1058.3 39.3055C1058.61 39.3055 1058.93 39.0098 1058.93 38.4184C1058.76 37.8711 1058.66 37.3238 1058.56 36.7874C1058.29 35.2953 1058.04 33.8879 1056.42 32.8004C1055.48 32.209 1055.79 31.6177 1056.42 31.0263C1057.36 30.1392 1057.99 28.9565 1057.99 27.7738C1057.99 25.704 1058.31 23.3385 1058.94 21.2687C1059.23 19.9151 1058.99 18.8093 1058.71 17.4975C1058.68 17.3766 1058.66 17.2539 1058.63 17.1291C1057.89 14.6945 1056.72 12.4645 1055.56 10.2586C1054.75 8.71372 1053.95 7.18063 1053.3 5.59738C1052.99 5.3017 1052.67 5.3017 1052.36 5.3017C1051.57 5.44954 1050.87 5.44954 1050.16 5.44954C1049.46 5.44954 1048.75 5.44954 1047.96 5.59738C1044.2 6.18875 1041.06 6.18875 1037.92 3.82327C1037.75 3.50311 1037.4 3.35628 1037.01 3.19509C1036.68 3.05856 1036.32 2.91174 1036.04 2.64053C1033.21 0.57074 1030.39 0.57074 1027.25 1.4578C1026.75 1.57608 1026.24 1.70619 1025.74 1.8363C1023.73 2.35669 1021.72 2.87708 1019.71 2.64053C1015.63 2.04917 1011.55 1.75348 1007.15 2.93622L1007.15 2.9363C1005.27 3.52764 1003.39 4.11895 1001.5 3.82327C1000.25 3.67543 999.07 3.45367 997.893 3.2319C996.716 3.01014 995.539 2.78838 994.283 2.64053C993.969 2.64053 993.655 2.60768 993.341 2.57483C992.713 2.50912 992.086 2.44341 991.458 2.64053C990.358 3.08406 989.181 3.52759 988.003 3.97111C986.826 4.41464 985.648 4.85817 984.549 5.3017C983.92 5.89307 983.293 5.89307 982.351 5.3017C981.567 4.85817 980.782 4.48856 979.998 4.11896C979.213 3.74935 978.428 3.37975 977.644 2.93622C975.761 1.75348 974.192 1.16211 971.994 1.16211C970.425 1.16211 969.169 1.16211 967.913 0.866425L967.759 0.850274C964.997 0.560555 962.531 0.301991 960.064 1.75348C959.279 2.19701 958.415 2.56661 957.552 2.93622C956.688 3.30583 955.824 3.67543 955.039 4.11896C953.469 4.71033 951.899 4.71033 950.33 4.71033C949.794 4.71033 949.24 4.69278 948.672 4.67478C946.908 4.6189 945.009 4.55873 943.109 5.00601L936.515 6.78012C935.713 7.03168 935.366 6.8552 934.894 6.61485C934.812 6.57269 934.725 6.52856 934.631 6.48444C933.376 5.59732 932.121 4.78414 930.866 3.97095C929.611 3.15787 928.356 2.34479 927.101 1.4578C926.473 1.16211 925.845 0.866425 925.217 0.866425C922.706 1.16211 919.88 1.16211 917.369 1.16211C915.485 1.16211 913.601 1.4578 911.717 2.64053C910.931 3.08406 910.068 3.52759 909.204 3.97112C908.34 4.41464 907.477 4.85817 906.691 5.3017C905.435 5.89307 904.179 6.18875 902.924 5.89307C899.157 5.3017 895.076 5.3017 891.307 6.48444C889.423 7.07581 887.539 7.66718 885.342 7.66718L874.04 6.78012L873.744 6.75482C870.373 6.46686 866.722 6.15504 863.368 5.00601C860.543 4.11896 857.404 3.52759 854.579 3.52759C849.242 3.52759 844.22 2.64058 839.197 1.75354L839.197 1.75348C837.941 1.45779 837 1.4578 835.743 2.34485C834.958 2.93622 834.094 3.45367 833.23 3.97112C832.367 4.48857 831.503 5.00601 830.718 5.59738C828.833 7.07581 827.263 7.07581 825.38 5.89307C824.439 5.59738 823.497 5.3017 822.556 4.71033C820.359 3.2319 817.848 3.52759 815.336 3.82327C814.83 3.87617 814.315 3.93854 813.791 4.0019C811.387 4.2927 808.809 4.60453 806.231 4.11896C805.627 4.0478 805.022 3.9595 804.414 3.87057C802.493 3.59 800.529 3.30307 798.383 3.52759C793.046 3.82327 787.394 4.71033 782.056 6.48444C781.114 6.78012 780.486 6.48444 779.859 6.18875C777.348 4.71033 774.838 3.52759 772.327 2.34485C771.072 1.75348 770.13 1.4578 769.188 2.34485C768.56 2.78835 767.853 3.15793 767.146 3.52751C766.44 3.89714 765.733 4.26677 765.105 4.71033C764.786 4.93558 764.466 5.19896 764.142 5.46658C763.19 6.25289 762.193 7.07581 761.022 7.07581C759.543 7.07581 758.065 6.02641 756.85 5.16321C756.775 5.11001 756.701 5.05751 756.628 5.00601C753.49 2.93622 750.665 2.64053 747.21 4.71033C743.127 7.07581 739.045 7.66718 734.336 7.37149C732.5 7.15534 730.832 7.41323 729.086 7.68312C728.444 7.78241 727.791 7.88333 727.115 7.96286C726.351 7.96286 725.639 8.06009 724.937 8.15599C723.907 8.2966 722.898 8.43434 721.778 8.25855C721.156 8.11206 720.525 7.96558 719.889 7.81776C716.672 7.07046 713.309 6.28912 710.165 5.3017C707.654 4.41464 704.829 3.52759 702.003 3.82327C701.218 3.97112 700.512 3.97112 699.845 3.97112C699.178 3.97112 698.55 3.97112 697.922 4.11896C697.281 4.20515 696.614 4.24109 695.928 4.27805C694.26 4.36789 692.48 4.46373 690.7 5.3017C685.989 7.37149 681.279 8.84992 676.256 8.55423C675.315 8.55423 674.687 8.55423 673.745 8.25855C673.103 8.03874 672.462 7.80872 671.818 7.57797C668.999 6.56714 666.14 5.54243 663.073 5.3017L662.717 5.25371C658.458 4.6794 654.479 4.14297 650.202 5.00601C647.376 5.59738 644.55 5.89307 641.725 5.59738C637.958 5.00601 634.505 5.3017 631.05 6.78012C630.108 7.37149 628.852 7.66718 627.596 7.96286C626.968 8.25855 626.34 7.96286 625.713 7.66718C623.83 6.78012 621.947 5.89307 620.064 4.71033C617.868 3.2319 615.67 2.93622 613.472 4.11896C612.215 4.71033 610.646 4.71033 609.077 3.82327C608.96 3.76824 608.832 3.70296 608.696 3.63316C608.099 3.32794 607.332 2.93622 606.566 2.93622C602.799 2.93622 598.717 2.93622 594.635 3.82327C593.003 4.17809 591.37 4.62753 589.737 5.07697C587.288 5.75113 584.839 6.4253 582.389 6.78012C581.684 6.87498 580.979 7.0307 580.264 7.1887C578.749 7.52323 577.188 7.86801 575.482 7.66718C574.528 7.5773 573.545 7.46009 572.541 7.34048C570.244 7.06661 567.84 6.78012 565.437 6.78012C563.553 6.78012 561.67 6.48444 560.101 5.59738C559.473 5.00601 558.531 5.00601 557.903 5.59738C556.647 6.48444 555.077 6.78012 553.507 7.07581C550.995 7.66718 548.483 7.37149 546.287 5.89307C545.384 5.21202 544.272 4.62901 543.132 4.03113C542.292 3.59071 541.437 3.14222 540.639 2.64053C540.011 2.34485 539.383 2.04916 538.755 2.04916C537.111 2.04916 535.706 2.27449 534.122 2.52844C533.892 2.5654 533.657 2.60297 533.418 2.64053C530.278 3.2319 527.453 3.2319 524.313 2.93622C520.86 2.64053 517.407 2.34485 514.266 4.41464C513.795 4.56249 513.324 4.78425 512.853 5.00601C512.382 5.22778 511.911 5.44954 511.44 5.59738C509.87 6.18875 508.614 6.18875 507.045 5.59738C506.704 5.46907 506.349 5.34075 505.985 5.20941C504.673 4.73545 503.252 4.22217 502.023 3.52759C500.768 2.93622 499.512 2.93622 498.256 3.2319C497.59 3.3574 496.867 3.53616 496.111 3.72297C495.087 3.97631 494.003 4.24446 492.918 4.41464C492.526 4.48857 492.133 4.58097 491.741 4.67337C490.563 4.95057 489.386 5.22778 488.209 5.00601C486.011 4.71033 483.814 4.41464 481.616 4.41464C474.71 4.41464 468.116 5.3017 461.523 6.48444C459.325 6.78012 457.127 7.07581 455.243 7.96286C453.044 8.84992 451.161 8.84992 448.964 7.37149C448.023 6.78011 447.003 6.26266 445.983 5.7452C444.963 5.22776 443.943 4.71032 443.002 4.11896C442.374 3.52759 441.747 3.52759 441.118 3.82327C439.862 4.26678 438.528 4.71029 437.193 5.1538C435.859 5.59734 434.524 6.04089 433.268 6.48444C432.326 7.07581 431.384 7.07581 430.128 7.07581C429.062 7.07581 427.972 7.02849 426.87 6.98071C424.077 6.85955 421.214 6.73535 418.512 7.37149C411.918 8.55423 405.64 7.96286 399.363 5.59738C396.538 4.41464 393.713 3.82327 390.574 4.11896C388.69 4.41464 386.492 4.41464 384.609 4.41464C383.981 4.41464 383.667 4.41464 383.039 4.71033C381.628 5.11919 380.291 5.63404 378.965 6.14497C376.456 7.11206 373.982 8.06508 371.106 8.25855L370.924 8.27413C367.542 8.56417 364.452 8.82913 361.061 7.66718C357.608 6.48444 354.155 5.59738 350.389 5.00601C349.892 4.91254 349.396 4.75996 348.89 4.60434C347.796 4.26768 346.655 3.91675 345.366 4.11896C343.547 4.23319 341.774 4.47982 340.03 4.72245C337.26 5.10785 334.563 5.48315 331.866 5.3017C328.099 5.3017 324.645 5.59738 321.19 7.37149C320.562 7.66718 319.934 7.88894 319.306 8.11071C318.678 8.33247 318.05 8.55423 317.422 8.84992C316.48 9.44129 315.852 9.1456 315.224 8.84992C313.332 7.7355 311.261 6.78909 309.281 5.88404C308.634 5.58843 307.997 5.29722 307.379 5.00601C306.751 4.41464 306.123 4.41464 305.181 5.00601L297.643 9.44129C297.015 9.73697 296.387 9.73697 295.759 9.44129C294.661 8.84991 293.484 8.33245 292.307 7.815C291.13 7.29756 289.954 6.78012 288.855 6.18875C288.734 6.15056 288.617 6.11236 288.505 6.07544C287.746 5.82655 287.164 5.63558 286.344 5.89307C284.657 6.23357 283.015 6.70477 281.385 7.17289C278.768 7.92429 276.178 8.66773 273.47 8.84992C272.411 8.84992 271.351 8.97466 270.291 9.0994C268.525 9.30731 266.759 9.51521 264.993 9.1456C260.599 8.25855 256.518 7.96286 252.122 8.84992C249.61 9.44129 247.413 8.55423 245.53 7.66718C244.109 6.7742 242.508 6.04977 240.999 5.36664C240.509 5.14497 240.029 4.92765 239.568 4.71033C238.94 4.11896 238.312 4.11896 237.37 4.71033C234.857 6.48444 232.03 8.25855 229.204 10.0327C228.575 10.3283 227.948 10.3283 227.32 10.3283C226.615 10.2262 225.901 10.1153 225.179 10.0031C221.721 9.46585 218.085 8.90099 214.449 9.1456C211.937 9.44129 209.74 8.84992 207.543 8.25855C206.706 8.06142 205.869 7.83144 205.032 7.60146C203.358 7.14151 201.684 6.68156 200.01 6.48444L187.767 5.59738C184 5.3017 180.233 5.00601 176.465 5.3017C176.026 5.41997 175.586 5.55008 175.146 5.68018C173.388 6.20058 171.629 6.72099 169.872 6.48444C168.773 6.3366 167.596 6.18876 166.419 6.04092C165.241 5.89307 164.064 5.74523 162.966 5.59738C161.396 5.3017 160.14 5.3017 158.884 6.18875C156.371 7.66718 154.173 8.84992 151.66 10.0327C149.772 10.9217 147.529 10.8083 145.331 10.6972C144.606 10.6605 143.885 10.624 143.183 10.624C143.183 10.624 142.869 10.624 142.556 10.3283C141.301 9.44129 139.967 8.55424 138.634 7.66718C137.3 6.78013 135.966 5.89307 134.711 5.00601C134.084 4.41464 133.142 4.41464 132.2 4.71033C131.258 5.00601 130.395 5.22778 129.531 5.44954C128.667 5.67131 127.804 5.89307 126.862 6.18875C124.036 7.07581 121.21 7.37149 118.385 7.07581C114.304 6.48444 110.85 7.66718 107.395 9.44129C105.196 10.9197 102.684 11.8068 99.859 11.2154C99.4477 11.167 99.0363 11.1265 98.6263 11.0861C96.5334 10.88 94.4764 10.6775 92.6398 9.44129C91.5415 8.84992 90.3647 8.25855 89.1879 7.66718C88.0111 7.07581 86.8342 6.48444 85.7359 5.89307C85.1083 5.59738 84.4804 5.59738 83.8523 5.89307C82.596 6.48444 81.2614 7.00188 79.9267 7.51933C78.5921 8.03678 77.2574 8.55423 76.0012 9.1456C74.7449 9.73697 73.8031 9.73697 72.5476 9.44129C68.1531 8.55423 64.0721 8.25855 59.676 9.44129C56.8499 10.3283 54.0242 10.624 51.1992 10.0327C50.2576 9.73697 49.0018 9.73697 47.746 9.73697C45.2056 9.49768 42.8701 10.033 40.5738 10.5594C40.0327 10.6834 39.4937 10.8069 38.9548 10.9197C37.6988 11.2154 36.443 11.2154 35.1879 10.3283C34.3144 9.858 33.4408 9.43441 32.5869 9.02039C31.2937 8.39332 30.0457 7.7882 28.9117 7.07581C27.6564 6.48444 26.7146 6.48444 25.4588 6.48444C23.4452 6.73728 21.4892 6.82797 19.5414 6.91827C16.9335 7.03917 14.3406 7.15939 11.6445 7.66718C9.07337 8.20523 6.24256 8.49851 3.62478 8.76972C3.36535 8.7966 3.10801 8.82326 2.85322 8.84992C1.91116 9.1456 1.28305 9.44129 1.90999 10.624C2.53694 11.8068 3.16365 13.2852 3.47642 14.7636C5.04215 19.7903 6.60764 25.1126 5.34767 30.4349C4.76738 32.0709 5.25532 33.204 5.82625 34.5298C5.87445 34.6418 5.92325 34.7551 5.97204 34.8702C6.28551 35.4616 6.59892 36.1268 6.91234 36.7921C7.22575 37.4574 7.53917 38.1227 7.85264 38.7141C8.16612 39.3055 8.16565 39.8968 7.5373 40.4882C6.2806 41.6709 5.33785 42.8537 4.39509 44.0364Z" fill="white"/>
</svg>
