<svg width="224" height="82" viewBox="0 0 224 82" fill="none" xmlns="http://www.w3.org/2000/svg">
<path d="M1.67435 22.5611C1.23422 23.3555 1.23422 23.8321 1.56432 24.7854C1.34425 24.7854 1.12419 24.9443 0.904126 24.9443C0.574029 24.9443 0.574029 25.262 0.574029 25.7387C1.23422 27.8041 1.67435 29.8696 1.89442 32.0939C2.00445 32.8883 2.11448 33.6827 2.11448 34.4771C2.11448 35.907 2.00445 37.4958 0.904127 38.2902C0.794095 38.4491 0.794095 38.608 0.794095 38.9258C0.904127 40.0379 1.01416 41.1501 1.67435 41.9445C1.89442 42.1034 1.89442 42.4211 1.67435 42.58C1.12419 43.2155 1.01416 44.01 1.01416 44.9632C1.12419 45.9165 0.904128 46.7109 0.794095 47.5053C0.574031 48.4586 0.574031 49.4119 0.904128 50.3652C1.34426 52.2718 1.89442 54.0194 2.55461 55.7671C2.77468 56.4027 2.77468 57.0382 2.11448 57.5148L0.794096 59.4214L0.794088 59.4214C0.684059 59.5803 0.574032 59.7392 0.574032 60.0569C0.684064 61.1691 0.794097 62.2812 1.45429 63.0756C1.67436 63.2345 1.67436 63.5523 1.45429 63.7112C0.904129 64.3467 0.904129 65.3 0.904129 66.2533C0.904129 66.8888 0.794097 67.3654 0.794097 67.8421C0.684065 68.7953 0.353968 69.7486 0.574033 70.7019C1.01416 72.6085 1.56432 74.5151 2.22452 76.2627C2.44458 76.8983 2.66465 77.5338 2.66465 78.1693C2.77468 78.646 2.88471 78.646 3.21481 78.646C4.42517 78.3282 5.52549 78.1693 6.73584 78.0104C8.16626 77.8516 9.48665 77.8516 10.807 79.2815C11.9074 80.5525 13.2278 80.8703 14.6582 80.0759C15.5384 79.5992 16.4187 79.4404 17.409 79.7581C18.7294 80.0759 19.9397 80.0759 21.2601 79.4404C22.4705 78.9637 23.5708 78.9637 24.7811 79.4404C25.8815 79.917 26.8718 79.917 28.6323 80.2348C29.7326 79.1226 30.8329 79.4404 31.9332 80.5525C32.7035 81.3469 33.5837 81.9824 34.6841 81.8236C35.2342 81.8236 35.6743 81.8236 36.1145 81.9824C36.8847 81.9824 37.6549 82.1413 38.3151 81.5058C38.7553 81.188 39.3054 80.8703 39.7455 80.5525C40.4057 79.917 41.176 79.5992 42.0562 79.7581C43.2666 80.0759 44.3669 79.7581 45.4672 79.2815C45.7973 79.1226 46.2375 78.9637 46.5675 78.8048C46.8976 78.6459 47.1177 78.646 47.4478 78.9637C48.218 79.917 49.0983 80.7114 49.8685 81.5058C50.0886 81.8236 50.1986 81.9824 50.5287 81.9824C51.2989 81.8236 52.0692 81.8236 52.8394 81.8236C53.8297 81.8236 54.93 81.5058 55.8103 80.5525C56.2504 80.0759 56.8006 79.7581 57.3507 79.2815C57.4607 79.1226 57.6808 79.1226 57.9009 79.1226C59.6614 79.5992 61.4219 79.4403 63.1824 78.6459C63.7326 78.3282 64.3928 78.1693 64.9429 78.3282C65.7132 78.4871 66.4834 78.4871 67.2536 78.6459C69.1242 78.8048 70.9947 78.9637 72.7552 79.917C73.1954 80.2348 73.7455 80.5525 74.2957 80.5525C76.2763 80.5525 78.2569 80.7114 80.2374 81.3469C81.1177 81.6647 81.7779 81.5058 82.4381 80.7114C83.0983 79.917 83.7585 79.4403 84.3086 78.8048C84.5287 78.4871 84.7488 78.4871 85.0789 78.6459C85.629 79.1226 86.1792 79.2815 86.6193 79.7581C87.3895 80.5525 88.2698 80.5525 89.1501 80.3936C90.3604 80.0759 91.4607 79.917 92.6711 80.2347C93.4413 80.3936 94.2116 80.7114 94.9818 80.5525C97.0724 80.2348 99.053 79.7581 101.034 78.8048C101.364 78.6459 101.694 78.8048 101.914 78.9637C102.904 79.5992 103.894 80.2348 104.775 81.0292C104.995 81.3469 105.215 81.188 105.435 81.0292C106.425 80.0759 107.305 79.2815 108.186 78.4871C108.406 78.3282 108.626 78.3282 108.846 78.4871C109.616 79.1226 110.496 79.7581 111.377 80.3936C111.707 80.5525 111.927 80.5525 112.147 80.3936L115.118 78.4871C115.338 78.3282 115.668 78.1693 115.998 78.1693L115.998 78.1693C117.428 78.1693 118.969 78.1693 120.399 77.6927C120.839 77.3749 121.39 77.216 121.94 77.3749C123.15 77.6927 124.36 78.1693 125.461 78.6459C126.891 79.2815 128.322 80.2347 129.972 79.7581C131.182 79.4403 132.393 79.5992 133.493 78.8048C134.593 78.1693 135.584 77.3749 136.794 77.3749C137.894 77.3749 138.995 77.216 139.985 77.8515C140.975 78.4871 141.966 78.9637 143.066 79.1226C144.496 79.2815 145.817 79.5992 147.247 79.1226C148.237 78.8048 149.338 78.6459 150.328 78.8048C151.428 78.9637 152.639 79.1226 153.739 78.3282C154.179 78.0104 154.619 78.0104 154.949 77.6927C155.39 77.216 155.94 77.3749 156.38 77.8515C156.82 78.3282 157.26 78.4871 157.7 78.9637C158.58 80.0759 159.461 80.0759 160.451 79.4403C160.781 79.1226 161.111 79.2815 161.441 79.4403C161.881 79.7581 162.212 80.0759 162.652 80.0759C164.082 80.0759 165.513 80.0759 166.833 79.5992C168.263 79.1226 169.584 78.4871 171.014 78.1693C172.004 78.0104 172.995 77.5338 173.985 77.6927C175.085 78.0104 176.076 78.1693 177.176 78.1693C177.946 78.1693 178.606 78.3282 179.267 78.8048C179.487 78.9637 179.707 78.9637 179.927 78.8048C180.697 78.0104 181.687 78.0104 182.678 77.8515C183.008 77.8515 183.228 78.0104 183.448 78.1693C184.328 78.8048 185.318 79.5992 186.199 80.3936C186.309 80.5525 186.419 80.7114 186.639 80.7114C187.189 80.5525 187.849 80.5525 188.399 80.3936C189.61 80.0759 190.93 80.0759 192.14 80.2347C193.131 80.3936 194.121 80.5525 195.001 79.5992C195.331 79.2815 195.661 79.1226 195.991 78.8048C196.322 78.6459 196.652 78.4871 196.982 78.4871C197.532 78.4871 198.082 78.8048 198.522 79.2815C199.512 80.2347 200.613 80.2347 201.713 79.7581C202.813 79.2815 203.914 78.9637 205.124 79.2815C205.894 79.4403 206.555 79.5992 207.325 79.4403L207.325 79.4403C209.305 79.1226 211.286 78.8048 213.267 78.3282C214.147 78.0104 215.027 77.8515 215.797 77.3749C216.457 76.8982 217.118 76.7394 217.888 77.5338C218.548 78.3282 219.318 78.8048 219.978 79.4403C220.199 79.7581 220.419 79.7581 220.749 79.5992L222.102 72.8874C221.949 72.4659 221.297 71.2648 219.918 69.832C218.195 68.0411 222.3 67.1154 221.194 65.8386C220.089 64.5618 220.581 64.069 219.51 62.2906C218.439 60.5122 218.439 60.5121 218.536 57.5007L218.536 57.5005C218.614 55.0913 219.016 52.4873 219.207 51.4865C218.689 48.212 217.891 41.6675 218.842 41.6857C220.031 41.7085 224.465 40.538 222.072 38.7342C219.679 36.9305 220.403 35.6887 218.437 33.642C216.471 31.5954 217.342 29.6031 220.486 27.6544C223.63 25.7058 224.709 26.731 221.8 23.1595C218.892 19.5879 220.018 18.1028 219.861 16.5931C219.78 13.9799 220.258 11.9968 220.507 11.3319C221.189 11.345 222.484 11.2192 222.207 10.6112C221.86 9.85115 221.203 10.0036 221.249 8.58381C221.295 7.16404 220.65 6.92164 220.693 5.6001C220.727 4.54287 221.111 3.1209 221.299 2.54207C220.969 2.85983 220.529 3.01871 220.089 3.1776C219.868 3.33648 219.648 3.1776 219.428 3.01871L219.428 3.01862C218.768 2.54201 218.108 2.06539 217.448 1.42991C216.678 0.635504 215.907 0.476623 215.137 1.11215C214.697 1.42991 214.147 1.42991 213.597 0.953266C213.377 0.794385 213.046 0.476623 212.716 0.476623C211.396 0.476624 209.966 0.476624 208.535 0.953266C207.105 1.42991 205.674 2.22431 204.244 2.54207C203.474 2.70095 202.703 3.1776 201.823 3.01872C200.723 2.85984 199.512 2.54207 198.302 2.54207C197.642 2.54207 196.982 2.38319 196.432 1.90655C196.212 1.58879 195.881 1.58879 195.661 1.90655C195.221 2.38319 194.671 2.54207 194.121 2.70095C193.241 3.01872 192.36 2.85984 191.59 2.06543C191.04 1.42991 190.27 0.953268 189.61 0.317745L189.61 0.317712C189.389 0.158842 189.169 -1.6494e-05 188.949 -1.64748e-05C188.289 -1.64171e-05 187.739 0.158864 187.079 0.317745C185.979 0.635507 184.988 0.635507 183.888 0.476626C182.678 0.317745 181.467 0.158865 180.367 1.27103C180.037 1.42991 179.707 1.74767 179.377 1.90655C178.826 2.22431 178.386 2.22431 177.836 1.90655C177.286 1.58879 176.626 1.27103 176.076 0.794388C175.635 0.476627 175.195 0.476627 174.755 0.635507C174.205 0.794388 173.545 1.11215 172.885 1.27103C172.334 1.42991 171.784 1.74767 171.234 1.58879C170.464 1.42991 169.694 1.27103 168.923 1.27103C166.503 1.27103 164.192 1.74767 161.881 2.3832C161.111 2.54208 160.341 2.70096 159.681 3.1776C158.911 3.65424 158.25 3.65424 157.48 2.85984C156.82 2.22432 156.05 1.74767 155.39 1.11215C155.169 0.79439 154.949 0.79439 154.729 0.953271C153.849 1.42991 152.859 1.90656 151.979 2.3832C151.648 2.70096 151.318 2.70096 150.878 2.70096C149.558 2.70096 148.127 2.3832 146.807 2.85984C144.496 3.49536 142.296 3.1776 140.095 1.90656C139.105 1.27103 138.114 0.953272 137.014 1.11215C136.354 1.27103 135.584 1.27103 134.923 1.27103C134.703 1.27103 134.593 1.27103 134.373 1.42991C132.943 2.06544 131.733 3.1776 130.192 3.33648L130.128 3.34485C128.943 3.5007 127.86 3.64308 126.671 3.01872C125.461 2.3832 124.25 1.90656 122.93 1.5888C122.38 1.42992 121.83 0.953274 121.169 1.11215C119.519 1.27104 117.979 1.90656 116.438 1.74768C115.118 1.74768 113.907 1.90656 112.697 2.85984C112.257 3.1776 111.817 3.33649 111.377 3.65425C111.046 3.97201 110.826 3.81313 110.606 3.65425C109.726 2.85984 108.736 2.22432 107.856 1.5888C107.635 1.27104 107.415 1.27104 107.085 1.5888L104.445 3.97201C104.224 4.13089 104.004 4.13089 103.784 3.97201C103.014 3.33649 102.134 2.85984 101.364 2.22432C101.034 2.06544 100.813 1.90656 100.483 2.06544C98.9429 2.54208 97.5125 3.49537 95.9721 3.65425C94.9818 3.65425 93.9915 4.13089 93.0012 3.81313C91.4607 3.33649 90.0303 3.17761 88.4899 3.65425C87.6096 3.97201 86.8394 3.49537 86.1792 3.01873C85.519 2.3832 84.7488 1.90656 84.0886 1.42992C83.8685 1.11216 83.6484 1.11216 83.3183 1.42992C82.4381 2.38314 81.4479 3.33635 80.4577 4.28957L80.4575 4.28977C80.2374 4.44865 80.0174 4.44865 79.7973 4.44865C78.3669 4.13089 76.8264 3.65425 75.286 3.81313C74.4057 3.97201 73.6355 3.65425 72.8653 3.33649C71.985 3.01873 71.1048 2.54209 70.2245 2.3832L65.9332 1.90656C64.6128 1.74768 63.2925 1.5888 61.9721 1.74768C61.2018 2.06544 60.4316 2.54209 59.6614 2.38321C58.8912 2.22432 58.0109 2.06544 57.2407 1.90656C56.6905 1.74768 56.2504 1.74768 55.8103 2.22433C54.93 3.01873 54.1598 3.65425 53.2795 4.28977C52.3993 4.9253 51.2989 4.60754 50.3086 4.60754C50.3086 4.60754 50.1986 4.60754 50.0886 4.44866C49.2083 3.49537 48.218 2.54209 47.3378 1.5888C47.1177 1.27104 46.7876 1.27104 46.4575 1.42992C45.7973 1.74768 45.2472 1.90656 44.587 2.22433C43.5967 2.70097 42.6064 2.85985 41.6161 2.70097C40.1857 2.38321 38.9753 3.01873 37.765 3.97201C36.9947 4.76642 36.1145 5.24306 35.1242 4.9253C34.2439 4.76642 33.3637 4.76642 32.5934 3.97201C31.8232 3.33649 30.9429 2.70097 30.1727 2.06545C29.9527 1.90657 29.7326 1.90657 29.5125 2.06545C28.6323 2.70097 27.642 3.17761 26.7617 3.81313C26.3216 4.1309 25.9915 4.1309 25.5514 3.97202C24.0109 3.49537 22.5805 3.33649 21.04 3.97202C20.0498 4.44866 19.0595 4.60754 18.0692 4.28978C17.7391 4.1309 17.2989 4.1309 16.8588 4.1309C15.7585 3.97202 14.7682 4.44866 13.7779 4.76642C13.3378 4.9253 12.8976 4.9253 12.4575 4.44866C11.6873 3.81314 10.9171 3.33649 10.2569 2.70097C9.81674 2.38321 9.48664 2.38321 9.04652 2.38321C7.39603 2.70097 5.85558 2.54209 4.20509 3.01873C3.2148 3.33649 2.11448 3.49538 1.12419 3.65426C0.794091 3.81314 0.574027 3.97202 0.794092 4.60754C1.01416 5.24306 1.23422 6.03747 1.34425 6.83187C1.89442 9.53284 2.44458 12.3927 2.00445 15.2525C1.78438 16.2058 2.00445 16.8414 2.22451 17.6358C2.44458 18.2713 2.66464 19.0657 2.88471 19.7012C2.99474 20.019 2.99474 20.3367 2.77467 20.6545C2.33455 21.29 2.00445 21.9255 1.67435 22.5611Z" fill="white"/>
</svg>
