<svg width="30" height="18" viewBox="0 0 30 18" fill="none" xmlns="http://www.w3.org/2000/svg">
<path d="M28.7945 17.9985H25.5097C24.2675 17.9985 23.8932 16.9823 21.6664 14.7319C19.7203 12.8376 18.8984 12.602 18.4061 12.602C17.7252 12.602 17.5395 12.791 17.5395 13.7375V16.7207C17.5395 17.5275 17.2804 18 15.1933 18C13.1684 17.8626 11.2048 17.2413 9.46426 16.1873C7.7237 15.1333 6.25597 13.6768 5.18197 11.9377C2.63185 8.73207 0.857484 4.96972 0 0.949849C0 0.45265 0.187127 0.00197252 1.12564 0.00197252H4.40756C5.25107 0.00197252 5.55479 0.381414 5.88586 1.25805C7.47932 5.99453 10.1984 10.1146 11.3025 10.1146C11.7257 10.1146 11.9099 9.9256 11.9099 8.85997V3.98102C11.7703 1.75525 10.6 1.56771 10.6 0.76231C10.6148 0.549824 10.7111 0.351536 10.8683 0.209565C11.0255 0.0675937 11.2314 -0.00687647 11.4421 0.00197252H16.601C17.3064 0.00197252 17.5395 0.356699 17.5395 1.20863V7.79433C17.5395 8.50524 17.8418 8.74076 18.0549 8.74076C18.4781 8.74076 18.8034 8.50524 19.5792 7.7231C21.2423 5.67467 22.601 3.39247 23.6125 0.948395C23.7161 0.654951 23.9118 0.403765 24.1699 0.233151C24.4279 0.0625374 24.7342 -0.0181397 25.0419 0.00342622H28.3253C29.3098 0.00342622 29.5185 0.500626 29.3098 1.21008C28.1156 3.91184 26.638 6.47647 24.9023 8.85997C24.5482 9.40514 24.4071 9.68863 24.9023 10.3283C25.2276 10.8255 26.3791 11.7966 27.1521 12.7198C28.2778 13.8538 29.2119 15.1651 29.9187 16.6014C30.2008 17.5261 29.7316 17.9985 28.7945 17.9985Z" fill="#231E22"/>
</svg>
