<svg width="42" height="26" viewBox="0 0 42 26" fill="none" xmlns="http://www.w3.org/2000/svg">
<path d="M40.3123 25.498H35.7136C33.9745 25.498 33.4505 24.0866 30.333 20.9609C27.6084 18.3299 26.4577 18.0028 25.7685 18.0028C24.8153 18.0028 24.5554 18.2653 24.5554 19.5798V23.7231C24.5554 24.8438 24.1926 25.5 21.2706 25.5C18.4358 25.3092 15.6867 24.4463 13.25 22.9824C10.8132 21.5185 8.75836 19.4955 7.25477 17.0801C3.68459 12.6279 1.20048 7.40239 0 1.81923C0 1.12868 0.261978 0.50274 1.5759 0.50274H6.17058C7.35149 0.50274 7.77671 1.02974 8.2402 2.2473C10.471 8.82574 14.2778 14.548 15.8234 14.548C16.4159 14.548 16.6739 14.2856 16.6739 12.8055V6.02919C16.4784 2.93785 14.84 2.67738 14.84 1.55876C14.8607 1.26364 14.9955 0.988245 15.2156 0.791063C15.4357 0.59388 15.7239 0.490449 16.0189 0.50274H23.2414C24.2289 0.50274 24.5554 0.995416 24.5554 2.17865V11.3255C24.5554 12.3128 24.9786 12.6399 25.2768 12.6399C25.8693 12.6399 26.3247 12.3128 27.4109 11.2265C29.7392 8.38149 31.6414 5.21177 33.0575 1.81722C33.2025 1.40965 33.4765 1.06079 33.8378 0.823821C34.1991 0.586858 34.6279 0.474806 35.0587 0.504759H39.6553C41.0338 0.504759 41.326 1.19531 41.0338 2.18067C39.3619 5.93312 37.2932 9.4951 34.8632 12.8055C34.3674 13.5627 34.1699 13.9564 34.8632 14.8449C35.3186 15.5354 36.9308 16.8842 38.013 18.1664C39.5889 19.7413 40.8967 21.5626 41.8862 23.5576C42.2812 24.8418 41.6242 25.498 40.3123 25.498Z" fill="white"/>
</svg>
